<svg xmlns="http://www.w3.org/2000/svg" viewBox="0 0 329.54 325.08"><title>at-night</title><path d="M314.14,162.19A90.92,90.92,0,0,1,225.88,11.52L236.76,0,220.93.68A112.15,112.15,0,0,0,115.3,133a78.64,78.64,0,0,0-15.19-1.63A79.79,79.79,0,0,0,20.4,211.07a74.6,74.6,0,0,0,.63,9.51A59.24,59.24,0,0,0,59.3,325.08H230.88A59.35,59.35,0,0,0,265.69,217.7a111.78,111.78,0,0,0,55.51-45.9l8.34-13.49Zm-36.83,103.6a46.5,46.5,0,0,1-46.45,46.44H59.29a46.5,46.5,0,0,1-46.45-46.44,46,46,0,0,1,18.9-37.31l3.18-2.35-.66-3.89a66.43,66.43,0,0,1,65.84-78,66,66,0,0,1,22.42,4.06c1.65.59,3.28,1.22,4.88,1.93.25.12.48.25.73.36a66.84,66.84,0,0,1,7.84,4.32c1,.63,2,1.26,2.9,1.93s1.95,1.42,2.89,2.17c1.55,1.24,3.06,2.53,4.49,3.91.6.57,1.18,1.16,1.76,1.75q2.16,2.23,4.13,4.67c.48.59.94,1.19,1.4,1.79a66.33,66.33,0,0,1,4.34,6.43l3.43,5.91,5.69-3.79a39.93,39.93,0,0,1,62.08,33.49v5.89h0l5.86.51a42.83,42.83,0,0,1,5.63.87l.19,0a48.25,48.25,0,0,1,5.59,1.61l1.74.62.08,0A46.07,46.07,0,0,1,277.31,265.79Zm-25.63-57c-.88.24-1.77.4-2.65.59l-.08,0a59,59,0,0,0-7.29-1.86,52.42,52.42,0,0,0-9.58-25.17c-.35-.49-.67-1-1-1.5s-.66-.76-1-1.15c-.68-.84-1.36-1.7-2.09-2.49-.24-.26-.51-.5-.76-.76-.85-.89-1.7-1.76-2.6-2.59l-.06,0a52.8,52.8,0,0,0-11.69-8h0a52.77,52.77,0,0,0-47.29-.06,77.59,77.59,0,0,0-5.26-6.66c-.44-.51-.88-1-1.34-1.53q-2.63-2.87-5.52-5.48c-.67-.6-1.35-1.16-2-1.73-1.46-1.23-3-2.4-4.51-3.51-1.18-.86-2.38-1.68-3.61-2.47-1.41-.91-2.85-1.79-4.32-2.61q-1.87-1.05-3.8-2c-.95-.46-1.92-.88-2.89-1.3s-2-1-3-1.36A99.53,99.53,0,0,1,199.68,16.9c2.17-.59,4.38-1.11,6.61-1.55a103.82,103.82,0,0,0,85.55,162.49c3.14,0,6.28-.13,9.4-.42A99.05,99.05,0,0,1,251.68,208.78Z"/></svg>