<svg xmlns="http://www.w3.org/2000/svg" viewBox="0 0 410.52 271.49"><title>at-transfer</title><path d="M98.64,205.87a20.62,20.62,0,1,0,20.62,20.62A20.64,20.64,0,0,0,98.64,205.87Zm0,26.24a5.62,5.62,0,1,1,5.62-5.62A5.62,5.62,0,0,1,98.64,232.11Z"/><path d="M311.88,205.87a20.62,20.62,0,1,0,20.62,20.62A20.64,20.64,0,0,0,311.88,205.87Zm0,26.24a5.62,5.62,0,1,1,5.62-5.62A5.62,5.62,0,0,1,311.88,232.11Z"/><path d="M401,190.31v-147A43.34,43.34,0,0,0,357.71,0H76.77A67.33,67.33,0,0,0,9.52,67.25V190.31a23.74,23.74,0,0,0-9.52,19v.92A23.78,23.78,0,0,0,23.75,234H54.28A45,45,0,0,0,143,234H267.52a45,45,0,0,0,88.72,0h30.53a23.78,23.78,0,0,0,23.75-23.75v-.92A23.75,23.75,0,0,0,401,190.31Zm-15-77.87H365.42a1.91,1.91,0,0,1-1.91-1.91V52.7a1.91,1.91,0,0,1,1.91-1.91H386ZM15,210.24v-.92a8.76,8.76,0,0,1,8.75-8.76H61.9A44.75,44.75,0,0,0,54.28,219H23.75A8.76,8.76,0,0,1,15,210.24Zm83.64,46.25a30,30,0,1,1,30-30A30,30,0,0,1,98.64,256.49ZM267.52,219H143a45,45,0,0,0-63-33.43H24.52V67.25A52.31,52.31,0,0,1,76.77,15H357.71A28.34,28.34,0,0,1,385,35.79H365.42A16.93,16.93,0,0,0,348.51,52.7v57.82a16.93,16.93,0,0,0,16.91,16.91H386v58.13H330.54a45,45,0,0,0-63,33.43Zm44.36,37.5a30,30,0,1,1,30-30A30,30,0,0,1,311.88,256.49Zm83.64-46.25a8.76,8.76,0,0,1-8.75,8.75H356.24a44.75,44.75,0,0,0-7.62-18.43h38.15a8.76,8.76,0,0,1,8.75,8.76Z"/><path d="M326.38,110.53V52.7a16.93,16.93,0,0,0-16.91-16.91H78.54A36.22,36.22,0,0,0,42.36,72v38.55a16.93,16.93,0,0,0,16.91,16.91h250.2A16.93,16.93,0,0,0,326.38,110.53ZM191.87,50.79h59v61.64h-59Zm-15,61.64h-59V50.79h59ZM57.36,110.53V72A21.21,21.21,0,0,1,78.54,50.79h24.37v61.64H59.27A1.91,1.91,0,0,1,57.36,110.53Zm254,0a1.91,1.91,0,0,1-1.91,1.91H265.83V50.79h43.64a1.91,1.91,0,0,1,1.91,1.91Z"/><path d="M369.54,173.9a7.5,7.5,0,0,0,7.5-7.5v-6.67a7.5,7.5,0,1,0-15,0v6.67A7.5,7.5,0,0,0,369.54,173.9Z"/></svg>