<svg xmlns="http://www.w3.org/2000/svg" viewBox="0 0 512 512"><title>at-vip</title><polygon points="175.85 291.39 137.65 182.27 110.17 182.27 162.15 327.19 163.07 329.73 188.63 329.73 239.73 187.41 241.55 182.27 214.05 182.27 175.85 291.39"/><rect x="252.2" y="182.27" width="27" height="147.45"/><path d="M384.08,193.15a55.56,55.56,0,0,0-18.28-8.23,88.44,88.44,0,0,0-22.05-2.64H306.12V329.73h27v-55.2h5.8a88.78,88.78,0,0,0,24.15-3.17,63.15,63.15,0,0,0,19.75-9.3,45.29,45.29,0,0,0,13.42-15,44.18,44.18,0,0,0,.3-39.75A40.58,40.58,0,0,0,384.08,193.15Zm-44.53,58.17h-6.43V205.47h10a60.56,60.56,0,0,1,12.72,1.3,29.2,29.2,0,0,1,9.85,3.87,18.91,18.91,0,0,1,6.2,6.46,19.33,19.33,0,0,1,2.23,9.73A21.18,21.18,0,0,1,371.75,237a22.4,22.4,0,0,1-6.83,7.61,33.81,33.81,0,0,1-10.95,5A55.43,55.43,0,0,1,339.55,251.32Z"/><path d="M504.51,237.9l-60-60V93.09a25.6,25.6,0,0,0-25.6-25.6H334.09l-60-60a25.59,25.59,0,0,0-36.21,0l-60,60H93.08a25.6,25.6,0,0,0-25.6,25.6v84.83l-60,60a25.6,25.6,0,0,0,0,36.21l60,60v84.83a25.6,25.6,0,0,0,25.6,25.6h84.84l60,60a25.58,25.58,0,0,0,36.2,0l60-60h84.84a25.6,25.6,0,0,0,25.6-25.6V334.09l60-60A25.6,25.6,0,0,0,504.51,237.9Zm-85.59,85.58v95.44H323.48L256,486.4l-67.48-67.48H93.08V323.48L25.6,256l67.48-67.48V93.08h95.44L256,25.6l67.48,67.48h95.44v95.44L486.4,256Z"/><circle cx="256" cy="76.8" r="12.8"/><circle cx="256" cy="435.2" r="12.8"/><circle cx="129.28" cy="129.28" r="12.8"/><circle cx="382.71" cy="382.71" r="12.8"/><circle cx="382.71" cy="129.28" r="12.8"/><circle cx="129.28" cy="382.71" r="12.8"/><circle cx="435.2" cy="256" r="12.8"/><circle cx="76.8" cy="256" r="12.8"/></svg>