<svg xmlns="http://www.w3.org/2000/svg" viewBox="0 0 384 384"><title>at-visa</title><path d="M254.28,288a8,8,0,0,1-8,8H114.12a8,8,0,1,1,0-16H246.28a8,8,0,0,1,8,8Zm2-136a80.09,80.09,0,0,1-80,80h-.18a80,80,0,0,1,0-160h.18a80.09,80.09,0,0,1,80,80Zm-143.67-8h31.56V104a31.89,31.89,0,0,1,1-8,64.14,64.14,0,0,0-32.58,48Zm32.58,64a31.89,31.89,0,0,1-1-8V160H112.61a64.14,64.14,0,0,0,32.58,48Zm47-48H160.17v40a16,16,0,0,0,32.06,0Zm0-56a16,16,0,0,0-32.06,0v40h32.06Zm47.56,56H208.23v40a31.94,31.94,0,0,1-1,8,64.14,64.14,0,0,0,32.58-48Zm0-16a64.14,64.14,0,0,0-32.58-48,31.94,31.94,0,0,1,1,8v40Zm141.76-31.79L304.34,298.54V344a40,40,0,0,1-40,40H24A24,24,0,0,1,0,360V24A24,24,0,0,1,24,0H264.34a40,40,0,0,1,40,40v5.66L364.2,70.4a32,32,0,0,1,17.35,41.81ZM48.06,16H24a8,8,0,0,0-8,8V360a8,8,0,0,0,8,8H48.06ZM288.34,40a24,24,0,0,0-24-24H64.05V368H264.34a24,24,0,0,0,24-24V121.47a7.93,7.93,0,0,1,0-2.49V51.21c0-.14,0-.28,0-.43Zm78.42,53.85a15.9,15.9,0,0,0-8.68-8.66L304.34,63v52l13.15,5.44a8,8,0,1,1-6.11,14.79l-7-2.91V256.74l44-106.3-8.51-3.51A8,8,0,0,1,346,132.14l8.52,3.52,12.25-29.57a15.87,15.87,0,0,0,0-12.24Zm0,0"/></svg>