<svg id="Слой_1" data-name="Слой 1" xmlns="http://www.w3.org/2000/svg" viewBox="0 0 105.21 189.7"><title>baby</title><circle cx="52.56" cy="27" r="27"/><path d="M99.46,36.5c-0.2-.1-0.4-0.1-0.6-0.2a8.61,8.61,0,0,0-10.3,5.5c-3.9,11-8.3,19.1-12.6,25l-2-.5a39.78,39.78,0,0,0-13.1-7.2,22,22,0,0,0-8.1-1.5,21.61,21.61,0,0,0-8.1,1.5,41.83,41.83,0,0,0-13,7.1l-2.4.6c-4.4-5.9-8.8-14-12.6-25a8.61,8.61,0,0,0-10.3-5.5c-0.2.1-.4,0.1-0.6,0.2A8.64,8.64,0,0,0,.46,47.4c8.3,23.7,19.4,36.8,29.4,44v25.3a22.42,22.42,0,0,0,.6,5.2v57.7a10,10,0,0,0,20,0V139.5a16.2,16.2,0,0,0,2.2.1,15.48,15.48,0,0,0,2.2-.1v40.2a10,10,0,0,0,20,0V122a22.42,22.42,0,0,0,.6-5.2V91.3c10-7.3,21-20.4,29.2-43.9A8.42,8.42,0,0,0,99.46,36.5Z"/></svg>