<svg id="Слой_1" data-name="Слой 1" xmlns="http://www.w3.org/2000/svg" viewBox="0 0 351.02 463"><title>coctail</title><path d="M347.79,72.38A15.07,15.07,0,0,0,335.93,48H279.71a31.79,31.79,0,0,0-13.66-26.45l4.44-11.3a7.5,7.5,0,0,0-14-5.48L252,16.23A31.57,31.57,0,0,0,218.91,36l-4.7,12H15.09A15.07,15.07,0,0,0,3.24,72.38L168,282.09V399.5a48.55,48.55,0,0,1-48.5,48.5h-24a7.5,7.5,0,1,0,0,15h160a7.5,7.5,0,1,0,0-15h-24A48.55,48.55,0,0,1,183,399.5V282.1L347.79,72.38h0ZM212.78,143a33.53,33.53,0,0,1,15.73,3.4,48.13,48.13,0,0,0,21.64,4.6,47.08,47.08,0,0,0,19.8-3.83L175.51,267.36,81.07,147.18A47,47,0,0,0,100.83,151a48,48,0,0,0,21.61-4.61,33.4,33.4,0,0,1,15.7-3.39,33.41,33.41,0,0,1,15.7,3.39A48,48,0,0,0,175.44,151a48.08,48.08,0,0,0,21.63-4.61A33.48,33.48,0,0,1,212.78,143h0ZM232.87,41.46A16.49,16.49,0,0,1,264.71,48H230.32ZM15.09,63L336,63a0.12,0.12,0,0,1,0,.13l-51,64.94a47.59,47.59,0,0,0-19.09,4.55,38.14,38.14,0,0,1-31.46,0A52.39,52.39,0,0,0,223.82,129l15.24-38.8a7.5,7.5,0,0,0-14-5.49L208,128.18a47.51,47.51,0,0,0-16.89,4.43A33.48,33.48,0,0,1,175.44,136a33.41,33.41,0,0,1-15.7-3.39A48,48,0,0,0,138.13,128a48,48,0,0,0-21.61,4.61A33.4,33.4,0,0,1,100.83,136a33.42,33.42,0,0,1-15.7-3.39A47.49,47.49,0,0,0,66,128.05L15,63.11A0.12,0.12,0,0,1,15.09,63h0Zm175.5,385H160.44a63.93,63.93,0,0,0,15.08-18.6A63.89,63.89,0,0,0,190.59,448Z"/><path d="M193.67,164.76l-25.14,64a7.5,7.5,0,1,0,14,5.48l25.14-64a7.5,7.5,0,1,0-14-5.48h0Z"/></svg>