<svg id="Capa_1" data-name="Capa 1" xmlns="http://www.w3.org/2000/svg" viewBox="0 0 391 488.3"><title>icon</title><path d="M314.25,85.4h-227A38.62,38.62,0,0,0,48.65,124V449.7a38.62,38.62,0,0,0,38.6,38.6h227a38.62,38.62,0,0,0,38.6-38.6V124A38.75,38.75,0,0,0,314.25,85.4Zm11.5,364.2a11.61,11.61,0,0,1-11.6,11.6h-227a11.61,11.61,0,0,1-11.6-11.6V124a11.61,11.61,0,0,1,11.6-11.6h227a11.61,11.61,0,0,1,11.6,11.6V449.6Z" transform="translate(-48.65 0)" fill="#24b3fd"/><path d="M401,0H174a38.62,38.62,0,0,0-38.6,38.6,13.5,13.5,0,1,0,27,0A11.61,11.61,0,0,1,174,27H401a11.61,11.61,0,0,1,11.6,11.6V364.3A11.61,11.61,0,0,1,401,375.9a13.5,13.5,0,1,0,0,27,38.62,38.62,0,0,0,38.6-38.6V38.6A38.62,38.62,0,0,0,401,0Z" transform="translate(-48.65 0)" fill="#24b3fd"/></svg>