<svg xmlns="http://www.w3.org/2000/svg" viewBox="0 0 349.16 336.71"><title>contract</title><path d="M341.66,0H83.46A7.5,7.5,0,0,0,76,7.5V156.6H7.5A7.5,7.5,0,0,0,0,164.1V291.23a45.53,45.53,0,0,0,45.48,45.48h258.2a45.53,45.53,0,0,0,45.48-45.48V7.5A7.5,7.5,0,0,0,341.66,0ZM15,291.23V171.6H76V291.23a30.48,30.48,0,1,1-61,0Zm319.16,0a30.51,30.51,0,0,1-30.48,30.48H79.2A45.31,45.31,0,0,0,91,291.23V15h243.2V291.23Z"/><path d="M202,86.63h96.13a7.5,7.5,0,0,0,0-15H202a7.5,7.5,0,0,0,0,15Z"/><path d="M202,169h96.13a7.5,7.5,0,0,0,0-15H202a7.5,7.5,0,0,0,0,15Z"/><path d="M202,251.42h96.13a7.5,7.5,0,0,0,0-15H202a7.5,7.5,0,0,0,0,15Z"/><path d="M132.81,95.07a7.51,7.51,0,0,0,5.45,2.35h.06A7.5,7.5,0,0,0,143.81,95L185,49.85a7.5,7.5,0,1,0-11.08-10.11L138.17,78.9,127,67.11a7.5,7.5,0,0,0-10.91,10.3Z"/><path d="M173.93,125.71l-35.75,39.15L127,153.08a7.5,7.5,0,0,0-10.9,10.3L132.81,181a7.51,7.51,0,0,0,5.45,2.35h.06a7.5,7.5,0,0,0,5.48-2.44L185,135.83a7.5,7.5,0,0,0-11.08-10.11Z"/><path d="M173.93,211.69l-35.75,39.15L127,239.06a7.5,7.5,0,0,0-10.9,10.3L132.81,267a7.51,7.51,0,0,0,5.45,2.35h.06a7.5,7.5,0,0,0,5.48-2.44L185,221.8a7.5,7.5,0,0,0-11.08-10.11Z"/></svg>