<svg id="Layer_1" data-name="Layer 1" xmlns="http://www.w3.org/2000/svg" viewBox="0 0 351 463"><title>food</title><path d="M326.38,0h0A24.74,24.74,0,0,0,302,21.14l-35.86,251a23.44,23.44,0,0,0,17.56,26.12l12,3-6.46,129.27A30.9,30.9,0,0,0,320.1,463,30.93,30.93,0,0,0,351,432.1V24.62A24.65,24.65,0,0,0,326.38,0ZM336,432.1h0a15.9,15.9,0,0,1-27.42,11,15.75,15.75,0,0,1-4.36-11.75L311,295.87a7.5,7.5,0,0,0-5.67-7.65l-18-4.5a8.48,8.48,0,0,1-6.35-9.45l35.86-251A9.67,9.67,0,0,1,326.35,15h0A9.63,9.63,0,0,1,336,24.62V432.1h0Z"/><path d="M231,7.13a7.5,7.5,0,1,0-15,.75L222.42,136H199V7.5a7.5,7.5,0,0,0-15,0V136H160.58L167,7.88a7.5,7.5,0,0,0-15-.75l-7.55,150.93a23.61,23.61,0,0,0,10.44,20.73l9.06,6a8.45,8.45,0,0,1,3.78,7.32L160.67,431.3a30.84,30.84,0,1,0,61.66,0l-7.07-239.14a8.46,8.46,0,0,1,3.78-7.32l9.06-6a23.61,23.61,0,0,0,10.43-20.73ZM219.78,166.3l-9.06,6a23.37,23.37,0,0,0-10.45,20.25l7.07,239.13a15.84,15.84,0,1,1-31.67,0l7.07-239.14a23.37,23.37,0,0,0-10.45-20.25l-9.06-6a8.54,8.54,0,0,1-3.77-7.5l0.39-7.8h63.33l0.39,7.8A8.54,8.54,0,0,1,219.78,166.3Z"/><path d="M63.5,0C47.87,0,26.24,7.84,11.93,45.22,3.12,68.21,0,95.29,0,111.5a63.09,63.09,0,0,0,30.47,54.23,16.63,16.63,0,0,1,8.24,14.63l-6.12,251a30.92,30.92,0,1,0,61.82,0l-6.12-251a16.64,16.64,0,0,1,8.24-14.64A63.09,63.09,0,0,0,127,111.5c0-16.21-3.12-43.29-11.93-66.28C100.76,7.84,79.13,0,63.5,0ZM88.72,152.92A31.89,31.89,0,0,0,73.3,180.73l6.12,251a15.92,15.92,0,1,1-31.83,0l6.12-251a31.89,31.89,0,0,0-15.43-27.81A48.19,48.19,0,0,1,15,111.5C15,80,26.85,15,63.5,15S112,80,112,111.5A48.19,48.19,0,0,1,88.72,152.92Z"/></svg>