<?xml version="1.0" encoding="utf-8"?>
<!-- Generator: Adobe Illustrator 19.0.0, SVG Export Plug-In . SVG Version: 6.00 Build 0)  -->
<svg version="1.1" id="Layer_1" xmlns="http://www.w3.org/2000/svg" xmlns:xlink="http://www.w3.org/1999/xlink" x="0px" y="0px"
	 viewBox="0 0 567 170" style="enable-background:new 0 0 567 170;" xml:space="preserve">
<style type="text/css">
	.st0{fill:#FFFFFF;}
	.st1{fill:none;stroke:#005FAA;stroke-width:0.275;stroke-miterlimit:10;}
	.st2{fill:#005FAA;}
	.st3{fill-rule:evenodd;clip-rule:evenodd;fill:#005FAA;}
</style>
<path class="st0" d="M244.3,62.2c0,1.2-0.1,2-0.4,2.5c-0.2,0.6-0.6,0.8-1.1,0.8h-0.6h-0.1c-0.3,0-0.5,0-0.7-0.1
	c-0.2-0.1-0.5-0.2-0.6-0.4c-0.2-0.1-0.4-0.3-0.6-0.5c-0.3-0.2-0.5-0.4-0.7-0.6c-0.8-0.6-1.2-1.3-1.5-1.9c-0.2-0.8-0.4-1.5-0.4-2.3
	v-0.3c0-0.1,0-0.1,0.1-0.3v-0.2v-0.3c0.1-0.6,0.2-1.2,0.4-1.9c0.1-0.7,0.2-1.4,0.3-2.2c0.2-2.2,0.6-5,1.1-8.1
	c0.5-3.1,1.5-6.5,3-10.2v-0.1c0-0.1,0.1-0.1,0.1-0.1v-0.1v-0.1c0-0.2-0.1-0.4-0.1-0.7c-0.1-0.3-0.2-0.6-0.4-1.1
	c-0.2-0.6-0.4-1.1-0.6-1.4s-0.2-0.6-0.2-0.8c0-0.2,0.1-0.3,0.2-0.4s0.4-0.1,0.6-0.1h0.5h0.8c1.9,0.1,3.4,0.7,4.3,1.9
	c0.9,1.2,1.5,2.5,2,4c0.1,0.1,0.1,0.3,0.1,0.4c0,0.1,0.1,0.3,0.1,0.4c0.6,1.7,1,3.2,1.3,4.7c0.4,1.4,0.6,2.8,0.9,4.1
	c0,0.1,0,0.1,0,0.3c0,0.1,0.1,0.1,0.1,0.3c0.1,0.4,0.1,0.7,0.1,0.9c0.1,0.3,0.1,0.5,0.2,0.7c0,0.1,0,0.1,0,0.1
	c0,0.1,0.1,0.1,0.1,0.1c0.1-0.1,0.3-0.4,0.4-0.9c0.1-0.4,0.2-0.9,0.3-1.5c0.6-2.6,1.4-5,2.4-7.3c1.1-2.3,2.2-4.4,3.4-6.1
	c0.2-0.3,0.4-0.5,0.6-0.6c0.2-0.1,0.4-0.2,0.7-0.2h0.5c0.3,0,0.7,0.1,1.2,0.3c0.4,0.3,0.9,0.6,1.6,1.1c0.8,0.5,1.3,1.1,1.7,1.7
	c0.3,0.6,0.5,1.2,0.6,1.9c0,0,0,0.1,0,0.2c0,0.1,0.1,0.1,0.1,0.3v0.9v1c-0.1,0.3-0.1,0.6-0.1,0.9V42c0,4.6,0.1,8.9,0.6,12.7
	c0.4,3.9,1,7.5,2,10.9c0,0.1,0.1,0.2,0.1,0.3c0.1,0.1,0.1,0.1,0.1,0.2s0.1,0.1,0.1,0.2v0.1v0.1l-0.1,0.1c-0.1,0.1-0.1,0.2-0.1,0.3
	c-0.1,0.1-0.2,0.1-0.4,0.1l-0.5,0.1c-0.2,0-0.5-0.1-0.9-0.3c-0.4-0.1-1-0.4-1.7-0.8c-0.5-0.2-0.9-0.4-1.3-0.5
	c-0.3-0.1-0.6-0.2-0.8-0.3c-0.3-0.2-0.4-0.4-0.6-0.5c-0.1-0.2-0.3-0.4-0.4-0.8c0-0.1-0.1-0.1-0.1-0.2c0-0.1-0.1-0.2-0.1-0.4
	c-0.4-2.4-0.8-5-1-7.6s-0.4-5.8-0.4-9.4c0-0.4-0.1-0.9-0.1-1.1c-0.1-0.3-0.1-0.5-0.2-0.6c-0.1,0.1-0.1,0.3-0.3,0.4
	c-0.1,0.1-0.1,0.3-0.3,0.5c0,0.1-0.1,0.2-0.1,0.4c-0.1,0.1-0.1,0.2-0.1,0.4c-0.7,2.4-1.4,5-2,7.8c-0.6,2.8-1,5.8-1.1,8.9
	c0,0.4,0,0.6-0.1,0.9c-0.1,0.3-0.3,0.4-0.6,0.4h-0.5c-0.1,0-0.4,0-0.7-0.1c-0.3-0.1-0.6-0.2-1-0.4c-0.4-0.2-0.8-0.4-1.1-0.6
	c-0.4-0.1-0.6-0.3-0.8-0.4c-0.4-0.3-0.6-0.5-0.8-0.8c-0.2-0.2-0.4-0.6-0.6-0.9c-0.1-0.2-0.1-0.4-0.1-0.7c-0.1-0.2-0.2-0.4-0.3-0.8
	L246,46c-0.1-0.4-0.2-0.9-0.3-1.2c-0.1-0.3-0.2-0.5-0.4-0.6c0,0.1-0.1,0.3-0.1,0.5c0,0.2-0.1,0.6-0.1,0.9c-0.1,0.6-0.1,1.4-0.2,2
	c-0.1,0.7-0.1,1.4-0.2,2.1c-0.1,1-0.1,1.9-0.2,3c-0.1,1.1-0.1,2-0.1,3c-0.1,0.6-0.1,1.2-0.1,1.7c-0.1,0.6-0.1,1.2-0.1,1.7v0.5
	c0,0.1,0,0.4,0.1,0.5v0.5v0.5V62.2z"/>
<path class="st0" d="M272.9,56.7c-0.1,0.6-0.2,1.3-0.2,1.9c-0.1,0.6-0.1,1.3-0.1,1.9v0.5c0,0.1,0,0.4,0,0.5v0.5v0.6
	c0,0.1,0.1,0.2,0.1,0.3c0.1,0.1,0.1,0.1,0.1,0.2c0,0.1,0.1,0.1,0.1,0.2c0.1,0.1,0.1,0.1,0.2,0.3c0.3,0.2,0.6,0.4,0.9,0.6
	c0.4,0.2,0.6,0.4,1,0.6c0.5,0.2,1,0.4,1.4,0.6c0.4,0.1,0.9,0.1,1.2,0.1h0.5c0.4,0,0.6-0.1,0.8-0.1c0.3-0.1,0.4-0.4,0.4-0.6
	c0.1-1.2,0.1-2.6,0.3-3.9c0.1-1.4,0.2-2.8,0.5-4.3c0-0.3,0.1-0.5,0.2-0.6c0.1-0.1,0.4-0.2,0.8-0.2l4.1-0.5h0.1h0.1
	c0.1,0.1,0.1,0.1,0.2,0.1c0,0.1,0.1,0.2,0.1,0.4c0,0,0,0.1,0.1,0.1c0,0.1,0,0.1,0,0.2c0.1,0.9,0.3,1.7,0.4,2.4
	c0.1,0.7,0.1,1.4,0.2,2.1c0.1,0.4,0.1,0.8,0.1,1.2c0,0.4,0.1,0.8,0.1,1.3c0,0.3,0,0.6,0,0.9c0.1,0.3,0.1,0.6,0.1,0.9
	c0,0.1,0.1,0.1,0.1,0.2c0.1,0.1,0.2,0.1,0.4,0.2c0.4,0.1,0.8,0.4,1.3,0.5c0.5,0.2,1,0.4,1.5,0.5c0.4,0.1,0.8,0.1,1.2,0.2
	c0.4,0.1,0.7,0.1,1.1,0.1l0.5-0.1c0.3,0,0.6,0,0.8-0.1c0.3-0.1,0.4-0.2,0.4-0.4c-1.1-6.9-2-12.5-2.8-16.8c-0.8-4.3-1.5-7.7-2.2-10.2
	c-0.9-2.8-1.7-4.7-2.7-5.5c-0.9-0.9-2-1.4-3.4-1.5h-0.3h-0.6c-0.2,0-0.4,0.1-0.6,0.1c-0.1,0.1-0.3,0.1-0.4,0.2c0,0.1,0,0.1,0,0.1
	v0.1v0.1c0,0.1,0.1,0.1,0.1,0.1c0.1,0.1,0.1,0.1,0.1,0.1l0.1,0.1l0.8,2.5c-0.2-0.1-0.4-0.1-0.6-0.1c-0.1-0.1-0.4-0.1-0.5-0.1h-0.5
	c-0.4,0-0.6,0.1-0.9,0.3c-0.3,0.2-0.6,0.5-0.9,0.9c-0.6,0.9-1.2,2.2-1.8,4.2c-0.6,1.9-1.3,4.6-2.2,8.1c-0.1,0.9-0.4,1.6-0.7,1.8
	c-0.4,0.2-0.8,0.4-1.3,0.5c-0.4,0.1-0.7,0.3-1.1,0.4c-0.4,0.2-0.7,0.5-1.2,0.9c0.1,0.5,0.3,1,0.5,1.4c0.2,0.4,0.4,0.8,0.6,1.2
	c0.2,0.3,0.4,0.6,0.6,0.9C272.6,56.4,272.7,56.5,272.9,56.7L272.9,56.7z M281.5,50c0.1-0.5,0.1-1,0.2-1.5c0.1-0.6,0.2-1.1,0.4-1.7
	c0.1-0.9,0.4-1.7,0.7-2.4s0.6-1.5,1-2.1c0,0.1,0,0.1,0,0.1v0.1c0.4,1.9,0.7,3.6,0.9,5c0.3,1.4,0.4,2.4,0.5,3.1h-3.2
	c-0.2,0-0.4,0-0.4-0.1c-0.1-0.1-0.1-0.1-0.1-0.1V50z"/>
<path class="st0" d="M311.2,33.7c0,0,0.1,0.1,0.2,0.2c0.1,0.1,0.3,0.2,0.4,0.3c0.5,0.4,0.9,0.9,1.1,1.4c0.1,0.4,0.3,1,0.4,1.7
	c0.1,0.1,0.1,0.4,0.1,0.6c0.1,0.2,0.1,0.4,0.1,0.6c1.2,4.8,2,9.3,2.7,13.5s1.4,8.1,1.9,11.4c0,0.1,0,0.1,0.1,0.2c0,0.1,0,0.1,0,0.2
	c0.1,0.2,0.1,0.4,0.1,0.6c0,0.2,0,0.4,0,0.5c0,0.4-0.1,0.6-0.4,0.8c-0.2,0.1-0.6,0.2-1.2,0.2l-0.5,0.1c-0.4,0-0.8-0.1-1.4-0.1
	c-0.5-0.1-1.1-0.4-1.7-0.9c-0.4-0.4-0.7-0.9-1.2-1.4c-0.4-0.6-0.7-1.4-1-2.4c-0.1-0.6-0.2-1.4-0.4-2c-0.1-0.6-0.2-1.4-0.3-2
	c-0.3-2.2-0.5-4.4-0.7-6.4c-0.1-2.1-0.3-3.8-0.4-5.3c0-0.6-0.1-1-0.1-1.4c-0.1-0.4-0.2-0.6-0.4-0.7l-0.1,0.1
	c-0.1,0.1-0.1,0.1-0.1,0.1c-0.1,0-0.1,0.1-0.1,0.1c-0.1,0.1-0.1,0.1-0.1,0.1c-0.2,0.4-0.5,1.2-0.8,1.9c-0.3,0.9-0.6,1.8-1,2.9
	c-0.4,1.2-0.6,2.4-1,3.8c-0.4,1.4-0.6,2.8-0.9,4.2c-0.2,1.2-0.4,2.3-0.5,3.5c-0.1,1.2-0.2,2.3-0.2,3.3v0.1v0.1v0.1
	c0,0.1,0.1,0.1,0.1,0.1V64v0.2V65c0,0.4-0.1,0.6-0.1,0.9c-0.1,0.1-0.3,0.2-0.5,0.2l-0.5,0.1c-0.1-0.1-0.4-0.1-0.6-0.2
	c-0.2-0.1-0.5-0.2-0.8-0.3c-0.3-0.2-0.6-0.4-0.8-0.6c-0.3-0.2-0.6-0.4-0.8-0.6c-0.7-0.6-1.3-1.2-1.7-1.8c-0.5-0.6-0.7-1.4-0.7-2.2
	v-0.1c0,0,0-0.1,0.1-0.1V60v-0.1v-0.1c0.9-6,2.1-11.2,3.7-15.4c1.5-4.2,3.2-7.8,4.9-10.8c0.1-0.1,0.1-0.2,0.1-0.3
	c0.1-0.1,0.1-0.2,0.2-0.3c0.1-0.2,0.3-0.4,0.4-0.5c0.1-0.1,0.3-0.2,0.5-0.2h0.5c0.3,0,0.6,0.1,1.1,0.4c0.4,0.2,1,0.5,1.8,0.9
	C311.2,33.6,311.2,33.7,311.2,33.7z"/>
<path class="st0" d="M326.9,64.7c0.1,0.1,0.3,0.1,0.4,0.3c0.1,0.1,0.4,0.2,0.5,0.3c0.1,0,0.3,0.1,0.5,0.1c0.1,0.1,0.3,0.1,0.4,0.1
	h0.5h0.1h0.1c0.1-0.1,0.1-0.1,0.3-0.1c0.1-0.1,0.1-0.1,0.2-0.1c0-0.1,0-0.1,0.1-0.1c0.1-0.1,0.1-0.1,0.2-0.1
	c0.1-0.1,0.1-0.1,0.1-0.1c0.1,0,0.3,0.1,0.4,0.2c0.2,0.1,0.4,0.2,0.6,0.4c0.2,0.2,0.5,0.4,0.8,0.6c0.2,0.1,0.6,0.2,0.9,0.2l0.5-0.1
	c0.8,0,1.7-0.4,2.8-1.2c1.1-0.7,2.2-1.9,3.4-3.4c1.2-1.4,2-2.7,2.7-3.9c0.7-1.2,1-2.4,1-3.6v-0.1c0-0.2,0-0.4,0-0.6
	s-0.1-0.4-0.1-0.6c-0.2-1.2-0.6-2.2-1.1-3.3c-0.6-1-1.3-1.9-2.2-2.6c-1.2-0.8-2.3-1.3-3.5-1.5c-1.2-0.2-2.4-0.3-3.8-0.3h-0.1h-0.5
	c-0.2,0-0.3,0-0.4,0c-0.1,0.1-0.2,0.1-0.4,0.1h-0.1c-0.1,0-0.1,0-0.2,0c-0.1-0.1-0.1-0.1-0.1-0.3c0-0.1,0-0.4,0-0.6v-0.1
	c0-0.1,0-0.1,0-0.1v-0.1V44v-0.1c0.1-1.1,0.1-2.1,0.1-3c0.1-0.9,0.1-1.7,0.2-2.6c0-0.6,0.1-1.1,0.1-1.6c0-0.6,0.1-1.1,0.1-1.7l0,0
	c0-0.1-0.1-0.1-0.1-0.3c0-0.1,0-0.1-0.1-0.3c-0.1-0.4-0.4-0.7-0.8-1.1c-0.4-0.4-0.8-0.6-1.2-0.9c-0.2-0.1-0.4-0.2-0.5-0.3
	c-0.2-0.1-0.4-0.1-0.5-0.2c-0.1,0-0.1-0.1-0.3-0.1c-0.1,0-0.2-0.1-0.3-0.1c-0.1-0.1-0.2-0.1-0.4-0.1c-0.1,0-0.3-0.1-0.4-0.1h-0.6
	c-0.4,0-0.6,0.1-0.9,0.3c-0.2,0.1-0.4,0.4-0.4,0.7c-0.2,2.8-0.4,5.3-0.6,7.3s-0.3,4.1-0.4,6c-0.1,1.6-0.1,3.2-0.1,4.8
	c-0.1,1.6-0.1,3.4-0.1,5.4c0,0.4,0,0.7,0,1.1c0.1,0.4,0.1,0.8,0.1,1.2c0.1,0.7,0.1,1.4,0.3,2.1c0.1,0.6,0.4,1.2,0.5,1.7
	c0.7,0.9,1.1,1.4,1.1,1.4S326.2,64.1,326.9,64.7L326.9,64.7z M330.5,59.8c0-0.3-0.1-0.6-0.1-1.1c-0.1-0.5-0.1-0.9-0.1-1.4v-0.6v-0.6
	c0.1-0.4,0.1-0.7,0.1-1.1c0-0.3,0-0.6,0.1-0.9c0-0.4,0-0.7,0-1c0.1-0.3,0.1-0.6,0.1-0.7c0.1-0.8,0.3-1.4,0.7-1.7
	c0.4-0.4,0.9-0.6,1.4-0.6c0.4-0.1,0.8-0.1,1.2-0.1c0.4-0.1,0.7-0.1,1.1-0.1c0.4,0.1,0.9,0.1,1.2,0.2c0.4,0.1,0.6,0.2,0.7,0.5
	c0.1,0.2,0.2,0.4,0.3,0.6c0.1,0.2,0.1,0.4,0.1,0.7c0,0.5-0.1,1.2-0.4,1.9c-0.3,0.7-0.8,1.5-1.4,2.4c-0.9,1.4-1.7,2.3-2.5,3
	c-0.8,0.6-1.4,1.1-1.9,1.2c-0.1,0-0.3-0.1-0.4-0.2C330.7,60.1,330.6,59.9,330.5,59.8z"/>
<path class="st0" d="M345.2,61.4v0.2c0,0.2,0.1,0.4,0.2,0.7c0.1,0.2,0.3,0.5,0.4,0.8c0.1,0.1,0.2,0.3,0.3,0.4
	c0.1,0.1,0.1,0.2,0.2,0.4c0.1,0.4,0.4,0.6,0.6,0.9c0.2,0.3,0.4,0.4,0.4,0.4c0.2,0.3,0.6,0.5,1.1,0.6c0.6,0.1,1.2,0.2,1.8,0.2
	l0.6-0.1c0.1,0,0.4,0,0.6,0c0.1,0,0.4,0,0.6,0c0.2-0.1,0.4-0.1,0.6-0.1c0.2-0.1,0.4-0.1,0.6-0.1c0.3-0.1,0.5-0.1,0.8-0.1
	c0.3-0.1,0.6-0.1,0.9-0.1c0.6-0.1,1.2-0.2,1.9-0.4c0.6-0.1,1.4-0.1,2.2-0.2c0.6-0.1,1.4-0.1,2-0.1c0.7,0,1.4-0.1,1.9-0.1h0.6
	c0.3,0.5,0.6,0.8,1,1.1c0.4,0.2,0.9,0.4,1.4,0.4l0.5-0.1h0.2h0.1c0.1,0,0.1-0.1,0.2-0.1h0.1c0.9-0.1,1.5-0.3,1.9-0.6
	c0.3-0.3,0.5-0.6,0.5-1.2c0.1-0.1,0.3-0.4,0.4-0.6c0.1-0.4,0.1-0.7,0.1-1.1c0-0.1,0-0.3,0-0.4c-0.1-0.1-0.1-0.3-0.1-0.4
	c-0.1-0.5-0.1-1-0.4-1.4s-0.4-0.6-0.8-0.8c-0.2-0.6-0.4-1.3-0.6-2c-0.2-0.7-0.4-1.4-0.6-2.2c-0.4-1.9-0.8-4.1-1.3-6.7
	c-0.4-2.7-1-5.9-1.8-9.9c0-0.2-0.1-0.4-0.1-0.6c-0.1-0.2-0.1-0.4-0.1-0.6c-0.1-0.6-0.3-1.2-0.5-1.7c-0.1-0.5-0.5-0.9-1-1.4
	c-0.1-0.1-0.2-0.2-0.4-0.3c-0.1-0.1-0.3-0.3-0.4-0.4c-0.8-0.4-1.4-0.7-1.9-0.9c-0.4-0.2-0.8-0.4-1.1-0.4h-0.5
	c-0.2,0-0.4,0.1-0.5,0.2c-0.1,0.1-0.3,0.3-0.4,0.5c-0.1,0.1-0.1,0.2-0.1,0.3c-0.1,0.1-0.1,0.1-0.2,0.3c-1.7,3-3.4,6.6-4.9,10.8
	c-1.6,4.2-2.8,9.4-3.6,15.4c-0.9,0.1-1.6,0.2-2.1,0.5c-0.4,0.2-0.9,0.4-1.1,0.6c-0.1,0.1-0.1,0.1-0.1,0.3
	C345.2,61.3,345.2,61.4,345.2,61.4L345.2,61.4z M355.5,59.8v-0.2v-0.2c-0.1-0.1-0.1-0.1-0.1-0.2V59c0-2.2,0.3-4.4,0.8-6.4
	c0.5-2,1.1-3.9,1.7-5.4c0.2-0.6,0.5-1.2,0.7-1.8c0.3-0.6,0.5-1.1,0.7-1.5c0.1-0.1,0.1-0.1,0.1-0.1l0.1-0.1c0-0.1,0-0.1,0.1-0.1
	l0.1-0.1c0.1,0.1,0.3,0.4,0.4,0.7c0.1,0.4,0.1,0.9,0.2,1.4c0.1,1.9,0.2,4,0.4,6.3c0.2,2.3,0.6,4.9,1,7.7h-1.2h-1
	c-0.6,0.1-1.2,0.1-1.8,0.1C357.1,59.8,356.3,59.8,355.5,59.8z"/>
<path class="st0" d="M375,48.9c0.1-2.1,0.3-4.1,0.4-6.1c0-0.3,0-0.6,0-0.9c0-0.3,0-0.6,0.1-0.9c0-0.4,0.1-0.9,0.1-1.4
	s0.1-0.9,0.1-1.3c0.1-2.2,0.2-3.8,0.4-5c0.1-1.2,0.5-1.7,0.9-1.7h0.6c0.1,0,0.4,0.1,0.6,0.2c0.3,0.1,0.6,0.4,0.9,0.6
	c0.7,0.6,1.3,1.2,1.8,1.7c0.4,0.5,0.7,1,0.9,1.5c0.1,0.3,0.2,0.6,0.3,0.9c0.1,0.4,0.1,0.6,0.1,1s0,0.8-0.1,1.2s-0.1,0.9-0.2,1.5
	c-0.1,1-0.3,2.4-0.4,4.1c-0.1,1.7-0.2,3.7-0.3,6c0.4-0.6,0.7-1.2,1.1-1.9c0.4-0.6,0.7-1.3,1-1.9c0.1-0.1,0.1-0.3,0.2-0.4
	c0.1-0.1,0.1-0.2,0.2-0.4c1.2-2.2,2.4-4.3,3.5-6.3c1.2-2,2-3.5,2.6-4.6c0.4-0.8,0.9-1.4,1.3-1.8c0.5-0.4,0.9-0.6,1.3-0.6h0.6
	c0.3,0,0.6,0.1,0.9,0.2c0.3,0.2,0.6,0.5,0.9,0.9c0.1,0.1,0.2,0.2,0.3,0.4c0.1,0.1,0.1,0.2,0.2,0.3c0.1,0.3,0.1,0.5,0.2,0.7
	s0.1,0.4,0.1,0.6c0,0.5-0.1,0.9-0.3,1.4c-0.1,0.5-0.4,0.9-0.6,1.3c0,0.6,0,1.2-0.1,1.7c0,0.5,0,1-0.1,1.5v0.6v0.6V49
	c0,2.1,0.1,4,0.1,5.6c0.1,1.7,0.3,3.4,0.6,5c0.1,0.8,0.2,1.5,0.4,2.2c0.1,0.8,0.3,1.5,0.4,2.3c0.1,0.4,0.1,0.7,0.1,1.1
	c0,0.3,0.1,0.5,0.1,0.6c0,0.3-0.1,0.4-0.2,0.6c-0.1,0.1-0.2,0.2-0.4,0.2l-0.6,0.1c-0.2-0.1-0.5-0.1-0.8-0.3
	c-0.4-0.1-0.8-0.3-1.3-0.6c-0.3-0.1-0.6-0.3-0.9-0.4c-0.3-0.1-0.6-0.3-0.8-0.4c-1.1-0.6-1.8-1.3-2.2-2.2c-0.4-0.9-0.5-2.4-0.5-4.7
	c0-0.4,0-0.9,0-1.4c0-0.5,0.1-1.1,0.1-1.6c0-0.4,0-0.6,0.1-0.9c0-0.4,0-0.6,0-1v-0.3v-0.3c-0.1-0.1-0.1-0.1-0.1-0.3V52
	c0-0.8,0-1.6,0.1-2.3c0-0.8,0.1-1.5,0.1-2.2c0.1-0.2,0.1-0.4,0.1-0.6c0-0.1,0-0.3,0-0.5c-0.3,0.4-0.5,0.9-0.8,1.3
	c-0.2,0.4-0.4,0.7-0.6,1.2c-0.1,0.1-0.1,0.2-0.2,0.4c-0.1,0.1-0.1,0.3-0.2,0.4c-0.4,0.7-0.8,1.5-1.2,2.4s-0.9,1.9-1.6,3.2
	c-0.8,1.9-1.5,3.6-2,5c-0.6,1.5-0.9,2.4-0.9,2.8c0,0.2,0,0.4,0.1,0.6c0,0.1,0,0.4,0.1,0.5c0,0.3,0.1,0.5,0.1,0.6c0,0.1,0,0.3,0,0.4
	c0,0.1,0,0.2-0.1,0.3c-0.1,0.1-0.1,0.1-0.3,0.1h-0.5h-0.1c-0.1,0-0.3-0.1-0.4-0.1s-0.2,0-0.4-0.1c-2.2-0.4-3.6-1.1-4.2-2
	c-0.6-0.9-0.9-3.1-0.9-6.6v-0.4c0-0.1,0-0.2,0.1-0.4v-0.4v-0.4C374.9,53.1,375,50.9,375,48.9z"/>
<path class="st0" d="M411.3,45.3c-0.1,0-0.1,0.1-0.1,0.1c-0.1,0-0.1,0-0.1,0.1c-0.1,0-0.1,0.1-0.1,0.1c-0.1,0-0.1,0-0.1,0
	c-0.1-0.1-0.2-0.1-0.3-0.3s-0.1-0.3-0.1-0.5l0.1-0.3v-1.2c0-1-0.1-1.9-0.1-2.6c-0.1-0.7-0.2-1.4-0.4-1.9c-0.1-0.2-0.1-0.4-0.2-0.6
	c-0.1-0.1-0.1-0.3-0.1-0.4c0.1,0,0.2-0.1,0.3-0.1c0.1,0,0.2,0,0.3,0c0.1-0.1,0.2-0.1,0.4-0.1c0.1,0,0.1-0.1,0.3-0.1
	c0.3-0.1,0.6-0.1,1-0.2c0.4-0.1,0.6-0.1,0.9-0.1c0.6,0.1,1.2,0.2,1.6,0.4c0.5,0.3,0.9,0.7,1.1,1.4c0,0,0,0.1,0,0.1v0.2v0.1v0.1
	c0,0.4-0.1,0.8-0.2,1.3c-0.1,0.4-0.4,0.9-0.7,1.4c-0.4,0.5-0.8,1-1.3,1.5C412.6,44.4,412,44.9,411.3,45.3L411.3,45.3z M404,40
	c0,1.2-0.1,2.6-0.1,4.1c0,1.5-0.1,3.1-0.1,4.6c-0.1,1.8-0.2,3.5-0.4,5.3c-0.1,1.7-0.2,3.2-0.4,4.5c0,0.5-0.1,0.9-0.1,1.4
	c-0.1,0.5-0.1,0.9-0.1,1.2l-0.1,0.2c0,0.3,0.1,0.5,0.1,0.7c0.1,0.2,0.2,0.4,0.3,0.6c0.1,0.1,0.3,0.4,0.5,0.5
	c0.1,0.1,0.2,0.2,0.4,0.4c0.1,0.1,0.2,0.1,0.4,0.2c0.4,0.4,0.8,0.6,1.2,0.9c0.5,0.3,1,0.5,1.4,0.7c0.1,0,0.1,0,0.2,0
	c0.1,0.1,0.1,0.1,0.1,0.1c0.1,0,0.1,0,0.1,0.1h0.1c0,0.1,0.1,0.1,0.1,0.1h0.1h0.5c0.1,0,0.2-0.1,0.3-0.1c0.1-0.1,0.1-0.1,0.1-0.2
	l0.6-1.6l0.1-0.1c0,0.1,0,0.1,0.1,0.1l0.1,0.1c0.6,0.6,1.4,1.2,2,1.4c0.6,0.3,1.2,0.4,1.8,0.4h0.5c0.8,0,1.7-0.3,2.5-0.9
	c0.8-0.6,1.7-1.5,2.9-2.7c0.6-0.8,1.2-1.7,1.5-2.7c0.4-1,0.6-2.1,0.6-3.2v-0.2v-0.3v-0.4c0-0.1,0-0.3-0.1-0.4
	c-0.1-1.2-0.4-2.3-0.9-3.4c-0.5-1.1-1.2-2-2.2-2.8c-0.1-0.1-0.2-0.1-0.3-0.2c-0.1-0.1-0.1-0.1-0.1-0.2l0.3-0.3
	c0.9-0.9,1.5-1.7,1.9-2.7c0.4-0.9,0.7-1.9,0.9-2.8c0-0.2,0-0.4,0.1-0.6c0-0.2,0-0.4,0-0.6c0-2.6-1.1-4.9-3.3-6.8c-2.2-2-5-3-8.6-3
	h-0.5c-1.2,0-2.5,0.1-4,0.4c-1.4,0.4-2.8,0.9-4.3,1.6c-0.2,0.1-0.4,0.3-0.4,0.4c-0.1,0.2-0.2,0.4-0.2,0.6c0,0.2,0.1,0.4,0.1,0.7
	c0.1,0.3,0.1,0.6,0.3,0.9c0.1,0.3,0.1,0.5,0.3,0.7c0.1,0.2,0.2,0.4,0.4,0.6c0.4,0.6,0.8,1.1,1.2,1.3c0.4,0.3,0.9,0.4,1.4,0.4
	c0.2,0.1,0.4,0.1,0.5,0.2c0.1,0.1,0.1,0.2,0.1,0.4V40L404,40z M411,50.6h0.3c0.1,0,0.1-0.1,0.2-0.1h0.3h0.3c0.8,0,1.4,0.2,1.9,0.6
	c0.5,0.4,0.9,0.9,1.2,1.6v0.2c0,0.1,0,0.1,0,0.2v0.1v0.2c0,1.2-0.3,2.3-0.9,3.4c-0.7,1.1-1.4,1.9-2.2,2.4c-0.2,0.1-0.4,0.1-0.6,0.3
	c-0.2,0.1-0.4,0.1-0.6,0.1c-0.3-0.1-0.5-0.2-0.8-0.4c-0.2-0.3-0.4-0.6-0.4-1.1l0.6-7c0.1-0.2,0.1-0.4,0.2-0.5
	C410.5,50.6,410.7,50.6,411,50.6z"/>
<path class="st0" d="M428.4,48.9c0.1-2.1,0.2-4.1,0.4-6.1c0-0.3,0-0.6,0-0.9c0-0.3,0.1-0.6,0.1-0.9c0.1-0.4,0.1-0.9,0.1-1.4
	s0.1-0.9,0.1-1.3c0.1-2.2,0.2-3.8,0.4-5c0.1-1.2,0.5-1.7,1-1.7h0.5c0.1,0,0.4,0.1,0.6,0.2c0.2,0.1,0.5,0.4,0.8,0.6
	c0.7,0.6,1.4,1.2,1.8,1.7c0.4,0.5,0.7,1,0.9,1.5c0.1,0.3,0.2,0.6,0.3,0.9c0.1,0.4,0.1,0.6,0.1,1s0,0.8-0.1,1.2s-0.1,0.9-0.1,1.5
	c-0.2,1-0.4,2.4-0.5,4.1c-0.1,1.7-0.2,3.7-0.3,6c0.4-0.6,0.7-1.2,1.1-1.9c0.4-0.6,0.7-1.3,1.1-1.9c0.1-0.1,0.1-0.3,0.2-0.4
	c0-0.1,0.1-0.2,0.1-0.4c1.2-2.2,2.4-4.3,3.5-6.3c1.2-2,2-3.5,2.6-4.6c0.4-0.8,0.9-1.4,1.4-1.8c0.4-0.4,0.9-0.6,1.2-0.6h0.6
	c0.3,0,0.6,0.1,0.9,0.2c0.3,0.2,0.6,0.5,0.9,0.9c0.1,0.1,0.2,0.2,0.3,0.4c0.1,0.1,0.1,0.2,0.2,0.3c0.1,0.3,0.1,0.5,0.2,0.7
	s0.1,0.4,0.1,0.6c0,0.5-0.1,0.9-0.2,1.4c-0.2,0.5-0.4,0.9-0.6,1.3c0,0.6,0,1.2-0.1,1.7c0,0.5,0,1-0.1,1.5v0.6v0.6V49
	c0,2.1,0.1,4,0.1,5.6c0.1,1.7,0.3,3.4,0.6,5c0.1,0.8,0.2,1.5,0.4,2.2c0.1,0.8,0.3,1.5,0.4,2.3c0.1,0.4,0.1,0.7,0.1,1.1
	c0,0.3,0.1,0.5,0.1,0.6c0,0.3-0.1,0.4-0.2,0.6c-0.1,0.1-0.2,0.2-0.4,0.2l-0.6,0.1c-0.2-0.1-0.5-0.1-0.8-0.3
	c-0.4-0.1-0.8-0.3-1.3-0.6c-0.3-0.1-0.6-0.3-0.9-0.4c-0.3-0.1-0.6-0.3-0.8-0.4c-1.1-0.6-1.8-1.3-2.2-2.2c-0.4-0.9-0.6-2.4-0.6-4.7
	c0-0.4,0-0.9,0-1.4c0.1-0.5,0.1-1.1,0.1-1.6c0-0.4,0.1-0.6,0.1-0.9c0-0.4,0-0.6,0-1v-0.3v-0.3c0-0.1-0.1-0.1-0.1-0.3V52
	c0-0.8,0.1-1.6,0.1-2.3c0.1-0.8,0.1-1.5,0.1-2.2c0-0.2,0-0.4,0.1-0.6c0-0.1,0-0.3,0-0.5c-0.3,0.4-0.5,0.9-0.8,1.3
	c-0.2,0.4-0.4,0.7-0.6,1.2c-0.1,0.1-0.1,0.2-0.2,0.4c-0.1,0.1-0.1,0.3-0.2,0.4c-0.4,0.7-0.8,1.5-1.2,2.4s-0.9,1.9-1.6,3.2
	c-0.8,1.9-1.5,3.6-2,5c-0.6,1.5-0.9,2.4-0.9,2.8c0,0.2,0.1,0.4,0.1,0.6c0,0.1,0,0.4,0.1,0.5c0,0.3,0.1,0.5,0.1,0.6
	c0,0.1,0,0.3,0,0.4c0,0.1,0,0.2-0.1,0.3c-0.1,0.1-0.1,0.1-0.3,0.1h-0.5H434c-0.1,0-0.3-0.1-0.4-0.1c-0.1,0-0.2,0-0.4-0.1
	c-2.2-0.4-3.6-1.1-4.2-2c-0.6-0.9-0.9-3.1-0.9-6.6v-0.4c0-0.1,0-0.2,0.1-0.4v-0.4v-0.4C428.2,53.1,428.2,50.9,428.4,48.9z"/>
<path class="st0" d="M454.7,56.7c-0.1,0.6-0.2,1.3-0.3,1.9c0,0.6-0.1,1.3-0.1,1.9v0.5c0,0.1,0.1,0.4,0.1,0.5v0.5v0.6
	c0,0.1,0,0.2,0.1,0.3c0,0.1,0.1,0.1,0.1,0.2c0.1,0.1,0.1,0.1,0.2,0.2c0,0.1,0.1,0.1,0.2,0.3c0.3,0.2,0.6,0.4,0.9,0.6
	c0.3,0.2,0.6,0.4,1,0.6c0.5,0.2,0.9,0.4,1.4,0.6c0.4,0.1,0.9,0.1,1.2,0.1h0.5c0.3,0,0.6-0.1,0.8-0.1c0.2-0.1,0.4-0.4,0.4-0.6
	c0.1-1.2,0.1-2.6,0.2-3.9c0.1-1.4,0.3-2.8,0.6-4.3c0-0.3,0.1-0.5,0.2-0.6c0.1-0.1,0.4-0.2,0.8-0.2l4.2-0.5h0.1h0.1
	c0.1,0.1,0.1,0.1,0.2,0.1c0,0.1,0.1,0.2,0.1,0.4c0,0,0,0.1,0,0.1c0.1,0.1,0.1,0.1,0.1,0.2c0.1,0.9,0.2,1.7,0.3,2.4
	c0.1,0.7,0.2,1.4,0.3,2.1c0,0.4,0.1,0.8,0.1,1.2c0.1,0.4,0.1,0.8,0.1,1.3c0,0.3,0,0.6,0,0.9c0,0.3,0.1,0.6,0.1,0.9
	c0.1,0.1,0.1,0.1,0.2,0.2c0.1,0.1,0.2,0.1,0.4,0.2c0.4,0.1,0.7,0.4,1.2,0.5c0.5,0.2,1.1,0.4,1.6,0.5c0.4,0.1,0.8,0.1,1.2,0.2
	c0.4,0.1,0.7,0.1,1,0.1l0.6-0.1c0.3,0,0.6,0,0.8-0.1s0.4-0.2,0.4-0.4c-1.2-6.9-2.1-12.5-2.9-16.8c-0.7-4.3-1.5-7.7-2.2-10.2
	c-0.9-2.8-1.7-4.7-2.7-5.5c-0.9-0.9-2.1-1.4-3.5-1.5h-0.2H464c-0.3,0-0.5,0.1-0.6,0.1c-0.1,0.1-0.3,0.1-0.4,0.2
	c0,0.1-0.1,0.1-0.1,0.1v0.1c0,0,0,0.1,0.1,0.1c0,0.1,0,0.1,0.1,0.1c0,0.1,0.1,0.1,0.1,0.1v0.1l0.9,2.5c-0.2-0.1-0.4-0.1-0.6-0.1
	c-0.1-0.1-0.4-0.1-0.5-0.1h-0.6c-0.3,0-0.6,0.1-0.9,0.3c-0.3,0.2-0.6,0.5-0.9,0.9c-0.6,0.9-1.2,2.2-1.8,4.2
	c-0.6,1.9-1.4,4.6-2.2,8.1c-0.1,0.9-0.4,1.6-0.8,1.8c-0.4,0.2-0.7,0.4-1.2,0.5c-0.4,0.1-0.7,0.3-1.1,0.4c-0.4,0.2-0.8,0.5-1.2,0.9
	c0.1,0.5,0.4,1,0.6,1.4c0.2,0.4,0.4,0.8,0.6,1.2c0.2,0.3,0.4,0.6,0.6,0.9C454.3,56.4,454.5,56.5,454.7,56.7L454.7,56.7z M463.3,50
	c0-0.5,0.1-1,0.2-1.5c0.1-0.6,0.1-1.1,0.3-1.7c0.2-0.9,0.5-1.7,0.8-2.4c0.3-0.8,0.6-1.5,0.9-2.1c0,0.1,0.1,0.1,0.1,0.1v0.1
	c0.4,1.9,0.8,3.6,1,5s0.4,2.4,0.5,3.1h-3.3c-0.2,0-0.4,0-0.4-0.1c-0.1-0.1-0.1-0.1-0.1-0.1V50z"/>
<path class="st0" d="M494.8,36.5c0-1.2,0.1-2,0.4-2.7c0.2-0.7,0.6-1,1.2-1h0.5c0.4,0,1,0.3,1.7,0.9c0.6,0.6,1.4,1.6,2.2,3
	c0.1,0.1,0.1,0.3,0.2,0.4c0.1,0.1,0.1,0.3,0.1,0.4c0,0.2,0,0.4,0.1,0.5c0,0.1,0,0.3,0,0.4c0,0.3,0,0.5-0.1,0.8
	c0,0.2-0.1,0.4-0.1,0.6c-0.1,0.2-0.1,0.5-0.1,0.6c-0.1,0.2-0.1,0.4-0.1,0.5l0.1,0.1c-0.1,0.2-0.1,0.4-0.1,0.6c0,0.2-0.1,0.4-0.1,0.7
	c-0.1,1.2-0.3,2.7-0.4,4.6c-0.1,1.9-0.2,4-0.2,6v0.1v0.2c0,2,0.1,4,0.2,5.8c0.1,1.8,0.4,3.5,0.8,4.8c0.1,0.4,0.1,0.6,0.1,0.9
	c0.1,0.4,0.1,0.6,0.1,0.8c0,0.2,0,0.4-0.1,0.6c-0.1,0.1-0.2,0.1-0.4,0.1l-0.6,0.1c-0.1-0.1-0.4-0.1-0.8-0.2
	c-0.3-0.1-0.7-0.4-1.2-0.6c-0.4-0.1-0.6-0.3-0.9-0.4c-0.3-0.1-0.6-0.3-0.8-0.4c-1.1-0.6-1.8-1.3-2.2-2.2c-0.4-0.9-0.5-2.3-0.5-4.5
	c0-0.6,0-1.4,0-2.3c0-0.9,0.1-1.9,0.1-2.9c0.1-0.2,0.1-0.4,0.1-0.6v-0.5c0-0.6-0.1-1.1-0.4-1.3c-0.3-0.3-0.6-0.4-1.2-0.5
	c-0.3,0.1-0.6,0.1-1,0.1c-0.4,0.1-0.7,0.1-1.2,0.2c-0.8,0-1.4,0.2-1.7,0.5c-0.3,0.4-0.4,0.9-0.4,1.8c0,0.4,0.1,0.9,0.1,1.4
	c0.1,0.5,0.1,1.2,0.1,1.8c0.1,0.7,0.1,1.5,0.1,2.4c0,0.9,0.1,1.8,0.1,2.9v0.9c0,0.3,0,0.6,0,0.8c0,0.3,0.1,0.5,0.1,0.7
	c0,0.2,0,0.4,0,0.6c0.1,0.1,0.1,0.4,0.1,0.5c0,0.2-0.1,0.4-0.1,0.5c-0.1,0.1-0.1,0.2-0.3,0.2h-0.5c-0.1-0.1-0.3-0.1-0.4-0.1
	c-0.1-0.1-0.2-0.1-0.4-0.1c-2.1-0.4-3.5-0.9-4.2-1.7c-0.7-0.8-1.1-2.6-1.1-5.4V57c0-0.4,0.1-0.8,0.1-1.3v-0.2v-0.3
	c0.1-0.1,0.1-0.4,0.1-0.5c0.1-0.1,0.1-0.3,0.1-0.4c0-0.1,0-0.2-0.1-0.3c0-0.1,0-0.2-0.1-0.4c-0.1-0.2-0.3-0.5-0.5-0.7
	c-0.2-0.3-0.5-0.6-0.9-1.1c-0.1-0.2-0.1-0.4-0.3-0.7c-0.1-0.2-0.3-0.5-0.4-0.7c-0.1-0.1-0.1-0.1-0.1-0.1c-0.1-0.1-0.1-0.1-0.1-0.1
	c-0.2-0.3-0.4-0.6-0.6-0.9c-0.2-0.3-0.3-0.6-0.3-0.9v-0.1c0.1-0.1,0.1-0.1,0.1-0.1c0.1-0.1,0.1-0.3,0.3-0.4c0.1-0.1,0.3-0.2,0.6-0.3
	h0.1c0.1,0,0.1-0.1,0.1-0.1c1.1-0.1,1.8-0.4,2-0.8c0.3-0.4,0.4-1.4,0.5-3.1c0.1-0.6,0.1-1.4,0.1-2.2c0-0.9,0.1-1.9,0.2-3
	c0-0.3,0-0.5,0.1-0.7c0-0.2,0-0.4,0.1-0.7v-0.5c0-0.2,0-0.4,0.1-0.5c0-1.1,0.1-1.9,0.2-2.7c0.1-0.8,0.5-1.2,1.1-1.2h0.5
	c0.1,0,0.4,0.1,0.6,0.1c0.2,0.1,0.4,0.2,0.6,0.4c1.2,1.1,2,1.9,2.4,2.4s0.7,1.1,0.7,1.6v0.1v0.1c0,0.2,0,0.4-0.1,0.6
	c0,0.2-0.1,0.5-0.1,0.9c-0.1,0.2-0.1,0.6-0.1,0.9c-0.1,0.4-0.1,0.7-0.1,1.2c0,0.2,0,0.4-0.1,0.5c0,0.2-0.1,0.4-0.1,0.5
	c-0.1,0.8-0.1,1.4-0.2,2c-0.1,0.6-0.1,1-0.1,1.4c0,0.5,0.1,0.9,0.3,1.2c0.1,0.2,0.4,0.4,0.9,0.4c0.4,0,0.9-0.1,1.4-0.1
	c0.6-0.1,1.4-0.2,2.1-0.3c0.3-0.1,0.5-0.2,0.6-0.4c0.1-0.1,0.3-0.6,0.4-1.2c0.1-0.6,0.2-1.4,0.4-2.5c0.1-1.2,0.3-2.7,0.5-4.6V36.5z"
	/>
<path class="st0" d="M507.4,56.7c-0.1,0.6-0.2,1.3-0.3,1.9c0,0.6-0.1,1.3-0.1,1.9v0.5c0,0.1,0,0.4,0.1,0.5v0.5v0.6
	c0,0.1,0,0.2,0.1,0.3c0,0.1,0.1,0.1,0.1,0.2c0.1,0.1,0.1,0.1,0.1,0.2c0.1,0.1,0.2,0.1,0.3,0.3c0.3,0.2,0.6,0.4,0.9,0.6
	c0.3,0.2,0.6,0.4,1,0.6c0.5,0.2,0.9,0.4,1.4,0.6c0.4,0.1,0.8,0.1,1.2,0.1h0.6c0.3,0,0.6-0.1,0.8-0.1c0.2-0.1,0.4-0.4,0.4-0.6
	c0.1-1.2,0.2-2.6,0.3-3.9c0.1-1.4,0.3-2.8,0.5-4.3c0.1-0.3,0.1-0.5,0.3-0.6c0.1-0.1,0.4-0.2,0.8-0.2l4.2-0.5h0.1h0.1
	c0.1,0.1,0.2,0.1,0.2,0.1c0.1,0.1,0.1,0.2,0.1,0.4c0,0,0,0.1,0,0.1c0,0.1,0.1,0.1,0.1,0.2c0.1,0.9,0.2,1.7,0.3,2.4
	c0.1,0.7,0.2,1.4,0.3,2.1c0,0.4,0.1,0.8,0.1,1.2c0,0.4,0.1,0.8,0.1,1.3c0,0.3,0.1,0.6,0.1,0.9c0,0.3,0,0.6,0.1,0.9
	c0,0.1,0.1,0.1,0.2,0.2c0.1,0.1,0.2,0.1,0.4,0.2c0.3,0.1,0.7,0.4,1.2,0.5c0.5,0.2,1,0.4,1.6,0.5c0.4,0.1,0.7,0.1,1.2,0.2
	c0.4,0.1,0.7,0.1,1,0.1l0.6-0.1c0.3,0,0.6,0,0.8-0.1s0.4-0.2,0.4-0.4c-1.1-6.9-2-12.5-2.8-16.8s-1.5-7.7-2.2-10.2
	c-0.8-2.8-1.7-4.7-2.6-5.5c-0.9-0.9-2.1-1.4-3.5-1.5h-0.3h-0.5c-0.3,0-0.5,0.1-0.6,0.1c-0.1,0.1-0.2,0.1-0.3,0.2
	c-0.1,0.1-0.1,0.1-0.1,0.1v0.1c0,0,0,0.1,0.1,0.1c0,0.1,0,0.1,0.1,0.1c0,0.1,0.1,0.1,0.1,0.1v0.1l0.9,2.5c-0.2-0.1-0.4-0.1-0.6-0.1
	c-0.2-0.1-0.4-0.1-0.6-0.1h-0.5c-0.3,0-0.6,0.1-0.9,0.3c-0.3,0.2-0.6,0.5-0.9,0.9c-0.5,0.9-1.2,2.2-1.7,4.2s-1.4,4.6-2.2,8.1
	c-0.1,0.9-0.4,1.6-0.8,1.8c-0.4,0.2-0.8,0.4-1.2,0.5c-0.4,0.1-0.7,0.3-1.1,0.4c-0.4,0.2-0.8,0.5-1.2,0.9c0.1,0.5,0.4,1,0.6,1.4
	c0.1,0.4,0.4,0.8,0.5,1.2c0.2,0.3,0.4,0.6,0.6,0.9C507.1,56.4,507.3,56.5,507.4,56.7L507.4,56.7z M516.1,50c0-0.5,0.1-1,0.1-1.5
	c0.1-0.6,0.2-1.1,0.4-1.7c0.2-0.9,0.5-1.7,0.8-2.4c0.3-0.8,0.6-1.5,0.9-2.1c0,0.1,0,0.1,0.1,0.1v0.1c0.4,1.9,0.7,3.6,1,5
	c0.2,1.4,0.4,2.4,0.4,3.1h-3.2c-0.2,0-0.4,0-0.4-0.1c-0.1-0.1-0.1-0.1-0.1-0.1V50z"/>
<path class="st0" d="M239.5,83.2l-5.5-2.5c0,0,0-9.6-4.9-16.6h-5.4c0,0-1.5-5.5-6.4-11.1h9.1c0,0-5.3-7.9-10.7-7.9s-3.8-0.3-3.8-0.3
	l-5.7-9.5l10.6-1.8c0,0-1.2-3-8.5-5.3c-7.2-2.2-39.1-3.9-39.1-3.9s0.1-3.7,2.3-5.6c0,0,5.3-0.4,5.3-2.4s-6-0.7-8-0.3
	c-1.9,0.4-3.4,1.5-1,2.7c0,0-4.3,1.2-8.9,6.5c0,0-15.5,2.5-21.1,5.6c-5.6,3.1-7.8,5-7.8,6.5c0,1.5,3.7,1.2,3.7,1.2v4.5
	c0,0-13.2,2-20.2,4.5c-7,2.4-8.1,4.4-7.1,6.7l-14.3,9.7H13.2l23.5,24.9c0,0,4.9,7.1,15.2,7.1s91.8-1.8,91.8-1.8s18.2-0.2,42.6-1.8
	L239.5,83.2z"/>
<path class="st1" d="M239.5,83.2l-5.5-2.5c0,0,0-9.6-4.9-16.6h-5.4c0,0-1.5-5.5-6.4-11.1h9.1c0,0-5.3-7.9-10.7-7.9s-3.8-0.3-3.8-0.3
	l-5.7-9.5l10.6-1.8c0,0-1.2-3-8.5-5.3c-7.2-2.2-39.1-3.9-39.1-3.9s0.1-3.7,2.3-5.6c0,0,5.3-0.4,5.3-2.4s-6-0.7-8-0.3
	c-1.9,0.4-3.4,1.5-1,2.7c0,0-4.3,1.2-8.9,6.5c0,0-15.5,2.5-21.1,5.6c-5.6,3.1-7.8,5-7.8,6.5c0,1.5,3.7,1.2,3.7,1.2v4.5
	c0,0-13.2,2-20.2,4.5c-7,2.4-8.1,4.4-7.1,6.7l-14.3,9.7H13.2l23.5,24.9c0,0,4.9,7.1,15.2,7.1s91.8-1.8,91.8-1.8s18.2-0.2,42.6-1.8"
	/>
<path class="st2" d="M200.9,45.7c0,0-1.9-6-2.7-8.7c-0.9-2.7-12.2-7.5-22.3-8.1c-10-0.6-20.4-0.9-30.4,2.7
	c-9.9,3.5-10.4,5.4-10.3,6.8c0.1,1.5,0,4.8,0,4.8s12.9-1.4,22.7-1.4C167.7,41.8,184.7,43,200.9,45.7z"/>
<path class="st2" d="M213,64.7c0,0-1.5-4-3-6.9c-1.4-2.9-6.8-4.5-10-5.4c-3.2-0.9-10-2.4-21.8-3.2c-11.9-0.9-23.8-1.1-30.8-0.9
	c-7.1,0.2-21.4,1.3-28.3,3c-6.9,1.7-9.5,2.7-10.8,3.6c-1.2,0.9-13.7,9.7-13.7,9.7L213,64.7z"/>
<path class="st2" d="M205.9,68.1c0,0.9,0.6,1.6,1.4,1.6h1c0.8,0,1.4-0.7,1.4-1.6c0-0.9-0.6-1.7-1.4-1.7h-1
	C206.6,66.5,205.9,67.2,205.9,68.1z"/>
<path class="st2" d="M224.4,68.5c0,0.9,0.6,1.7,1.4,1.7h1c0.8,0,1.4-0.8,1.4-1.7c0-0.9-0.6-1.7-1.4-1.7h-1
	C225.1,66.8,224.4,67.5,224.4,68.5z"/>
<path class="st2" d="M186,68c0,0.9,0.6,1.7,1.4,1.7h1c0.8,0,1.4-0.8,1.4-1.7c0-1-0.6-1.7-1.4-1.7h-1C186.7,66.2,186,67,186,68z"/>
<path class="st2" d="M161.8,68c0,0.9,0.7,1.7,1.7,1.7h1.1c0.9,0,1.7-0.8,1.7-1.7c0-1-0.7-1.7-1.7-1.7h-1.1
	C162.6,66.2,161.8,67,161.8,68z"/>
<path class="st2" d="M134.3,68.3c0,1,0.9,1.8,2,1.8h1.3c1.2,0,2-0.8,2-1.8c0-0.9-0.9-1.7-2-1.7h-1.3
	C135.2,66.6,134.3,67.4,134.3,68.3z"/>
<path class="st2" d="M104.3,68.9c0,1,0.9,1.8,2.2,1.8h1.4c1.2,0,2.2-0.8,2.2-1.8c0-0.9-0.9-1.7-2.2-1.7h-1.4
	C105.3,67.2,104.3,68,104.3,68.9z"/>
<path class="st2" d="M72.2,69.6c0,0.9,1,1.7,2.2,1.7h1.5c1.2,0,2.2-0.8,2.2-1.7c0-0.9-1-1.7-2.2-1.7h-1.5
	C73.2,67.9,72.2,68.7,72.2,69.6z"/>
<path class="st2" d="M43.9,70.1c0,1.1,1.1,2,2.5,2h1.7c1.4,0,2.6-0.9,2.6-2c0-1.1-1.2-2-2.6-2h-1.7C45,68,43.9,69,43.9,70.1z"/>
<path class="st2" d="M80.8,78.8c0,0.7,0.6,1.3,1.3,1.3h2.3c0.7,0,1.3-0.6,1.3-1.3s-0.6-1.3-1.3-1.3h-2.3
	C81.4,77.6,80.8,78.1,80.8,78.8z"/>
<path class="st2" d="M96.8,78.6c0,0.7,0.5,1.3,1.2,1.3h2.1c0.6,0,1.2-0.6,1.2-1.3s-0.6-1.3-1.2-1.3h-2.1
	C97.3,77.3,96.8,77.8,96.8,78.6z"/>
<path class="st2" d="M112.7,78.5c0,0.7,0.6,1.3,1.2,1.3h2.1c0.6,0,1.2-0.6,1.2-1.3c0-0.8-0.6-1.4-1.2-1.4H114
	C113.3,77.1,112.7,77.7,112.7,78.5z"/>
<path class="st2" d="M127.7,78.3c0,0.7,0.5,1.4,1.2,1.4h2.1c0.6,0,1.2-0.6,1.2-1.4S131.7,77,131,77h-2.1
	C128.2,77,127.7,77.6,127.7,78.3z"/>
<path class="st2" d="M142.2,78.1c0,0.7,0.5,1.4,1.1,1.4h1.9c0.6,0,1.2-0.6,1.2-1.4s-0.5-1.3-1.2-1.3h-1.9
	C142.7,76.8,142.2,77.3,142.2,78.1z"/>
<path class="st2" d="M155.7,77.8c0,0.7,0.5,1.3,1.2,1.3h1.9c0.6,0,1.2-0.6,1.2-1.3s-0.5-1.3-1.2-1.3h-1.9
	C156.2,76.5,155.7,77,155.7,77.8z"/>
<path class="st2" d="M168.3,77.6c0,0.7,0.5,1.4,1.2,1.4h1.9c0.6,0,1.2-0.6,1.2-1.4s-0.6-1.3-1.2-1.3h-1.9
	C168.8,76.3,168.3,76.8,168.3,77.6z"/>
<path class="st2" d="M180.1,77c0,0.8,0.5,1.4,1.1,1.4h1.9c0.6,0,1.1-0.6,1.1-1.4c0-0.7-0.5-1.3-1.1-1.3h-1.9
	C180.6,75.8,180.1,76.3,180.1,77z"/>
<path class="st2" d="M191.2,76.7c0,0.7,0.5,1.3,1.1,1.3h1.9c0.6,0,1.1-0.6,1.1-1.3c0-0.7-0.5-1.3-1.1-1.3h-1.9
	C191.7,75.4,191.2,76,191.2,76.7z"/>
<path class="st2" d="M201.3,76.6c0,0.7,0.4,1.3,1,1.3h1.7c0.6,0,1-0.6,1-1.3c0-0.8-0.4-1.4-1-1.4h-1.7
	C201.7,75.2,201.3,75.8,201.3,76.6z"/>
<path class="st2" d="M210.6,76.4c0,0.7,0.4,1.3,0.9,1.3h1.6c0.5,0,0.9-0.6,0.9-1.3s-0.4-1.4-0.9-1.4h-1.6
	C211,75,210.6,75.7,210.6,76.4z"/>
<path class="st2" d="M218.8,76.2c0,0.7,0.4,1.4,0.9,1.4h1.6c0.5,0,0.9-0.6,0.9-1.4s-0.4-1.3-0.9-1.3h-1.6
	C219.2,74.9,218.8,75.5,218.8,76.2z"/>
<path class="st2" d="M261.5,80.5c0,0-20.8,2.3-33.7,3.3c-12.9,1-21.9,1.4-36.4,1.2c-14.5-0.1-36.6-0.5-46.7-0.9
	c-10-0.4-23.7-0.6-34.5-0.6s-23.5,0.3-31.1,0.7c-7.6,0.4-33.6,1.9-34.5,2.1c0,0,15.8-0.4,28.8-0.6c13-0.3,23.1-0.4,32.5-0.4
	c9.4-0.1,34.8,0.6,44.4,0.9s15.8,0.5,25.3,0.6c9.5,0.1,18.4,0.1,24.6,0.1c6,0,29.7-1.7,34.3-2.3c4.7-0.7,27.4-4.2,27.4-4.2
	L261.5,80.5z"/>
<path class="st2" d="M265.5,83.5c0,0-20.8,2.3-33.7,3.2c-12.9,1-21.9,1.5-36.4,1.3c-14.5-0.2-36.6-0.6-46.7-0.9
	c-10-0.4-23.7-0.6-34.5-0.6s-23.5,0.3-31.1,0.7c-7.6,0.4-33.6,1.9-34.5,2.2c0,0,15.8-0.3,28.8-0.6c13-0.3,23.1-0.4,32.5-0.5
	s34.8,0.6,44.4,1c9.6,0.3,15.8,0.4,25.3,0.6c9.5,0.1,18.4,0.1,24.5,0.1c6.1,0,29.7-1.7,34.3-2.4c4.6-0.6,27.4-4.1,27.4-4.1
	L265.5,83.5z"/>
<path class="st2" d="M270.8,86.5c0,0-20.7,2.4-33.6,3.4c-12.9,0.9-21.9,1.4-36.4,1.3c-14.5-0.2-36.6-0.6-46.7-1
	c-10-0.4-23.7-0.6-34.5-0.6c-10.9,0-23.5,0.3-31.1,0.6C81,90.7,55,92.2,54.1,92.4c0,0,15.8-0.3,28.8-0.6c13-0.3,23.1-0.4,32.5-0.5
	c9.3-0.1,34.8,0.7,44.4,1c9.6,0.3,15.8,0.5,25.3,0.6c9.4,0.1,18.4,0.1,24.5,0.1c6.1,0,29.7-1.7,34.3-2.3c4.6-0.7,27.4-4.2,27.4-4.2
	H270.8z"/>
<path class="st0" d="M558.8,80.8c0,0-29.2,5-47.4,7.2c-18.1,2.2-30.9,3.2-51.3,2.8c-20.4-0.4-51.6-1.3-65.7-2.2
	c-14.2-0.9-33.4-1.3-48.7-1.3S312.6,88,302,88.9c-10.7,0.9-47.2,4.2-48.6,4.7c0,0,22.3-0.6,40.5-1.2c18.3-0.6,32.5-0.9,45.7-1.1
	c13.2-0.2,49.1,1.4,62.6,2.1c13.6,0.6,22.3,1.1,35.6,1.3c13.3,0.2,25.9,0.2,34.6,0.2c8.6,0,41.8-3.6,48.3-5.1c6.6-1.5,38.5-9,38.5-9
	L558.8,80.8z"/>
<path class="st0" d="M546,70.9c0,0-26.6,5.1-43.1,7.3c-16.5,2.2-28.1,3.2-46.7,2.8c-18.5-0.4-46.9-1.3-59.8-2.2
	c-12.8-0.9-30.4-1.3-44.3-1.3c-13.8,0-30.1,0.6-39.8,1.5c-9.7,0.9-42.9,4.2-44.2,4.7c0,0,20.2-0.6,36.9-1.3
	c16.7-0.6,29.7-0.8,41.6-1c12-0.2,44.6,1.4,57,2.1s20.3,1.1,32.4,1.3c12.1,0.1,23.6,0.1,31.4,0.1c7.8,0,38.1-3.5,44.1-5
	c5.9-1.5,35-9.1,35-9.1L546,70.9z"/>
<path class="st3" d="M189.3,46.2c-0.1,0.2-0.4,0.5-0.6,0.9c0.1-0.1,0.2-0.1,0.4,0c0.2,0,0.3,0,0.4,0
	C189.4,46.8,189.4,46.5,189.3,46.2L189.3,46.2z M189.9,49c-0.1,0-0.2-0.2-0.4-0.5c0-0.2-0.1-0.5-0.1-0.8c-0.1,0-0.4,0-0.6,0
	c-0.3,0-0.4,0-0.6,0c-0.1,0.2-0.3,0.4-0.5,0.9c-0.1,0.1-0.2,0.1-0.4,0.1c-0.1-0.1-0.1-0.1-0.2-0.1c-0.1-0.1-0.1-0.1-0.1-0.3
	c0-0.1,0.1-0.4,0.4-0.9c0-0.1,0-0.1,0-0.1c0.1-0.1,0.1-0.1,0.3-0.1c0.3-0.4,0.6-0.9,1-1.3c0.5-0.6,0.8-0.9,0.9-0.9s0.3,0.1,0.3,0.4
	c0.1,0.2,0.1,0.5,0.1,0.9c0.1,0.5,0.1,1.2,0.2,1.8c0,0.1,0.1,0.1,0.1,0.4c0.1,0.1,0.1,0.3,0.1,0.4c0,0.1-0.1,0.1-0.1,0.2
	C190.1,49,190.1,49,189.9,49L189.9,49z M186.5,47.9c0,0.1,0,0.2-0.1,0.4c-0.1,0.2-0.2,0.3-0.4,0.3c-0.1,0-0.2-0.1-0.4-0.2
	c-0.6-0.7-1.3-1.7-2-2.8c-0.1,0.4-0.1,0.7-0.1,0.9c0,0.1,0,0.4-0.1,0.6c0,0.3,0,0.5,0,0.6c-0.1,0.5-0.2,0.8-0.5,0.7
	c-0.1,0-0.2,0-0.3-0.1c-0.1-0.1-0.1-0.1-0.1-0.2c0-0.1,0.1-0.2,0.1-0.4c0-0.1,0-0.2,0.1-0.3c0-0.1,0-0.3,0-0.5
	c0.1-0.2,0.1-0.4,0.1-0.4c0-0.1,0-0.3,0.1-0.5c0-0.2,0-0.4,0-0.5c0-0.1,0-0.3,0-0.5s0.1-0.4,0.1-0.4c0-0.1,0.1-0.2,0.1-0.3
	c0.1-0.1,0.2-0.1,0.3-0.1c0.1,0,0.3,0.1,0.4,0.4c0.7,1.2,1.4,2.2,2.1,3c0-0.1,0-0.2,0.1-0.4c0.1-0.9,0.1-1.4,0.1-1.7
	c0-0.1,0-0.1-0.1-0.3c0-0.1,0-0.2,0.1-0.3c0-0.3,0.1-0.4,0.4-0.4c0.3,0.1,0.4,0.5,0.4,1.4c0,0.1-0.1,0.2-0.1,0.4
	C186.6,47.2,186.5,47.7,186.5,47.9L186.5,47.9z M180.9,45.4c-0.1,0.2-0.4,0.5-0.6,0.9c0.1,0,0.2,0,0.4,0c0.2,0,0.4,0,0.4,0
	C180.9,46.1,180.9,45.7,180.9,45.4L180.9,45.4z M181.6,48.2c-0.1,0-0.2-0.2-0.4-0.5c-0.1-0.2-0.1-0.5-0.1-0.8c-0.1,0.1-0.4,0-0.6,0
	s-0.5,0-0.6,0c-0.1,0.2-0.3,0.5-0.5,0.9c-0.1,0.1-0.2,0.1-0.4,0.1c-0.1,0-0.2,0-0.3-0.1c-0.1,0-0.1-0.1-0.1-0.2
	c0-0.1,0.2-0.4,0.5-0.9c0-0.1-0.1-0.1,0-0.1c0-0.1,0.1-0.1,0.2-0.2c0.3-0.4,0.6-0.8,1-1.2c0.5-0.6,0.8-0.9,0.9-0.9
	c0.2,0,0.4,0.1,0.4,0.4c0.1,0.2,0.1,0.5,0.1,0.9c0,0.5,0.1,1.2,0.2,1.8c0,0.1,0,0.1,0.1,0.4c0.1,0.1,0.1,0.3,0.1,0.4
	c0,0.1-0.1,0.1-0.1,0.2C181.8,48.2,181.6,48.2,181.6,48.2L181.6,48.2z M178,44.7c-0.1,0-0.3-0.1-0.6-0.1c-0.1,0.4-0.1,0.8-0.1,1.3
	l-0.1,1.2c0.2,0,0.5,0,0.7,0c0.1,0,0.2,0.1,0.3,0.1c0.1,0.1,0.1,0.1,0.1,0.3c0,0.1-0.1,0.1-0.1,0.2c-0.1,0.1-0.1,0.1-0.3,0.1
	c-0.1,0-0.2,0-0.4,0c-0.2,0-0.4-0.1-0.4-0.1c-0.1,0-0.3,0-0.6,0c-0.2,0.1-0.4,0.1-0.5,0c-0.1,0-0.2,0-0.3-0.1
	c-0.1-0.1-0.1-0.2-0.1-0.3s0.1-0.1,0.1-0.2c0.1-0.1,0.1-0.1,0.3-0.1c0.1,0,0.3,0,0.5,0c0-0.2,0-0.6,0.1-1.2c0.1-0.5,0.1-0.9,0.1-1.4
	H176c-0.1-0.1-0.1-0.1-0.2-0.1c-0.1-0.1-0.1-0.1-0.1-0.3c0-0.1,0-0.1,0.1-0.2s0.1-0.1,0.3-0.1c0.1-0.1,0.4,0,0.8,0
	c0.3,0,0.7,0.1,1.2,0.2c0.2,0.1,0.4,0.2,0.3,0.4c0,0.1,0,0.2-0.1,0.3C178.2,44.7,178.1,44.7,178,44.7L178,44.7z M173.4,46.4
	c-0.1-0.4-0.2-0.9-0.4-1.4c-0.1-0.4-0.1-0.6-0.1-0.9c-0.1-0.1-0.1-0.3-0.1-0.5c0-0.1-0.1-0.2-0.3-0.3c-0.1,0-0.2,0.1-0.3,0.1
	c-0.1,0-0.1,0.1-0.1,0.2c0,0.1,0.1,0.4,0.1,0.7c0.1,0.2,0.1,0.4,0.1,0.7c0.2,0.9,0.4,1.7,0.6,2.2c0.1,0.2,0.2,0.3,0.4,0.3
	c0.1,0,0.3,0,0.4-0.1c0.1-0.2,0.2-0.4,0.4-0.6c0.4-0.8,0.6-1.4,0.8-1.8c0.1-0.3,0.2-0.5,0.2-0.5c0.1-0.2,0.2-0.4,0.4-0.5
	c0-0.1,0.1-0.1,0.1-0.1c0-0.1-0.1-0.2-0.1-0.3c-0.1-0.1-0.1-0.1-0.2-0.1c-0.1,0-0.2,0.1-0.3,0.1c-0.1,0.1-0.3,0.3-0.4,0.6
	c-0.1,0.1-0.1,0.4-0.2,0.6C173.9,45.3,173.7,45.8,173.4,46.4L173.4,46.4z M171.4,44.3c-0.1,0-0.3-0.1-0.6-0.1
	c-0.1,0.4-0.1,0.8-0.1,1.3l-0.1,1.2c0.2,0,0.5,0,0.7,0c0.1,0,0.2,0.1,0.3,0.1c0,0.1,0.1,0.1,0.1,0.3c0,0.1-0.1,0.1-0.1,0.2
	c-0.1,0.1-0.1,0.1-0.3,0.1c-0.1,0-0.2,0-0.4,0s-0.4,0-0.4,0c-0.1-0.1-0.3,0-0.6,0c-0.2,0-0.4,0-0.5,0c-0.1,0-0.2-0.1-0.3-0.1
	c-0.1-0.1-0.1-0.1-0.1-0.2c0-0.1,0-0.2,0.1-0.3c0.1-0.1,0.1-0.1,0.3-0.1c0.1,0,0.3,0,0.5,0c0-0.2,0-0.6,0.1-1.2
	c0-0.4,0.1-0.9,0.1-1.4h-0.6c-0.1,0-0.2-0.1-0.3-0.1c-0.1-0.1-0.1-0.1-0.1-0.2c0-0.1,0-0.2,0.1-0.3s0.1-0.1,0.3-0.1
	c0.1,0,0.4,0,0.7,0c0.4,0.1,0.8,0.1,1.3,0.2c0.2,0.1,0.4,0.1,0.4,0.4c-0.1,0.1-0.1,0.2-0.1,0.3C171.6,44.3,171.4,44.3,171.4,44.3
	L171.4,44.3z M167.2,44.5c-0.2-0.1-0.6-0.3-1.1-0.6l-0.1,2.7c0.1,0,0.1,0.1,0.2,0.1c0.1,0.1,0.2,0.1,0.3,0.1c0.4,0,0.7,0,0.9-0.1
	c0.1-0.1,0.3-0.2,0.4-0.4c0.1-0.2,0.1-0.4,0.2-0.6C167.9,45.2,167.7,44.9,167.2,44.5L167.2,44.5z M165.5,47.2
	c-0.1,0-0.1-0.1-0.2-0.1c-0.1-0.1-0.1-0.1-0.1-0.2c0-0.2,0.1-0.4,0.1-0.8c0.1-0.4,0.1-0.6,0.1-0.8c0-0.2,0-0.5,0.1-0.9
	c0-0.4,0-0.6,0-0.9c0-0.1,0.1-0.1,0.1-0.3c0.1-0.1,0.2-0.1,0.3-0.1c0.1,0,0.2,0.1,0.4,0.2c0.3,0.1,0.4,0.2,0.5,0.2
	c0.5,0.2,0.9,0.5,1.3,0.9c0.4,0.4,0.6,0.9,0.6,1.4c0,0.3-0.1,0.6-0.3,0.9c-0.1,0.2-0.4,0.5-0.6,0.6c-0.3,0.1-0.7,0.2-1.2,0.2
	c-0.1,0-0.3-0.1-0.4-0.1C165.8,47.3,165.7,47.2,165.5,47.2L165.5,47.2z M164.6,47c-0.2,0.1-0.6,0.2-1,0.2c-0.4,0.1-0.7,0.1-0.9,0.1
	c-0.5,0-0.6-0.2-0.6-0.6c0,0,0-0.3,0.1-0.9c0.1-0.7,0.1-1.6,0.2-2.5c0-0.1,0-0.2,0.1-0.3c0.1-0.1,0.1-0.1,0.3-0.1
	c0.1,0,0.2,0,0.3,0.1c0.1,0.1,0.1,0.2,0.1,0.3c-0.1,0.9-0.1,1.8-0.2,2.6c0,0.1,0,0.4-0.1,0.6c0.4,0,1-0.1,1.7-0.2h0.1
	c0.1,0,0.2,0,0.3,0.1c0.1,0.1,0.1,0.1,0.1,0.2C164.8,46.8,164.7,47,164.6,47L164.6,47z M160.3,44.3c-0.1,0.2-0.4,0.5-0.6,0.9
	c0.1,0,0.1,0,0.4,0c0.2,0,0.3,0,0.4-0.1C160.4,44.9,160.3,44.6,160.3,44.3L160.3,44.3z M161.1,47c-0.1,0-0.3-0.1-0.4-0.5
	c-0.1-0.2-0.2-0.4-0.2-0.7c-0.1,0-0.4,0-0.6,0c-0.3,0.1-0.5,0.1-0.6,0.1c-0.1,0.2-0.3,0.5-0.5,0.9c-0.1,0.1-0.1,0.1-0.3,0.1
	c-0.1,0-0.2,0-0.3-0.1c-0.1-0.1-0.1-0.1-0.1-0.3c0-0.1,0.1-0.4,0.4-0.9c-0.1-0.1-0.1-0.1-0.1-0.1c0.1-0.1,0.1-0.1,0.3-0.2
	c0.3-0.4,0.6-0.9,0.9-1.3c0.5-0.6,0.8-1,0.9-1c0.1,0,0.3,0.1,0.4,0.4c0,0.2,0.1,0.5,0.1,0.9c0.1,0.6,0.2,1.2,0.4,1.8
	c0,0.1,0,0.1,0.1,0.4c0.1,0.1,0.1,0.3,0.1,0.4c0,0.1-0.1,0.1-0.1,0.2C161.3,47,161.2,47.1,161.1,47L161.1,47z M154.5,44.6
	c-0.1,0.3-0.2,0.7-0.4,1.3c-0.1,0.2-0.1,0.4-0.1,0.6c-0.1,0.3-0.2,0.4-0.4,0.4c-0.1,0-0.2,0-0.2-0.1c-0.1-0.1-0.1-0.2-0.1-0.3
	c0.1-0.3,0.1-0.6,0.2-1c0.2-0.6,0.4-1,0.4-1.1c0.1-0.2,0.1-0.5,0.1-0.8c0.1-0.4,0.2-0.6,0.3-0.7c0.1-0.1,0.2-0.2,0.4-0.2
	c0.1,0,0.3,0.1,0.4,0.3c0.1,0.1,0.1,0.4,0.2,0.9c0.1,0.4,0.1,0.9,0.3,1.5c0.2-0.5,0.4-1.1,0.6-1.7l0.2-0.6c0.1-0.3,0.2-0.4,0.4-0.4
	c0.2,0,0.4,0.1,0.4,0.4c0,0.1,0.1,0.4,0.1,0.6c0.1,0.8,0.2,1.4,0.4,1.9c0.1,0.6,0.2,0.9,0.2,0.9c0,0.1-0.1,0.1-0.1,0.2
	c-0.1,0.1-0.1,0.1-0.3,0.1c-0.1-0.1-0.3-0.2-0.4-0.4l-0.1-0.6c-0.1-0.4-0.1-0.8-0.3-1.4c-0.1,0.3-0.2,0.6-0.4,1.2l-0.2,0.4
	c-0.1,0.2-0.1,0.4-0.2,0.5c-0.1,0.1-0.2,0.2-0.4,0.2c-0.2,0-0.4-0.1-0.4-0.3l-0.1-0.5C154.7,45.7,154.6,45.2,154.5,44.6z"/>
</svg>
