<?xml version="1.0" encoding="utf-8"?>
<!-- Generator: Adobe Illustrator 19.2.1, SVG Export Plug-In . SVG Version: 6.00 Build 0)  -->
<svg version="1.1" id="Слой_1" xmlns="http://www.w3.org/2000/svg" xmlns:xlink="http://www.w3.org/1999/xlink" x="0px" y="0px"
	 viewBox="0 0 32 24" style="enable-background:new 0 0 32 24;" xml:space="preserve">
<style type="text/css">
	.st0{fill-rule:evenodd;clip-rule:evenodd;}
</style>
<path class="st0" d="M2,0h28c1.1,0,2,0.9,2,2s-0.9,2-2,2H2C0.9,4,0,3.1,0,2S0.9,0,2,0z"/>
<path class="st0" d="M2,10h28c1.1,0,2,0.9,2,2c0,1.1-0.9,2-2,2H2c-1.1,0-2-0.9-2-2C0,10.9,0.9,10,2,10z"/>
<path class="st0" d="M2,10h28c1.1,0,2,0.9,2,2c0,1.1-0.9,2-2,2H2c-1.1,0-2-0.9-2-2C0,10.9,0.9,10,2,10z"/>
<path class="st0" d="M2,20h28c1.1,0,2,0.9,2,2s-0.9,2-2,2H2c-1.1,0-2-0.9-2-2S0.9,20,2,20z"/>
</svg>
