<svg id="Layer_1" data-name="Layer 1" xmlns="http://www.w3.org/2000/svg" viewBox="0 0 512 511.62"><title>hotel</title><path d="M93.87,255.62H59.73a8.53,8.53,0,0,0-8.53,8.53v17.07a8.53,8.53,0,0,0,17.07,0v-8.53H85.33v42.67a8.53,8.53,0,0,0,17.07,0v-51.2A8.53,8.53,0,0,0,93.87,255.62Z"/><path d="M225.38,32.12l9.76,7.09-4,11.19a8.53,8.53,0,0,0,8,11.41,8.37,8.37,0,0,0,3.46-.73L256.32,55l13.41,6a8.54,8.54,0,0,0,11.59-10.54l-3.78-11L287,31.86a8.54,8.54,0,0,0-5.37-15.17H269.81L263.63,4.34c-2.89-5.79-12.37-5.79-15.27,0l-6.17,12.35H230.4A8.53,8.53,0,0,0,225.38,32.12ZM255.1,29l0.9-1.81L256.9,29a8.43,8.43,0,0,0,3.17,3.45,8.56,8.56,0,0,0-1,5.09,8.47,8.47,0,0,0-5.33,0,8.61,8.61,0,0,0-1-5.64A8.61,8.61,0,0,0,255.1,29Z"/><path d="M42.67,306.82C0.5,306.82,0,416.64,0,417.75a42.74,42.74,0,0,0,34.13,41.8v43.53a8.53,8.53,0,0,0,17.07,0V459.56a42.74,42.74,0,0,0,34.13-41.8C85.33,416.64,84.84,306.82,42.67,306.82Zm0,136.53a25.63,25.63,0,0,1-25.6-25.6c0-42.51,11.42-93.87,25.6-93.87s25.6,51.35,25.6,93.87A25.63,25.63,0,0,1,42.67,443.35Z"/><path d="M148.58,32.12l9.76,7.09-4,11.19a8.53,8.53,0,0,0,8,11.41,8.37,8.37,0,0,0,3.46-.73L179.52,55l13.41,6a8.54,8.54,0,0,0,11.59-10.54l-3.78-11,9.42-7.62a8.54,8.54,0,0,0-5.37-15.17H193L186.83,4.34c-2.89-5.79-12.37-5.79-15.27,0l-6.17,12.35H153.6A8.53,8.53,0,0,0,148.58,32.12ZM178.29,29l0.9-1.81L180.1,29a8.43,8.43,0,0,0,3.17,3.45,8.56,8.56,0,0,0-1,5.09,8.47,8.47,0,0,0-5.33,0,8.61,8.61,0,0,0-1-5.64A8.61,8.61,0,0,0,178.29,29Z"/><path d="M310.72,32.12l9.76,7.09-4,11.19a8.53,8.53,0,0,0,8,11.41,8.37,8.37,0,0,0,3.46-.73L341.66,55l13.41,6a8.54,8.54,0,0,0,11.59-10.54l-3.78-11,9.42-7.62a8.54,8.54,0,0,0-5.37-15.17H355.14L349,4.34c-2.89-5.79-12.36-5.79-15.27,0l-6.17,12.35H315.73A8.53,8.53,0,0,0,310.72,32.12ZM340.43,29l0.9-1.81,0.9,1.81a8.43,8.43,0,0,0,3.17,3.45,8.56,8.56,0,0,0-1,5.09,8.47,8.47,0,0,0-5.33,0,8.61,8.61,0,0,0-1-5.64A8.62,8.62,0,0,0,340.43,29Z"/><path d="M63.25,32.12L73,39.22,69,50.4a8.53,8.53,0,0,0,8,11.41,8.37,8.37,0,0,0,3.46-.73L94.19,55l13.41,6a8.54,8.54,0,0,0,11.59-10.54l-3.78-11,9.42-7.62a8.54,8.54,0,0,0-5.37-15.17H107.67L101.5,4.34c-2.89-5.79-12.36-5.79-15.27,0L80.06,16.69H68.27A8.53,8.53,0,0,0,63.25,32.12ZM93,29l0.9-1.81L94.76,29a8.43,8.43,0,0,0,3.17,3.45,8.56,8.56,0,0,0-1,5.09,8.47,8.47,0,0,0-5.33,0,8.61,8.61,0,0,0-1-5.64A8.61,8.61,0,0,0,93,29Z"/><path d="M396,32.12l9.76,7.09-4,11.19a8.53,8.53,0,0,0,8,11.41,8.36,8.36,0,0,0,3.46-.73L427,55l13.41,6A8.54,8.54,0,0,0,452,50.52l-3.78-11,9.42-7.62a8.54,8.54,0,0,0-5.37-15.17H440.47L434.3,4.34c-2.89-5.79-12.36-5.79-15.27,0l-6.17,12.35H401.07A8.53,8.53,0,0,0,396,32.12ZM425.76,29l0.9-1.81,0.9,1.81a8.43,8.43,0,0,0,3.17,3.45,8.56,8.56,0,0,0-1,5.09,8.47,8.47,0,0,0-5.33,0,8.61,8.61,0,0,0-1-5.64A8.61,8.61,0,0,0,425.76,29Z"/><path d="M486.4,460.42a25.09,25.09,0,0,0-4.39.38,34.08,34.08,0,0,0-59.49,0,25.09,25.09,0,0,0-4.39-.38,25.6,25.6,0,1,0,0,51.2H486.4A25.6,25.6,0,0,0,486.4,460.42Zm0,34.13H418.13a8.53,8.53,0,1,1,4.63-15.67,8.53,8.53,0,0,0,12.95-5.24,17,17,0,0,1,33.13,0,8.53,8.53,0,0,0,12.95,5.24c5.55-3.58,13.16.81,13.16,7.14A8.53,8.53,0,0,1,486.4,494.55Z"/><path d="M93.87,153.22H59.73a8.53,8.53,0,0,0-8.53,8.53V213a8.52,8.52,0,0,0,8.53,8.53H93.87A8.52,8.52,0,0,0,102.4,213v-51.2A8.53,8.53,0,0,0,93.87,153.22Zm-8.53,51.2H68.27V170.29H85.33v34.13h0Z"/><path d="M366.93,119.09a8.53,8.53,0,0,0-8.53,8.53V451.89a8.53,8.53,0,1,0,17.07,0V127.62A8.53,8.53,0,0,0,366.93,119.09Z"/><path d="M409.6,315.35a8.52,8.52,0,0,0,8.53,8.53h34.13a8.52,8.52,0,0,0,8.53-8.53v-51.2a8.53,8.53,0,0,0-8.53-8.53H418.13a8.53,8.53,0,0,0-8.53,8.53v51.2Zm17.07-42.67h17.07v34.13H426.67V272.69Z"/><path d="M503.47,67.89a8.53,8.53,0,0,0-8.53,8.53V85H17.07V76.42A8.53,8.53,0,0,0,0,76.42v204.8a8.53,8.53,0,0,0,17.07,0V102H494.93V443.35a8.53,8.53,0,1,0,17.07,0V76.42A8.53,8.53,0,0,0,503.47,67.89Z"/><path d="M409.6,417.75a8.52,8.52,0,0,0,8.53,8.53h34.13a8.52,8.52,0,0,0,8.53-8.53v-51.2a8.53,8.53,0,0,0-8.53-8.53H418.13a8.53,8.53,0,0,0-8.53,8.53v51.2Zm17.07-42.67h17.07v34.13H426.67V375.09Z"/><path d="M418.13,221.49h34.13A8.52,8.52,0,0,0,460.8,213v-51.2a8.53,8.53,0,0,0-8.53-8.53H418.13a8.53,8.53,0,0,0-8.53,8.53V213A8.53,8.53,0,0,0,418.13,221.49Zm8.53-51.2h17.07v34.13H426.67V170.29Z"/><path d="M281.6,221.49h34.13a8.52,8.52,0,0,0,8.53-8.53v-51.2a8.53,8.53,0,0,0-8.53-8.53H281.6a8.53,8.53,0,0,0-8.53,8.53V213A8.53,8.53,0,0,0,281.6,221.49Zm8.53-51.2H307.2v34.13H290.13V170.29h0Z"/><path d="M153.6,451.89V127.62a8.53,8.53,0,0,0-17.07,0V451.89A8.53,8.53,0,0,0,153.6,451.89Z"/><path d="M366.93,477.49H128a8.53,8.53,0,0,0-8.53,8.53v17.07a8.53,8.53,0,0,0,17.07,0v-8.53h230.4A8.53,8.53,0,0,0,366.93,477.49Z"/><path d="M187.73,315.35a8.52,8.52,0,0,0,8.53,8.53H230.4a8.52,8.52,0,0,0,8.53-8.53v-51.2a8.53,8.53,0,0,0-8.53-8.53H196.27a8.53,8.53,0,0,0-8.53,8.53v51.2h0Zm17.07-42.67h17.07v34.13H204.8V272.69Z"/><path d="M196.27,221.49H230.4a8.52,8.52,0,0,0,8.53-8.53v-51.2a8.53,8.53,0,0,0-8.53-8.53H196.27a8.53,8.53,0,0,0-8.53,8.53V213A8.52,8.52,0,0,0,196.27,221.49Zm8.53-51.2h17.07v34.13H204.8V170.29Z"/><path d="M170.67,366.55a8.52,8.52,0,0,0,8.53,8.53h8.53v76.8a8.53,8.53,0,0,0,17.07,0v-76.8h42.67v34.13a8.53,8.53,0,1,0,0,17.07v25.6a8.53,8.53,0,0,0,17.07,0v-25.6a8.53,8.53,0,1,0,0-17.07V375.09H307.2v76.8a8.53,8.53,0,0,0,17.07,0v-76.8h8.53a8.53,8.53,0,0,0,0-17.07H179.2A8.53,8.53,0,0,0,170.67,366.55Z"/><path d="M273.07,315.35a8.52,8.52,0,0,0,8.53,8.53h34.13a8.52,8.52,0,0,0,8.53-8.53v-51.2a8.53,8.53,0,0,0-8.53-8.53H281.6a8.53,8.53,0,0,0-8.53,8.53v51.2h0Zm17.07-42.67H307.2v34.13H290.13V272.69h0Z"/></svg>