<svg id="Layer_1" data-name="Layer 1" xmlns="http://www.w3.org/2000/svg" viewBox="0 0 258.29 81.04"><defs><style>.cls-1{fill:#fff;}.cls-2{fill:none;stroke:#005faa;stroke-miterlimit:10;stroke-width:0.28px;}.cls-3,.cls-4{fill:#005faa;}.cls-4{fill-rule:evenodd;}</style></defs><title>logo-small</title><path class="cls-1" d="M226.54,68.15l-5.47-2.52s0-9.65-4.9-16.56h-5.4A31.63,31.63,0,0,0,204.37,38h9.14s-5.26-7.92-10.73-7.92S199,29.78,199,29.78l-5.69-9.5,10.58-1.8s-1.22-3-8.5-5.26-39.1-3.89-39.1-3.89,0.14-3.67,2.3-5.62c0,0,5.26-.36,5.26-2.45s-6-.72-8-0.29-3.38,1.51-1,2.66c0,0-4.32,1.15-8.86,6.48,0,0-15.48,2.52-21.1,5.62s-7.85,5-7.85,6.48,3.67,1.22,3.67,1.22v4.46s-13.25,2-20.16,4.54-8.14,4.39-7.13,6.7L79.16,48.86H0.32L23.79,73.77A18.89,18.89,0,0,0,39,80.9c10.3,0,91.8-1.8,91.8-1.8s18.22-.22,42.62-1.8Z"/><path class="cls-2" d="M226.54,68.15l-5.47-2.52s0-9.65-4.9-16.56h-5.4A31.63,31.63,0,0,0,204.37,38h9.14s-5.26-7.92-10.73-7.92S199,29.78,199,29.78l-5.69-9.5,10.58-1.8s-1.22-3-8.5-5.26-39.1-3.89-39.1-3.89,0.14-3.67,2.3-5.62c0,0,5.26-.36,5.26-2.45s-6-.72-8-0.29-3.38,1.51-1,2.66c0,0-4.32,1.15-8.86,6.48,0,0-15.48,2.52-21.1,5.62s-7.85,5-7.85,6.48,3.67,1.22,3.67,1.22v4.46s-13.25,2-20.16,4.54-8.14,4.39-7.13,6.7L79.16,48.86H0.32L23.79,73.77A18.89,18.89,0,0,0,39,80.9c10.3,0,91.8-1.8,91.8-1.8s18.22-.22,42.62-1.8"/><path class="cls-3" d="M188,30.71s-1.87-6-2.74-8.71S173,14.51,162.89,13.94,142.45,13,132.51,16.6s-10.37,5.4-10.3,6.84,0,4.75,0,4.75,12.89-1.37,22.68-1.37A285,285,0,0,1,188,30.71Z"/><path class="cls-3" d="M200,49.65a73.69,73.69,0,0,0-3-6.91c-1.44-2.88-6.77-4.54-10-5.4S177,35,165.2,34.1s-23.76-1.08-30.82-.94-21.38,1.3-28.3,3-9.5,2.66-10.8,3.6L81.61,49.43Z"/><path class="cls-3" d="M193,53.11a1.53,1.53,0,0,0,1.44,1.58h1a1.53,1.53,0,0,0,1.44-1.58,1.55,1.55,0,0,0-1.44-1.66h-1A1.55,1.55,0,0,0,193,53.11Z"/><path class="cls-3" d="M211.49,53.47a1.59,1.59,0,0,0,1.44,1.66h1a1.59,1.59,0,0,0,1.44-1.66,1.55,1.55,0,0,0-1.44-1.66h-1A1.55,1.55,0,0,0,211.49,53.47Z"/><path class="cls-3" d="M173.12,53a1.62,1.62,0,0,0,1.44,1.73h1A1.62,1.62,0,0,0,177,53a1.57,1.57,0,0,0-1.44-1.73h-1A1.57,1.57,0,0,0,173.12,53Z"/><path class="cls-3" d="M148.93,53a1.69,1.69,0,0,0,1.66,1.73h1.08A1.69,1.69,0,0,0,153.32,53a1.65,1.65,0,0,0-1.66-1.73h-1.08A1.65,1.65,0,0,0,148.93,53Z"/><path class="cls-3" d="M121.35,53.32a1.93,1.93,0,0,0,2,1.8h1.3a1.78,1.78,0,1,0,0-3.53h-1.3A1.92,1.92,0,0,0,121.35,53.32Z"/><path class="cls-3" d="M91.4,53.9a2,2,0,0,0,2.16,1.8H95a1.8,1.8,0,1,0,0-3.53H93.56A2,2,0,0,0,91.4,53.9Z"/><path class="cls-3" d="M59.29,54.62a2,2,0,0,0,2.16,1.73H63a2,2,0,0,0,2.16-1.73A2,2,0,0,0,63,52.89H61.45A2,2,0,0,0,59.29,54.62Z"/><path class="cls-3" d="M31,55a2.3,2.3,0,0,0,2.52,2h1.66a2.38,2.38,0,0,0,2.59-2,2.38,2.38,0,0,0-2.59-2H33.51A2.3,2.3,0,0,0,31,55Z"/><path class="cls-3" d="M67.85,63.83a1.29,1.29,0,0,0,1.3,1.3h2.3a1.3,1.3,0,1,0,0-2.59h-2.3A1.29,1.29,0,0,0,67.85,63.83Z"/><path class="cls-3" d="M83.91,63.55a1.23,1.23,0,0,0,1.22,1.3h2.09a1.3,1.3,0,0,0,0-2.59H85.13A1.23,1.23,0,0,0,83.91,63.55Z"/><path class="cls-3" d="M99.82,63.47a1.28,1.28,0,0,0,1.22,1.3h2.09a1.28,1.28,0,0,0,1.22-1.3,1.3,1.3,0,0,0-1.22-1.37H101A1.3,1.3,0,0,0,99.82,63.47Z"/><path class="cls-3" d="M114.8,63.33A1.29,1.29,0,0,0,116,64.7h2.09a1.29,1.29,0,0,0,1.15-1.37,1.22,1.22,0,0,0-1.15-1.3H116A1.23,1.23,0,0,0,114.8,63.33Z"/><path class="cls-3" d="M129.27,63a1.29,1.29,0,0,0,1.08,1.37h1.94A1.29,1.29,0,0,0,133.45,63a1.22,1.22,0,0,0-1.15-1.3h-1.94A1.21,1.21,0,0,0,129.27,63Z"/><path class="cls-3" d="M142.81,62.75A1.22,1.22,0,0,0,144,64h1.94a1.31,1.31,0,0,0,0-2.59H144A1.22,1.22,0,0,0,142.81,62.75Z"/><path class="cls-3" d="M155.41,62.54a1.29,1.29,0,0,0,1.15,1.37h1.94a1.34,1.34,0,0,0,1.15-1.37,1.27,1.27,0,0,0-1.15-1.3h-1.94A1.22,1.22,0,0,0,155.41,62.54Z"/><path class="cls-3" d="M167.21,62a1.24,1.24,0,0,0,1.08,1.37h1.87A1.24,1.24,0,0,0,171.25,62a1.21,1.21,0,0,0-1.08-1.3h-1.87A1.21,1.21,0,0,0,167.21,62Z"/><path class="cls-3" d="M178.3,61.67a1.21,1.21,0,0,0,1.08,1.3h1.87a1.32,1.32,0,0,0,0-2.59h-1.87A1.21,1.21,0,0,0,178.3,61.67Z"/><path class="cls-3" d="M188.38,61.6a1.16,1.16,0,0,0,1,1.3H191a1.16,1.16,0,0,0,1-1.3,1.19,1.19,0,0,0-1-1.37h-1.66A1.19,1.19,0,0,0,188.38,61.6Z"/><path class="cls-3" d="M197.67,61.39a1.17,1.17,0,0,0,.94,1.3h1.58a1.17,1.17,0,0,0,.94-1.3,1.25,1.25,0,0,0-.94-1.37h-1.58A1.25,1.25,0,0,0,197.67,61.39Z"/><path class="cls-3" d="M205.88,61.17a1.25,1.25,0,0,0,.94,1.37h1.58a1.25,1.25,0,0,0,.94-1.37,1.17,1.17,0,0,0-.94-1.3h-1.58A1.17,1.17,0,0,0,205.88,61.17Z"/><path class="cls-3" d="M248.57,65.49s-20.81,2.3-33.7,3.31A345.48,345.48,0,0,1,178.52,70c-14.47-.14-36.58-0.5-46.66-0.94s-23.69-.58-34.49-0.58-23.54.29-31.1,0.72-33.55,1.87-34.49,2.09l28.8-.65c13-.29,23.11-0.36,32.47-0.43s34.78,0.65,44.42.94,15.84,0.5,25.27.58,18.43,0.14,24.55.14,29.66-1.66,34.27-2.3l27.36-4.18Z"/><path class="cls-3" d="M252.61,68.51s-20.81,2.3-33.7,3.24A344.71,344.71,0,0,1,182.55,73c-14.47-.22-36.58-0.58-46.66-0.94s-23.69-.65-34.49-0.65-23.54.29-31.1,0.72-33.55,1.94-34.49,2.16c0,0,15.84-.29,28.8-0.58s23.11-.43,32.47-0.5,34.78,0.65,44.42,1,15.84,0.43,25.27.58,18.43,0.07,24.48.07,29.74-1.66,34.34-2.38S253,68.44,253,68.44Z"/><path class="cls-3" d="M257.86,71.47s-20.74,2.38-33.62,3.38-21.89,1.44-36.36,1.3-36.58-.65-46.66-1-23.69-.58-34.49-0.58-23.54.29-31.1,0.65-33.55,1.94-34.49,2.16c0,0,15.77-.29,28.8-0.58s23.11-.36,32.47-0.5,34.78,0.72,44.42,1,15.84,0.5,25.27.58,18.43,0.07,24.48.07,29.74-1.66,34.34-2.3,27.36-4.18,27.36-4.18h-0.43Z"/><path class="cls-4" d="M176.36,31.15c-0.14.22-.36,0.5-0.65,0.94a0.32,0.32,0,0,1,.36,0h0.36a4.43,4.43,0,0,0-.07-0.94h0ZM177,34a1.07,1.07,0,0,1-.36-0.5,3.72,3.72,0,0,0-.14-0.79h-1.3c-0.07.22-.29,0.43-0.5,0.86a0.55,0.55,0,0,1-.36.14c-0.07-.07-0.14-0.07-0.22-0.14a0.35,0.35,0,0,1-.07-0.29,4.07,4.07,0,0,1,.43-0.86V32.23a0.37,0.37,0,0,1,.29-0.14,15.81,15.81,0,0,1,1-1.3,2.62,2.62,0,0,1,.94-0.86,0.33,0.33,0,0,1,.29.36,3,3,0,0,1,.07.86c0.07,0.5.14,1.15,0.22,1.8a1.46,1.46,0,0,1,.07.36,0.78,0.78,0,0,1,.07.36,0.38,0.38,0,0,1-.14.22A0.35,0.35,0,0,1,177,34h0Zm-3.46-1.08a1.07,1.07,0,0,1-.07.43,0.39,0.39,0,0,1-.43.29,0.66,0.66,0,0,1-.36-0.22,20.48,20.48,0,0,1-2-2.81c-0.07.43-.14,0.72-0.14,0.86a1.79,1.79,0,0,1-.07.58v0.65c-0.07.5-.22,0.79-0.5,0.72a0.29,0.29,0,0,1-.29-0.14,0.26,0.26,0,0,1-.07-0.22,3.12,3.12,0,0,0,.07-0.36,0.35,0.35,0,0,1,.07-0.29v-0.5a1.27,1.27,0,0,0,.07-0.43,1.41,1.41,0,0,1,.07-0.5v-1a2.55,2.55,0,0,1,.07-0.43,0.37,0.37,0,0,1,.14-0.29,0.43,0.43,0,0,1,.29-0.07,0.65,0.65,0,0,1,.43.36,18.29,18.29,0,0,0,2.09,3,1.27,1.27,0,0,1,.07-0.43c0.07-.86.07-1.44,0.14-1.73a0.54,0.54,0,0,0-.07-0.29,0.35,0.35,0,0,1,.07-0.29,0.31,0.31,0,0,1,.36-0.36c0.29,0.07.43,0.5,0.36,1.37a2.55,2.55,0,0,0-.07.43,9,9,0,0,1-.22,1.66h0Zm-5.62-2.52c-0.14.22-.36,0.5-0.65,0.94H168a4.78,4.78,0,0,0-.07-0.94h0Zm0.72,2.81a0.74,0.74,0,0,1-.36-0.5,2.59,2.59,0,0,1-.14-0.79,1.9,1.9,0,0,1-.65,0h-0.65c-0.14.22-.29,0.5-0.5,0.86a0.4,0.4,0,0,1-.36.14,0.29,0.29,0,0,1-.29-0.14c-0.07,0-.07-0.14-0.07-0.22a9.11,9.11,0,0,1,.5-0.86c0-.07-0.07-0.14,0-0.14s0.07-.14.22-0.22a15.08,15.08,0,0,1,1-1.22,3.56,3.56,0,0,1,.86-0.94,0.34,0.34,0,0,1,.36.36c0.07,0.22.07,0.5,0.14,0.86a8.69,8.69,0,0,0,.22,1.8,1,1,0,0,0,.07.36,0.78,0.78,0,0,1,.07.36,0.38,0.38,0,0,1-.14.22,0.43,0.43,0,0,1-.29.07h0Zm-3.53-3.46c-0.07,0-.29-0.07-0.65-0.14a6.46,6.46,0,0,0-.14,1.3l-0.14,1.22h0.72a0.37,0.37,0,0,1,.29.14,0.35,0.35,0,0,1,.07.29,0.38,0.38,0,0,1-.14.22,0.35,0.35,0,0,1-.29.07h-0.43a2.55,2.55,0,0,1-.43-0.07H163.4a0.59,0.59,0,0,1-.5,0,0.35,0.35,0,0,1-.29-0.07,0.43,0.43,0,0,1-.07-0.29,0.38,0.38,0,0,1,.14-0.22,0.22,0.22,0,0,1,.29-0.07h0.5a9.4,9.4,0,0,1,.07-1.22c0.07-.5.07-0.94,0.14-1.37h-0.58c-0.07-.07-0.14-0.07-0.22-0.14a0.22,0.22,0,0,1-.07-0.29,0.26,0.26,0,0,1,.07-0.22,0.35,0.35,0,0,1,.29-0.07,2.7,2.7,0,0,1,.79,0,4.86,4.86,0,0,1,1.22.22c0.22,0.07.36,0.22,0.29,0.36a0.24,0.24,0,0,1-.14.29,0.26,0.26,0,0,1-.22.07h0Zm-4.61,1.73c-0.14-.43-0.22-0.86-0.36-1.37A5.32,5.32,0,0,1,160,29.2a4.59,4.59,0,0,1-.14-0.5,0.39,0.39,0,0,0-.29-0.29,0.37,0.37,0,0,0-.29.14,0.24,0.24,0,0,0-.14.22,6,6,0,0,0,.14.72c0.07,0.22.07,0.43,0.14,0.72,0.22,0.94.43,1.73,0.58,2.23a0.37,0.37,0,0,0,.36.29,0.34,0.34,0,0,0,.36-0.14c0.14-.22.22-0.43,0.36-0.65,0.36-.79.65-1.37,0.79-1.8a4.28,4.28,0,0,0,.22-0.5,3,3,0,0,1,.36-0.5c0-.07.07-0.07,0.07-0.14a0.37,0.37,0,0,0-.14-0.29,0.38,0.38,0,0,0-.22-0.14,0.37,0.37,0,0,0-.29.14,2,2,0,0,0-.43.58,5,5,0,0,0-.22.58c-0.22.43-.43,0.94-0.72,1.58h0Zm-2.09-2.16c-0.07,0-.29-0.07-0.65-0.14-0.07.36-.07,0.79-0.14,1.3l-0.07,1.22h0.72a0.37,0.37,0,0,1,.29.14,1.63,1.63,0,0,1,.07.29,0.38,0.38,0,0,1-.14.22,0.35,0.35,0,0,1-.29.07h-0.86a1.5,1.5,0,0,0-.58,0h-0.5a0.37,0.37,0,0,1-.29-0.14,0.26,0.26,0,0,1-.07-0.22,0.24,0.24,0,0,1,.14-0.29,0.35,0.35,0,0,1,.29-0.07h0.5a9.4,9.4,0,0,1,.07-1.22,8.82,8.82,0,0,1,.14-1.37h-0.58a0.37,0.37,0,0,1-.29-0.14,0.26,0.26,0,0,1-.07-0.22,0.29,0.29,0,0,1,.36-0.36h0.72q0.54,0.11,1.3.22a0.39,0.39,0,0,1,.36.36,1.06,1.06,0,0,1-.14.29,0.43,0.43,0,0,1-.29.07h0Zm-4.18.22c-0.22-.14-0.58-0.29-1.08-0.58L153,31.58c0.07,0,.14.07,0.22,0.07a0.43,0.43,0,0,0,.29.07,1.32,1.32,0,0,0,.86-0.14,0.87,0.87,0,0,0,.36-0.36,1.88,1.88,0,0,0,.22-0.58,1.39,1.39,0,0,0-.72-1.15h0Zm-1.66,2.66a0.66,0.66,0,0,1-.36-0.36c0-.22.07-0.43,0.07-0.79a3.88,3.88,0,0,0,.07-0.79,5.17,5.17,0,0,1,.07-0.94V28.41a1,1,0,0,1,.14-0.29,0.55,0.55,0,0,1,.29-0.14,1.11,1.11,0,0,1,.43.22,1.87,1.87,0,0,0,.5.22,4.09,4.09,0,0,1,1.3.86,2,2,0,0,1,.58,1.44,1.38,1.38,0,0,1-.29.86,1.86,1.86,0,0,1-.65.65,2.87,2.87,0,0,1-1.22.22c-0.14,0-.29-0.07-0.43-0.07a3.51,3.51,0,0,1-.5-0.22h0Zm-0.94-.22a1.91,1.91,0,0,1-1,.22,4.78,4.78,0,0,1-.94.07,0.52,0.52,0,0,1-.65-0.58,7.85,7.85,0,0,1,.07-0.86c0.07-.72.14-1.58,0.22-2.52a0.29,0.29,0,0,1,.36-0.36A0.43,0.43,0,0,1,150,28a0.54,0.54,0,0,1,.07.29q-0.11,1.4-.22,2.59a2.48,2.48,0,0,1-.07.65,8,8,0,0,0,1.66-.22h0.07a0.24,0.24,0,0,1,.29.14,0.26,0.26,0,0,1,.07.22,0.25,0.25,0,0,1-.22.29h0Zm-4.32-2.66a7.59,7.59,0,0,0-.58.94h0.36a0.44,0.44,0,0,0,.36-0.07,5.32,5.32,0,0,0-.14-0.86h0ZM148.21,32a0.49,0.49,0,0,1-.36-0.5,1.22,1.22,0,0,1-.22-0.72H147a2.48,2.48,0,0,1-.65.07,6.3,6.3,0,0,1-.5.86,0.24,0.24,0,0,1-.29.14,0.29,0.29,0,0,1-.36-0.36,4.07,4.07,0,0,1,.43-0.86,0.22,0.22,0,0,1-.07-0.14,0.45,0.45,0,0,1,.29-0.22l0.86-1.3a3.06,3.06,0,0,1,.94-1,0.45,0.45,0,0,1,.36.36c0,0.22.07,0.5,0.07,0.86,0.14,0.58.22,1.15,0.36,1.8a1,1,0,0,0,.07.36,1.22,1.22,0,0,1,.14.36,0.38,0.38,0,0,1-.14.22,0.24,0.24,0,0,1-.29.07h0Zm-6.62-2.38c-0.07.29-.22,0.72-0.36,1.3-0.07.22-.07,0.43-0.14,0.58a0.39,0.39,0,0,1-.43.36c-0.07,0-.22,0-0.22-0.07a0.55,0.55,0,0,1-.14-0.29,6.39,6.39,0,0,1,.22-1c0.22-.65.36-1,0.36-1.08a2.59,2.59,0,0,0,.14-0.79c0.14-.36.22-0.58,0.29-0.72a0.4,0.4,0,0,1,.36-0.22A0.48,0.48,0,0,1,142,28a3.53,3.53,0,0,1,.22.94c0.07,0.43.14,0.94,0.29,1.51a9.71,9.71,0,0,0,.58-1.73l0.22-.58a0.39,0.39,0,0,1,.43-0.36,0.46,0.46,0,0,1,.43.43c0,0.14.07,0.36,0.07,0.65a10.48,10.48,0,0,0,.36,1.94,9.5,9.5,0,0,1,.22.94,0.38,0.38,0,0,1-.14.22,0.37,0.37,0,0,1-.29.14,0.74,0.74,0,0,1-.36-0.43L143.89,31c-0.07-.36-0.14-0.79-0.29-1.44-0.07.29-.22,0.65-0.36,1.15l-0.22.43a3.51,3.51,0,0,1-.22.5,0.44,0.44,0,0,1-.79-0.07l-0.07-.5A8.42,8.42,0,0,1,141.58,29.63Z"/></svg>