<svg id="Layer_1" data-name="Layer 1" xmlns="http://www.w3.org/2000/svg" viewBox="0 0 546.37 81.04"><defs><style>.cls-1,.cls-4{fill:#005faa;}.cls-2{fill:#fff;}.cls-3{fill:none;stroke:#005faa;stroke-miterlimit:10;stroke-width:0.28px;}.cls-4{fill-rule:evenodd;}</style></defs><title>logo</title><path class="cls-1" d="M231.37,47.2a5.45,5.45,0,0,1-.43,2.52,1.06,1.06,0,0,1-1.08.79h-0.72a2.22,2.22,0,0,1-.72-0.07,5.22,5.22,0,0,1-.65-0.36,4,4,0,0,1-.65-0.5,6.49,6.49,0,0,1-.72-0.65A4.63,4.63,0,0,1,224.89,47a8.53,8.53,0,0,1-.36-2.3V44.39a0.54,0.54,0,0,1,.07-0.29V43.6c0.14-.58.22-1.22,0.36-1.87s0.22-1.44.29-2.23c0.22-2.23.65-5,1.08-8.06a52.4,52.4,0,0,1,3-10.22V21.14a0.07,0.07,0,0,1,.07-0.07V20.85a3.17,3.17,0,0,0-.14-0.72,5.56,5.56,0,0,0-.43-1.08c-0.22-.58-0.43-1.08-0.58-1.44a2.61,2.61,0,0,1-.22-0.79,0.33,0.33,0,0,1,.22-0.36,1.6,1.6,0,0,1,.65-0.07h1.3a5.36,5.36,0,0,1,4.32,1.94,15.79,15.79,0,0,1,2,4c0.07,0.14.07,0.29,0.14,0.43s0.07,0.29.07,0.43a32.88,32.88,0,0,1,1.3,4.68c0.36,1.44.65,2.81,0.94,4.1v0.29a1.63,1.63,0,0,1,.07.29c0.07,0.36.07,0.72,0.14,0.94s0.14,0.5.22,0.72v0.14a0.25,0.25,0,0,0,.07.14,2.34,2.34,0,0,0,.43-0.86,14.39,14.39,0,0,0,.29-1.51,46.25,46.25,0,0,1,2.45-7.34A40.27,40.27,0,0,1,246,18.62a2.75,2.75,0,0,1,.65-0.65,1.22,1.22,0,0,1,.72-0.22h0.5A2.69,2.69,0,0,1,249,18l1.58,1.08a5.16,5.16,0,0,1,1.66,1.66,8.22,8.22,0,0,1,.65,1.87v0.22a1.63,1.63,0,0,1,.07.29V25.1a4.11,4.11,0,0,0-.07.94V27a116.78,116.78,0,0,0,.58,12.74,56,56,0,0,0,2,10.87,1.63,1.63,0,0,0,.07.29,0.26,0.26,0,0,1,.07.22c0,0.07.07,0.14,0.07,0.22v0.14l-0.07.07a1.06,1.06,0,0,1-.14.29,0.66,0.66,0,0,1-.43.07l-0.5.07a4.17,4.17,0,0,1-.94-0.29,15.48,15.48,0,0,1-1.73-.79c-0.5-.22-0.94-0.36-1.3-0.5s-0.58-.22-0.79-0.29a4.7,4.7,0,0,1-.58-0.5,2,2,0,0,1-.36-0.79c0-.07-0.07-0.14-0.07-0.22a0.76,0.76,0,0,0-.14-0.36c-0.43-2.38-.79-5-1-7.63s-0.36-5.83-.36-9.43a3.9,3.9,0,0,0-.14-1.08,3.35,3.35,0,0,0-.22-0.65,1.51,1.51,0,0,1-.29.43,4.13,4.13,0,0,1-.29.5c0,0.14-.07.22-0.07,0.36a0.55,0.55,0,0,0-.14.36c-0.72,2.38-1.44,5-2,7.78A43.84,43.84,0,0,0,243,47.71a3,3,0,0,1-.07.86,0.54,0.54,0,0,1-.65.36h-0.5a1.57,1.57,0,0,1-.72-0.14,8.73,8.73,0,0,1-1-.36c-0.43-.22-0.79-0.43-1.08-0.58a3.9,3.9,0,0,1-.79-0.43,2.74,2.74,0,0,1-.79-0.79,5.31,5.31,0,0,1-.58-0.94c-0.07-.22-0.07-0.43-0.14-0.72a4.75,4.75,0,0,1-.29-0.79L233.09,31c-0.07-.43-0.22-0.86-0.29-1.15a2.59,2.59,0,0,0-.36-0.65,1.83,1.83,0,0,1-.14.5c0,0.22-.07.58-0.07,0.94-0.07.65-.14,1.37-0.22,2s-0.14,1.37-.22,2.09c-0.07,1-.14,1.94-0.22,3s-0.14,2-.14,3a13.87,13.87,0,0,0-.07,1.73,13.87,13.87,0,0,0-.07,1.73v0.5a1.23,1.23,0,0,0,.07.5v2Z"/><path class="cls-1" d="M260,41.66a17.83,17.83,0,0,0-.22,1.94,17.55,17.55,0,0,0-.07,1.94v2.09a1.63,1.63,0,0,0,.07.29c0.07,0.07.07,0.14,0.14,0.22a0.38,0.38,0,0,0,.14.22,1,1,0,0,1,.22.29c0.29,0.22.65,0.43,0.94,0.65a7.19,7.19,0,0,0,1,.58c0.5,0.22,1,.43,1.44.58a8,8,0,0,0,1.22.14h0.5a2.22,2.22,0,0,0,.79-0.14,0.84,0.84,0,0,0,.43-0.58c0.07-1.22.14-2.59,0.29-3.89a31.88,31.88,0,0,1,.5-4.32,0.62,0.62,0,0,1,.22-0.58,1.16,1.16,0,0,1,.79-0.22l4.1-.5h0.22c0.07,0.07.14,0.07,0.22,0.14a3.12,3.12,0,0,1,.07.36,0.22,0.22,0,0,0,.07.14v0.22c0.14,0.86.29,1.73,0.36,2.38s0.14,1.37.22,2.09c0.07,0.43.07,0.79,0.14,1.22s0.07,0.79.07,1.3v0.86c0.07,0.29.07,0.58,0.14,0.94a0.38,0.38,0,0,0,.14.22c0.14,0.07.22,0.14,0.36,0.22a30.37,30.37,0,0,0,2.81,1l1.15,0.22a5.56,5.56,0,0,0,1.08.14l0.5-.07a2.7,2.7,0,0,0,.79-0.07,0.57,0.57,0,0,0,.43-0.36q-1.62-10.37-2.81-16.85c-0.79-4.32-1.51-7.7-2.23-10.15-0.86-2.81-1.73-4.68-2.66-5.54a5.65,5.65,0,0,0-3.38-1.51h-0.86a1.36,1.36,0,0,0-.58.14,1.57,1.57,0,0,0-.36.22V17.9a0.25,0.25,0,0,0,.07.14,0.14,0.14,0,0,1,.07.14l0.07,0.07,0.79,2.52a1.69,1.69,0,0,0-.58-0.14,1.23,1.23,0,0,0-.5-0.07h-0.5a2,2,0,0,0-.94.29,3.69,3.69,0,0,0-.86.94A18.61,18.61,0,0,0,264.2,26c-0.58,1.94-1.3,4.61-2.23,8.14a3,3,0,0,1-.72,1.8,3.49,3.49,0,0,1-1.3.5,6.34,6.34,0,0,1-1.08.36,6,6,0,0,0-1.15.94,8.47,8.47,0,0,0,.5,1.44c0.22,0.43.43,0.79,0.58,1.15l0.65,0.86,0.5,0.5h0ZM268.59,35l0.22-1.51a13.62,13.62,0,0,1,.36-1.66,13.72,13.72,0,0,1,.72-2.45,11.29,11.29,0,0,1,1-2.09v0.14c0.43,1.94.72,3.6,0.94,5s0.43,2.45.5,3.1h-3.17a0.66,0.66,0,0,1-.43-0.07l-0.14-.14V35Z"/><path class="cls-1" d="M298.33,18.69l0.22,0.22a1.57,1.57,0,0,1,.36.29A3.78,3.78,0,0,1,300,20.56a14.94,14.94,0,0,1,.43,1.73,1.44,1.44,0,0,1,.14.65,2.1,2.1,0,0,1,.14.65c1.15,4.82,2,9.29,2.74,13.54s1.37,8.06,1.87,11.45a0.26,0.26,0,0,0,.07.22V49a2.23,2.23,0,0,1,.14.58v0.5a0.84,0.84,0,0,1-.36.79,2.28,2.28,0,0,1-1.22.22l-0.5.07a12.69,12.69,0,0,1-1.37-.14,4.09,4.09,0,0,1-1.66-.86,14.31,14.31,0,0,1-1.15-1.44,11.42,11.42,0,0,1-1-2.45c-0.14-.65-0.22-1.37-0.36-2s-0.22-1.37-.29-2c-0.29-2.23-.5-4.39-0.72-6.41s-0.29-3.82-.36-5.26a8.1,8.1,0,0,0-.14-1.44,1.34,1.34,0,0,0-.36-0.72l-0.07.07a0.14,0.14,0,0,0-.07.14,0.07,0.07,0,0,0-.07.07l-0.14.14a20.9,20.9,0,0,0-.79,1.94c-0.29.86-.65,1.8-1,2.88s-0.65,2.45-1,3.82-0.65,2.81-.86,4.18c-0.22,1.15-.36,2.3-0.5,3.46a28.28,28.28,0,0,0-.22,3.31v0.29a0.07,0.07,0,0,0,.07.07v1.15a2.69,2.69,0,0,1-.14.86,0.56,0.56,0,0,1-.5.22l-0.5.07a5,5,0,0,0-.58-0.22c-0.22-.07-0.5-0.22-0.79-0.29a7.65,7.65,0,0,1-.79-0.65,7.54,7.54,0,0,1-.79-0.58,8.09,8.09,0,0,1-1.73-1.8,3.4,3.4,0,0,1-.72-2.16V45.26a0.22,0.22,0,0,1,.07-0.14V44.75a75.78,75.78,0,0,1,3.67-15.41,63.88,63.88,0,0,1,4.9-10.8,1,1,0,0,0,.14-0.29c0.07-.07.14-0.22,0.22-0.29a1.56,1.56,0,0,1,.43-0.5,0.65,0.65,0,0,1,.5-0.22h0.5a3.09,3.09,0,0,1,1.08.36c0.43,0.22,1,.5,1.8.94A0.89,0.89,0,0,1,298.33,18.69Z"/><path class="cls-1" d="M314,49.72a1.51,1.51,0,0,1,.43.29c0.14,0.07.36,0.22,0.5,0.29s0.29,0.07.5,0.07a0.78,0.78,0,0,0,.36.07h0.72a0.35,0.35,0,0,1,.29-0.07A0.26,0.26,0,0,1,317,50.3a0.14,0.14,0,0,1,.07-0.14,0.38,0.38,0,0,1,.22-0.14,0.27,0.27,0,0,1,.14-0.14,0.62,0.62,0,0,1,.43.22,1.51,1.51,0,0,1,.58.43,3.2,3.2,0,0,0,.79.58,1.71,1.71,0,0,0,.86.22l0.5-.07a5,5,0,0,0,2.81-1.15,15,15,0,0,0,3.38-3.38,25.13,25.13,0,0,0,2.66-3.89,7,7,0,0,0,1-3.6V38.49c0-.22-0.07-0.36-0.07-0.58a13.72,13.72,0,0,0-1.08-3.31A9.43,9.43,0,0,0,327.13,32a8.9,8.9,0,0,0-3.53-1.51,21.61,21.61,0,0,0-3.82-.29h-1c-0.14.07-.22,0.07-0.36,0.14h-0.29a1.06,1.06,0,0,1-.14-0.29V28.91c0.07-1.08.07-2.09,0.14-3l0.22-2.59a10.78,10.78,0,0,1,.14-1.58,15.23,15.23,0,0,1,.14-1.73h0a1.63,1.63,0,0,1-.07-0.29,0.54,0.54,0,0,0-.07-0.29,3.45,3.45,0,0,0-.79-1.08,4.73,4.73,0,0,0-1.22-.86,4.13,4.13,0,0,0-.5-0.29,2.61,2.61,0,0,0-.5-0.22,1.63,1.63,0,0,0-.29-0.07c-0.07,0-.22-0.07-0.29-0.07a0.54,0.54,0,0,0-.36-0.07,3.12,3.12,0,0,1-.36-0.07h-0.58a1.45,1.45,0,0,0-.94.29,1,1,0,0,0-.43.72c-0.22,2.81-.43,5.26-0.58,7.34s-0.29,4.1-.43,6c-0.07,1.58-.07,3.17-0.14,4.75s-0.14,3.38-.14,5.4v1.08a7,7,0,0,1,.07,1.22,20.78,20.78,0,0,0,.29,2.09c0.14,0.65.36,1.22,0.5,1.73,0.72,0.94,1.08,1.37,1.08,1.37s0.36,0.36,1.08,1h0Zm3.67-5c0-.29-0.07-0.65-0.07-1.08a9.76,9.76,0,0,1-.14-1.44V41.08c0.07-.36.07-0.72,0.14-1.08a4.11,4.11,0,0,1,.07-0.94v-1a3,3,0,0,0,.07-0.72,2.41,2.41,0,0,1,.72-1.73,2.64,2.64,0,0,1,1.44-.65,7,7,0,0,1,1.22-.07,5.45,5.45,0,0,1,1.08-.07c0.43,0.07.86,0.14,1.15,0.22a0.91,0.91,0,0,1,.72.5,2.56,2.56,0,0,1,.29.65,2.22,2.22,0,0,1,.07.72,5.29,5.29,0,0,1-.43,1.87,17.84,17.84,0,0,1-1.37,2.45,12.09,12.09,0,0,1-2.52,3,5.17,5.17,0,0,1-1.87,1.15,0.4,0.4,0,0,1-.36-0.22A1.57,1.57,0,0,1,317.62,44.75Z"/><path class="cls-1" d="M332.24,46.41v0.22a1.61,1.61,0,0,0,.22.72,2.66,2.66,0,0,1,.36.79,1.57,1.57,0,0,0,.29.36c0.07,0.14.14,0.22,0.22,0.36a2.59,2.59,0,0,0,.58.86,4.41,4.41,0,0,0,.36.43,2,2,0,0,0,1.08.65,7.25,7.25,0,0,0,1.8.22l0.58-.07h1.15a1.59,1.59,0,0,1,.58-0.07A1.79,1.79,0,0,1,340,50.8a3.06,3.06,0,0,1,.79-0.14,3.8,3.8,0,0,1,.94-0.07c0.58-.14,1.22-0.22,1.94-0.36l2.16-.22c0.65-.07,1.37-0.07,2-0.14s1.37-.07,1.94-0.07h0.65a2.92,2.92,0,0,0,1,1.08,3,3,0,0,0,1.44.36l0.5-.07h0.36c0.07,0,.14-0.07.22-0.07h0.14a3.58,3.58,0,0,0,1.87-.58,1.61,1.61,0,0,0,.5-1.22,1.39,1.39,0,0,0,.36-0.65,5.45,5.45,0,0,0,.07-1.08V47.13a0.91,0.91,0,0,1-.07-0.43,4.7,4.7,0,0,0-.36-1.44,1.42,1.42,0,0,0-.79-0.79c-0.22-.65-0.36-1.3-0.58-2s-0.36-1.44-.58-2.23q-0.54-2.81-1.3-6.7c-0.43-2.66-1-5.9-1.8-9.94,0-.22-0.07-0.43-0.07-0.65s-0.07-.43-0.14-0.58a9.87,9.87,0,0,0-.5-1.73,3.52,3.52,0,0,0-1-1.44,1.57,1.57,0,0,0-.36-0.29,1.91,1.91,0,0,0-.43-0.36c-0.79-.43-1.44-0.72-1.87-0.94a2.69,2.69,0,0,0-1.08-.36h-0.5a0.65,0.65,0,0,0-.5.22,1.56,1.56,0,0,0-.43.5,0.55,0.55,0,0,0-.14.29,1,1,0,0,0-.22.29,63.88,63.88,0,0,0-4.9,10.8,71.53,71.53,0,0,0-3.6,15.41,5.22,5.22,0,0,0-2.09.5,4.72,4.72,0,0,0-1.08.65,0.37,0.37,0,0,0-.14.29c-0.07.07-.07,0.14-0.14,0.22h0Zm10.3-1.58V44.39a0.26,0.26,0,0,1-.07-0.22V44a26.48,26.48,0,0,1,.79-6.41,36.79,36.79,0,0,1,1.73-5.4c0.22-.65.5-1.22,0.72-1.8s0.5-1.08.72-1.51l0.14-.14,0.07-.07a0.14,0.14,0,0,1,.07-0.14l0.07-.07a1.34,1.34,0,0,1,.36.72c0.07,0.43.14,0.86,0.22,1.44,0.07,1.87.22,4,.36,6.34s0.58,4.9,1,7.7h-2.16c-0.58.07-1.15,0.07-1.8,0.14S343.4,44.83,342.53,44.83Z"/><path class="cls-1" d="M362.12,33.88c0.14-2.09.29-4.1,0.43-6.12V26.83a4.11,4.11,0,0,1,.07-0.94c0-.43.07-0.94,0.07-1.37s0.07-.86.07-1.3c0.07-2.16.22-3.82,0.36-5s0.5-1.73.94-1.73h0.58a1.15,1.15,0,0,1,.58.22,3.38,3.38,0,0,1,.86.65,21.19,21.19,0,0,1,1.8,1.73,5.76,5.76,0,0,1,.94,1.51,4.06,4.06,0,0,1,.29.86,4.75,4.75,0,0,1,.07,1,7.4,7.4,0,0,1-.07,1.22q-0.11.65-.22,1.51-0.22,1.51-.43,4.1c-0.14,1.73-.22,3.74-0.29,6,0.36-.58.72-1.22,1.08-1.87s0.72-1.3,1-1.94a1.57,1.57,0,0,1,.22-0.36c0.07-.14.14-0.22,0.22-0.36,1.22-2.23,2.45-4.32,3.53-6.26s2-3.53,2.59-4.61a7.76,7.76,0,0,1,1.3-1.8,1.88,1.88,0,0,1,1.3-.58H380a1.92,1.92,0,0,1,.86.22,5.11,5.11,0,0,1,.94.86,0.72,0.72,0,0,1,.29.36c0.07,0.07.14,0.22,0.22,0.29,0.07,0.29.14,0.5,0.22,0.72a2,2,0,0,1,.07.65,2.92,2.92,0,0,1-.29,1.37,7.07,7.07,0,0,1-.58,1.3,12.2,12.2,0,0,1-.07,1.66,10.63,10.63,0,0,1-.07,1.51V34c0,2.09.07,4,.14,5.62s0.29,3.38.58,5a20.65,20.65,0,0,0,.36,2.23c0.14,0.79.29,1.51,0.43,2.3,0.07,0.36.07,0.72,0.14,1.08s0.07,0.5.07,0.65a0.71,0.71,0,0,1-.22.58,0.4,0.4,0,0,1-.36.22l-0.58.07a5.47,5.47,0,0,1-.79-0.29,9.09,9.09,0,0,1-1.3-.58,4.4,4.4,0,0,0-.86-0.36,7.85,7.85,0,0,1-.79-0.43,4.78,4.78,0,0,1-2.23-2.23,14.1,14.1,0,0,1-.5-4.68V41.66c0-.5.07-1.08,0.07-1.58a3.8,3.8,0,0,1,.07-0.94V37.55a0.35,0.35,0,0,1-.07-0.29V37c0-.79,0-1.58.07-2.3s0.07-1.51.07-2.16c0.07-.22.07-0.36,0.14-0.58v-0.5c-0.29.43-.5,0.86-0.79,1.3a5.74,5.74,0,0,0-.58,1.15c-0.07.14-.14,0.22-0.22,0.36l-0.22.43c-0.36.72-.79,1.51-1.22,2.38s-0.94,1.94-1.58,3.17c-0.79,1.87-1.51,3.6-2,5a12.21,12.21,0,0,0-.86,2.81,2,2,0,0,0,.07.65,1.23,1.23,0,0,0,.07.5c0,0.29.07,0.5,0.07,0.65v0.36a0.29,0.29,0,0,1-.36.36h-0.58c-0.14,0-.29-0.07-0.43-0.07a1.07,1.07,0,0,1-.43-0.07c-2.16-.43-3.6-1.08-4.18-2s-0.86-3.1-.86-6.62V41.44A1.07,1.07,0,0,1,362,41V40.29C362,38.06,362,35.9,362.12,33.88Z"/><path class="cls-1" d="M398.41,30.28a0.25,0.25,0,0,0-.14.07c-0.07,0-.14,0-0.14.07S398,30.5,398,30.5h-0.14a0.56,0.56,0,0,1-.29-0.29,1,1,0,0,1-.14-0.5l0.07-.29V28.19a25.41,25.41,0,0,0-.14-2.59c-0.14-.72-0.22-1.37-0.36-1.87-0.07-.22-0.14-0.36-0.22-0.58a1,1,0,0,1-.14-0.43c0.07,0,.22-0.07.29-0.07h0.29a0.65,0.65,0,0,1,.36-0.07,1.63,1.63,0,0,1,.29-0.07c0.29-.07.65-0.14,1-0.22a4.43,4.43,0,0,1,.94-0.07,5.1,5.1,0,0,1,1.58.43,2.29,2.29,0,0,1,1.08,1.44v0.58a4.43,4.43,0,0,1-.22,1.3,5.37,5.37,0,0,1-.72,1.44,12.1,12.1,0,0,1-1.3,1.51,8.48,8.48,0,0,1-1.8,1.37h0ZM391.06,25c0,1.22-.07,2.59-0.14,4.1s-0.07,3.1-.14,4.61c-0.14,1.8-.22,3.53-0.36,5.26s-0.22,3.24-.36,4.54c0,0.5-.07.94-0.07,1.37a9.19,9.19,0,0,0-.14,1.22l-0.07.22a2.13,2.13,0,0,0,.14.72,4.25,4.25,0,0,1,.29.58,3.33,3.33,0,0,0,.5.5,1.7,1.7,0,0,0,.36.36,1.57,1.57,0,0,0,.36.22,7.86,7.86,0,0,0,1.22.94c0.5,0.29,1,.5,1.44.72h0.22a0.22,0.22,0,0,0,.14.07,0.14,0.14,0,0,1,.14.07h0.07a0.07,0.07,0,0,0,.07.07h0.65c0.07,0,.22-0.07.29-0.07s0.07-.14.14-0.22l0.58-1.58,0.07-.14c0,0.07,0,.07.07,0.07l0.07,0.07a7,7,0,0,0,2,1.44,4.38,4.38,0,0,0,1.8.43h0.5a4.22,4.22,0,0,0,2.52-.94,23.33,23.33,0,0,0,2.88-2.74,8.82,8.82,0,0,0,1.51-2.66,11.81,11.81,0,0,0,.65-3.17V40.22a0.54,0.54,0,0,0-.07-0.36,9.4,9.4,0,0,0-.86-3.38,8.17,8.17,0,0,0-2.16-2.81,1,1,0,0,1-.29-0.22,0.38,0.38,0,0,1-.14-0.22l0.29-.29a9.32,9.32,0,0,0,1.94-2.66,10.5,10.5,0,0,0,.86-2.81,1.4,1.4,0,0,1,.07-0.58V26.32a8.82,8.82,0,0,0-3.31-6.84,12.15,12.15,0,0,0-8.64-3h-0.5a20.13,20.13,0,0,0-4,.43,24.48,24.48,0,0,0-4.32,1.58,0.84,0.84,0,0,0-.43.43,1,1,0,0,0-.22.65,3.17,3.17,0,0,0,.14.72,6.69,6.69,0,0,0,.29.94,2.16,2.16,0,0,0,.29.72c0.14,0.22.22,0.43,0.36,0.65a3.57,3.57,0,0,0,1.22,1.3,2.37,2.37,0,0,0,1.37.43,3.51,3.51,0,0,1,.5.22,0.76,0.76,0,0,1,.14.36V25h0Zm7,10.51h0.29c0.07,0,.14-0.07.22-0.07h0.58a3.28,3.28,0,0,1,1.94.58,3.37,3.37,0,0,1,1.15,1.58v0.79a6.5,6.5,0,0,1-.94,3.38,9.34,9.34,0,0,1-2.23,2.45,2.56,2.56,0,0,0-.65.29,1.69,1.69,0,0,1-.58.14,2.16,2.16,0,0,1-.79-0.43,2.44,2.44,0,0,1-.43-1.08l0.58-7a1.72,1.72,0,0,1,.22-0.5A1.44,1.44,0,0,1,398,35.54Z"/><path class="cls-1" d="M415.47,33.88c0.07-2.09.22-4.1,0.36-6.12V26.83c0-.29.07-0.65,0.07-0.94a8.71,8.71,0,0,0,.07-1.37c0-.43.07-0.86,0.07-1.3,0.07-2.16.22-3.82,0.36-5s0.5-1.73,1-1.73h0.5a1.66,1.66,0,0,1,.65.22,5.25,5.25,0,0,1,.79.65,14,14,0,0,1,1.8,1.73,5.76,5.76,0,0,1,.94,1.51,4.06,4.06,0,0,1,.29.86,4.75,4.75,0,0,1,.07,1,7.4,7.4,0,0,1-.07,1.22c-0.07.43-.07,0.94-0.14,1.51a35.24,35.24,0,0,0-.5,4.1c-0.14,1.73-.22,3.74-0.29,6,0.36-.58.72-1.22,1.08-1.87l1.08-1.94a0.61,0.61,0,0,1,.22-0.36,0.76,0.76,0,0,1,.14-0.36c1.22-2.23,2.45-4.32,3.53-6.26s2-3.53,2.59-4.61a6.2,6.2,0,0,1,1.37-1.8,1.73,1.73,0,0,1,1.22-.58h0.58a1.92,1.92,0,0,1,.86.22,5.11,5.11,0,0,1,.94.86,0.72,0.72,0,0,1,.29.36c0.07,0.07.14,0.22,0.22,0.29,0.07,0.29.14,0.5,0.22,0.72a2,2,0,0,1,.07.65,4.19,4.19,0,0,1-.22,1.37c-0.22.5-.43,0.86-0.65,1.3a12.2,12.2,0,0,1-.07,1.66,10.63,10.63,0,0,1-.07,1.51V34c0,2.09.07,4,.14,5.62s0.29,3.38.58,5a20.65,20.65,0,0,0,.36,2.23c0.14,0.79.29,1.51,0.43,2.3,0.07,0.36.07,0.72,0.14,1.08s0.07,0.5.07,0.65a0.71,0.71,0,0,1-.22.58,0.4,0.4,0,0,1-.36.22l-0.58.07a5.47,5.47,0,0,1-.79-0.29,9.09,9.09,0,0,1-1.3-.58,4.4,4.4,0,0,0-.86-0.36,7.85,7.85,0,0,1-.79-0.43,4.32,4.32,0,0,1-2.16-2.23,13.62,13.62,0,0,1-.58-4.68V41.66a11.67,11.67,0,0,0,.07-1.58c0-.36.07-0.65,0.07-0.94V37.55a1.63,1.63,0,0,1-.07-0.29V37c0-.79.07-1.58,0.07-2.3s0.07-1.51.14-2.16a1.59,1.59,0,0,1,.07-0.58v-0.5c-0.29.43-.5,0.86-0.79,1.3s-0.36.72-.58,1.15c-0.07.14-.14,0.22-0.22,0.36l-0.22.43c-0.36.72-.79,1.51-1.22,2.38s-0.94,1.94-1.58,3.17c-0.79,1.87-1.51,3.6-2,5a12.21,12.21,0,0,0-.86,2.81c0,0.22.07,0.43,0.07,0.65a1.23,1.23,0,0,0,.07.5c0,0.29.07,0.5,0.07,0.65v0.36a0.29,0.29,0,0,1-.36.36h-0.58c-0.14,0-.29-0.07-0.43-0.07a0.78,0.78,0,0,1-.36-0.07c-2.23-.43-3.6-1.08-4.25-2s-0.86-3.1-.86-6.62V41.44a1.07,1.07,0,0,1,.07-0.43V40.29C415.25,38.06,415.33,35.9,415.47,33.88Z"/><path class="cls-1" d="M441.75,41.66a18.09,18.09,0,0,0-.29,1.94c0,0.65-.07,1.3-0.07,1.94V46c0,0.14.07,0.36,0.07,0.5v1.08a0.35,0.35,0,0,0,.07.29c0,0.07.07,0.14,0.07,0.22l0.22,0.22a2.87,2.87,0,0,0,.22.29,10.53,10.53,0,0,0,.94.65,4.59,4.59,0,0,0,1,.58,12,12,0,0,0,1.44.58,8,8,0,0,0,1.22.14h0.5a2.59,2.59,0,0,0,.79-0.14,1.12,1.12,0,0,0,.43-0.58c0.07-1.22.14-2.59,0.22-3.89s0.29-2.81.58-4.32a0.62,0.62,0,0,1,.22-0.58,1.16,1.16,0,0,1,.79-0.22l4.18-.5h0.22c0.07,0.07.14,0.07,0.22,0.14a3.12,3.12,0,0,1,.07.36V41a0.26,0.26,0,0,1,.07.22c0.14,0.86.22,1.73,0.29,2.38a20.78,20.78,0,0,1,.29,2.09c0,0.43.07,0.79,0.07,1.22s0.07,0.79.14,1.3v0.86c0,0.29.07,0.58,0.07,0.94L456,50.23a1.57,1.57,0,0,0,.36.22,10.6,10.6,0,0,0,1.22.5,13.44,13.44,0,0,0,1.58.5l1.15,0.22a5.65,5.65,0,0,0,1,.14l0.58-.07a2.7,2.7,0,0,0,.79-0.07,0.74,0.74,0,0,0,.43-0.36C462,44.39,461,38.78,460.25,34.46s-1.51-7.7-2.16-10.15c-0.86-2.81-1.73-4.68-2.66-5.54a5.86,5.86,0,0,0-3.53-1.51h-0.79a0.93,0.93,0,0,0-.58.14,1.57,1.57,0,0,0-.36.22,0.07,0.07,0,0,1-.07.07v0.14a0.07,0.07,0,0,0,.07.07c0,0.07,0,.14.07,0.14s0.07,0.07.07,0.14v0.07l0.86,2.52a2.23,2.23,0,0,0-.58-0.14,1.23,1.23,0,0,0-.5-0.07h-0.58a2,2,0,0,0-.86.29,3.69,3.69,0,0,0-.86.94A18.61,18.61,0,0,0,446,26c-0.58,1.94-1.37,4.61-2.23,8.14a2.62,2.62,0,0,1-.79,1.8,3.14,3.14,0,0,1-1.22.5,6.34,6.34,0,0,1-1.08.36,6.16,6.16,0,0,0-1.22.94,8.58,8.58,0,0,0,.58,1.44c0.22,0.43.36,0.79,0.58,1.15a6,6,0,0,1,.58.86c0.22,0.22.43,0.36,0.58,0.5h0ZM450.39,35a5.48,5.48,0,0,1,.22-1.51,13.29,13.29,0,0,1,.29-1.66,24.35,24.35,0,0,1,.79-2.45,19.69,19.69,0,0,1,.94-2.09,0.07,0.07,0,0,0,.07.07v0.07c0.43,1.94.79,3.6,1,5s0.43,2.45.5,3.1h-3.31c-0.22,0-.36,0-0.36-0.07a0.2,0.2,0,0,1-.14-0.14V35Z"/><path class="cls-1" d="M481.85,21.5a6.62,6.62,0,0,1,.43-2.66,1.19,1.19,0,0,1,1.15-1h0.5a2.82,2.82,0,0,1,1.66.86,14.23,14.23,0,0,1,2.16,3L488,22.07c0.07,0.14.07,0.29,0.14,0.43a1.07,1.07,0,0,0,.07.5v0.43a3,3,0,0,1-.07.79c0,0.22-.07.43-0.07,0.65a2.67,2.67,0,0,0-.14.65,1.41,1.41,0,0,0-.07.5l0.07,0.14c-0.07.22-.07,0.43-0.14,0.65s-0.07.43-.07,0.72c-0.14,1.15-.29,2.74-0.43,4.61s-0.22,4-.22,6v0.36q0,3,.22,5.83a26.06,26.06,0,0,0,.79,4.75,5,5,0,0,1,.14.94,3.53,3.53,0,0,1,.07.79,0.78,0.78,0,0,1-.14.58,0.61,0.61,0,0,1-.43.14l-0.58.07a3.82,3.82,0,0,0-.79-0.22c-0.29-.14-0.72-0.36-1.22-0.58s-0.65-.29-0.94-0.43a7.85,7.85,0,0,1-.79-0.43,4.47,4.47,0,0,1-2.16-2.16,12.89,12.89,0,0,1-.5-4.46v-2.3c0-.86.07-1.87,0.07-2.88a2.1,2.1,0,0,0,.14-0.65V37a1.55,1.55,0,0,0-.43-1.3,1.9,1.9,0,0,0-1.15-.5,4.25,4.25,0,0,1-1,.14l-1.15.22a2.38,2.38,0,0,0-1.66.5,2.87,2.87,0,0,0-.43,1.8c0,0.36.07,0.86,0.07,1.37s0.07,1.15.14,1.8,0.07,1.51.14,2.38,0.07,1.8.07,2.88v1.73c0,0.29.07,0.5,0.07,0.72v0.58a1.23,1.23,0,0,1,.07.5,1,1,0,0,1-.14.5,0.3,0.3,0,0,1-.29.22h-0.5a0.91,0.91,0,0,0-.43-0.07c-0.14-.07-0.22-0.07-0.36-0.14-2.09-.36-3.46-0.94-4.18-1.73s-1.08-2.59-1.08-5.4V42c0-.36.07-0.79,0.07-1.3v-0.5a1.23,1.23,0,0,0,.07-0.5,0.91,0.91,0,0,0,.07-0.43,0.35,0.35,0,0,0-.07-0.29,0.65,0.65,0,0,0-.07-0.36,2.19,2.19,0,0,0-.5-0.72q-0.32-.43-0.86-1.08a5,5,0,0,0-.29-0.72,3.81,3.81,0,0,0-.43-0.72,5795886.15,5795886.15,0,0,0-.14-0.29,4.08,4.08,0,0,1-.58-0.94,1.38,1.38,0,0,1-.29-0.86V33.23a0.22,0.22,0,0,0,.07-0.14,0.72,0.72,0,0,1,.29-0.36,1.08,1.08,0,0,1,.58-0.29h0.07a0.25,0.25,0,0,0,.14-0.07,2.94,2.94,0,0,0,2-.79,7.46,7.46,0,0,0,.5-3.1c0.07-.58.07-1.37,0.14-2.23a24.77,24.77,0,0,1,.22-3,2.22,2.22,0,0,1,.07-0.72,2.7,2.7,0,0,1,.07-0.72v-0.5a1.07,1.07,0,0,1,.07-0.5,15.05,15.05,0,0,1,.22-2.74,1.19,1.19,0,0,1,1.08-1.22h0.5a3.65,3.65,0,0,1,.65.14,2.92,2.92,0,0,1,.65.36,18.89,18.89,0,0,1,2.45,2.45,2.82,2.82,0,0,1,.72,1.58v0.22a2,2,0,0,1-.07.65c0,0.22-.07.5-0.07,0.86a3.2,3.2,0,0,0-.14.94,5.82,5.82,0,0,0-.07,1.15,1.07,1.07,0,0,1-.07.5c0,0.22-.07.36-0.07,0.5-0.07.79-.14,1.44-0.22,2a12.69,12.69,0,0,0-.14,1.37,2.23,2.23,0,0,0,.29,1.15,1,1,0,0,0,.86.36,13.75,13.75,0,0,0,1.44-.14,18.25,18.25,0,0,1,2.09-.29,1.39,1.39,0,0,0,.65-0.36,2.42,2.42,0,0,0,.36-1.22c0.14-.58.22-1.44,0.36-2.52s0.29-2.66.5-4.61V21.5Z"/><path class="cls-1" d="M494.53,41.66a18.09,18.09,0,0,0-.29,1.94c0,0.65-.07,1.3-0.07,1.94V46a1.23,1.23,0,0,0,.07.5v1.08a0.35,0.35,0,0,0,.07.29c0,0.07.07,0.14,0.07,0.22s0.07,0.14.14,0.22a1.09,1.09,0,0,1,.29.29,10.53,10.53,0,0,0,.94.65,4.59,4.59,0,0,0,1,.58,12,12,0,0,0,1.44.58,7.18,7.18,0,0,0,1.15.14h0.58a2.59,2.59,0,0,0,.79-0.14,0.73,0.73,0,0,0,.36-0.58c0.07-1.22.22-2.59,0.29-3.89s0.29-2.81.5-4.32a0.86,0.86,0,0,1,.29-0.58,1.16,1.16,0,0,1,.79-0.22l4.18-.5h0.14c0.14,0.07.22,0.07,0.22,0.14a1.85,1.85,0,0,1,.14.36V41c0,0.07.07,0.14,0.07,0.22,0.14,0.86.22,1.73,0.29,2.38s0.22,1.37.29,2.09c0,0.43.07,0.79,0.07,1.22s0.07,0.79.07,1.3c0,0.29.07,0.58,0.07,0.86a4.43,4.43,0,0,0,.07.94,0.31,0.31,0,0,0,.22.22,1.57,1.57,0,0,0,.36.22,7,7,0,0,0,1.22.5,10.2,10.2,0,0,0,1.58.5l1.15,0.22a5.65,5.65,0,0,0,1,.14l0.58-.07a2.7,2.7,0,0,0,.79-0.07,0.45,0.45,0,0,0,.36-0.36Q514.22,40.94,513,34.46c-0.79-4.32-1.51-7.7-2.23-10.15-0.79-2.81-1.73-4.68-2.59-5.54a5.86,5.86,0,0,0-3.53-1.51h-0.79a1.44,1.44,0,0,0-.65.14,1,1,0,0,0-.29.22l-0.07.07v0.14a0.07,0.07,0,0,0,.07.07C503,18,503,18,503,18s0.07,0.07.07,0.14v0.07L504,20.78a2.23,2.23,0,0,0-.58-0.14,1.59,1.59,0,0,0-.58-0.07h-0.5a2.35,2.35,0,0,0-.94.29,3.69,3.69,0,0,0-.86.94A19.15,19.15,0,0,0,498.77,26c-0.58,1.94-1.37,4.61-2.23,8.14a2.62,2.62,0,0,1-.79,1.8,3.67,3.67,0,0,1-1.22.5,6.34,6.34,0,0,1-1.08.36,4.63,4.63,0,0,0-1.22.94,8.58,8.58,0,0,0,.58,1.44c0.14,0.43.36,0.79,0.5,1.15L494,41.15c0.22,0.22.43,0.36,0.58,0.5h0ZM503.17,35a10.74,10.74,0,0,1,.14-1.51c0.14-.58.22-1.08,0.36-1.66a24.35,24.35,0,0,1,.79-2.45,11.32,11.32,0,0,1,.94-2.09c0,0.07,0,.07.07,0.07v0.07c0.43,1.94.72,3.6,1,5s0.36,2.45.43,3.1h-3.24a0.66,0.66,0,0,1-.43-0.07,0.22,0.22,0,0,1-.07-0.14V35Z"/><path class="cls-2" d="M226.54,68.15l-5.47-2.52s0-9.65-4.9-16.56h-5.4A31.63,31.63,0,0,0,204.37,38h9.14s-5.26-7.92-10.73-7.92S199,29.78,199,29.78l-5.69-9.5,10.58-1.8s-1.22-3-8.5-5.26-39.1-3.89-39.1-3.89,0.14-3.67,2.3-5.62c0,0,5.26-.36,5.26-2.45s-6-.72-8-0.29-3.38,1.51-1,2.66c0,0-4.32,1.15-8.86,6.48,0,0-15.48,2.52-21.1,5.62s-7.85,5-7.85,6.48,3.67,1.22,3.67,1.22v4.46s-13.25,2-20.16,4.54-8.14,4.39-7.13,6.7L79.16,48.86H0.32L23.79,73.77A18.89,18.89,0,0,0,39,80.9c10.3,0,91.8-1.8,91.8-1.8s18.22-.22,42.62-1.8Z"/><path class="cls-3" d="M226.54,68.15l-5.47-2.52s0-9.65-4.9-16.56h-5.4A31.63,31.63,0,0,0,204.37,38h9.14s-5.26-7.92-10.73-7.92S199,29.78,199,29.78l-5.69-9.5,10.58-1.8s-1.22-3-8.5-5.26-39.1-3.89-39.1-3.89,0.14-3.67,2.3-5.62c0,0,5.26-.36,5.26-2.45s-6-.72-8-0.29-3.38,1.51-1,2.66c0,0-4.32,1.15-8.86,6.48,0,0-15.48,2.52-21.1,5.62s-7.85,5-7.85,6.48,3.67,1.22,3.67,1.22v4.46s-13.25,2-20.16,4.54-8.14,4.39-7.13,6.7L79.16,48.86H0.32L23.79,73.77A18.89,18.89,0,0,0,39,80.9c10.3,0,91.8-1.8,91.8-1.8s18.22-.22,42.62-1.8"/><path class="cls-1" d="M188,30.71s-1.87-6-2.74-8.71S173,14.51,162.89,13.94,142.45,13,132.51,16.6s-10.37,5.4-10.3,6.84,0,4.75,0,4.75,12.89-1.37,22.68-1.37A285,285,0,0,1,188,30.71Z"/><path class="cls-1" d="M200,49.65a73.69,73.69,0,0,0-3-6.91c-1.44-2.88-6.77-4.54-10-5.4S177,35,165.2,34.1s-23.76-1.08-30.82-.94-21.38,1.3-28.3,3-9.5,2.66-10.8,3.6L81.61,49.43Z"/><path class="cls-1" d="M193,53.11a1.53,1.53,0,0,0,1.44,1.58h1a1.53,1.53,0,0,0,1.44-1.58,1.55,1.55,0,0,0-1.44-1.66h-1A1.55,1.55,0,0,0,193,53.11Z"/><path class="cls-1" d="M211.49,53.47a1.59,1.59,0,0,0,1.44,1.66h1a1.59,1.59,0,0,0,1.44-1.66,1.55,1.55,0,0,0-1.44-1.66h-1A1.55,1.55,0,0,0,211.49,53.47Z"/><path class="cls-1" d="M173.12,53a1.62,1.62,0,0,0,1.44,1.73h1A1.62,1.62,0,0,0,177,53a1.57,1.57,0,0,0-1.44-1.73h-1A1.57,1.57,0,0,0,173.12,53Z"/><path class="cls-1" d="M148.93,53a1.69,1.69,0,0,0,1.66,1.73h1.08A1.69,1.69,0,0,0,153.32,53a1.65,1.65,0,0,0-1.66-1.73h-1.08A1.65,1.65,0,0,0,148.93,53Z"/><path class="cls-1" d="M121.35,53.32a1.93,1.93,0,0,0,2,1.8h1.3a1.78,1.78,0,1,0,0-3.53h-1.3A1.92,1.92,0,0,0,121.35,53.32Z"/><path class="cls-1" d="M91.4,53.9a2,2,0,0,0,2.16,1.8H95a1.8,1.8,0,1,0,0-3.53H93.56A2,2,0,0,0,91.4,53.9Z"/><path class="cls-1" d="M59.29,54.62a2,2,0,0,0,2.16,1.73H63a2,2,0,0,0,2.16-1.73A2,2,0,0,0,63,52.89H61.45A2,2,0,0,0,59.29,54.62Z"/><path class="cls-1" d="M31,55a2.3,2.3,0,0,0,2.52,2h1.66a2.38,2.38,0,0,0,2.59-2,2.38,2.38,0,0,0-2.59-2H33.51A2.3,2.3,0,0,0,31,55Z"/><path class="cls-1" d="M67.85,63.83a1.29,1.29,0,0,0,1.3,1.3h2.3a1.3,1.3,0,1,0,0-2.59h-2.3A1.29,1.29,0,0,0,67.85,63.83Z"/><path class="cls-1" d="M83.91,63.55a1.23,1.23,0,0,0,1.22,1.3h2.09a1.3,1.3,0,0,0,0-2.59H85.13A1.23,1.23,0,0,0,83.91,63.55Z"/><path class="cls-1" d="M99.82,63.47a1.28,1.28,0,0,0,1.22,1.3h2.09a1.28,1.28,0,0,0,1.22-1.3,1.3,1.3,0,0,0-1.22-1.37H101A1.3,1.3,0,0,0,99.82,63.47Z"/><path class="cls-1" d="M114.8,63.33A1.29,1.29,0,0,0,116,64.7h2.09a1.29,1.29,0,0,0,1.15-1.37,1.22,1.22,0,0,0-1.15-1.3H116A1.23,1.23,0,0,0,114.8,63.33Z"/><path class="cls-1" d="M129.27,63a1.29,1.29,0,0,0,1.08,1.37h1.94A1.29,1.29,0,0,0,133.45,63a1.22,1.22,0,0,0-1.15-1.3h-1.94A1.21,1.21,0,0,0,129.27,63Z"/><path class="cls-1" d="M142.81,62.75A1.22,1.22,0,0,0,144,64h1.94a1.31,1.31,0,0,0,0-2.59H144A1.22,1.22,0,0,0,142.81,62.75Z"/><path class="cls-1" d="M155.41,62.54a1.29,1.29,0,0,0,1.15,1.37h1.94a1.34,1.34,0,0,0,1.15-1.37,1.27,1.27,0,0,0-1.15-1.3h-1.94A1.22,1.22,0,0,0,155.41,62.54Z"/><path class="cls-1" d="M167.21,62a1.24,1.24,0,0,0,1.08,1.37h1.87A1.24,1.24,0,0,0,171.25,62a1.21,1.21,0,0,0-1.08-1.3h-1.87A1.21,1.21,0,0,0,167.21,62Z"/><path class="cls-1" d="M178.3,61.67a1.21,1.21,0,0,0,1.08,1.3h1.87a1.32,1.32,0,0,0,0-2.59h-1.87A1.21,1.21,0,0,0,178.3,61.67Z"/><path class="cls-1" d="M188.38,61.6a1.16,1.16,0,0,0,1,1.3H191a1.16,1.16,0,0,0,1-1.3,1.19,1.19,0,0,0-1-1.37h-1.66A1.19,1.19,0,0,0,188.38,61.6Z"/><path class="cls-1" d="M197.67,61.39a1.17,1.17,0,0,0,.94,1.3h1.58a1.17,1.17,0,0,0,.94-1.3,1.25,1.25,0,0,0-.94-1.37h-1.58A1.25,1.25,0,0,0,197.67,61.39Z"/><path class="cls-1" d="M205.88,61.17a1.25,1.25,0,0,0,.94,1.37h1.58a1.25,1.25,0,0,0,.94-1.37,1.17,1.17,0,0,0-.94-1.3h-1.58A1.17,1.17,0,0,0,205.88,61.17Z"/><path class="cls-1" d="M248.57,65.49s-20.81,2.3-33.7,3.31A345.48,345.48,0,0,1,178.52,70c-14.47-.14-36.58-0.5-46.66-0.94s-23.69-.58-34.49-0.58-23.54.29-31.1,0.72-33.55,1.87-34.49,2.09l28.8-.65c13-.29,23.11-0.36,32.47-0.43s34.78,0.65,44.42.94,15.84,0.5,25.27.58,18.43,0.14,24.55.14,29.66-1.66,34.27-2.3l27.36-4.18Z"/><path class="cls-1" d="M252.61,68.51s-20.81,2.3-33.7,3.24A344.71,344.71,0,0,1,182.55,73c-14.47-.22-36.58-0.58-46.66-0.94s-23.69-.65-34.49-0.65-23.54.29-31.1,0.72-33.55,1.94-34.49,2.16c0,0,15.84-.29,28.8-0.58s23.11-.43,32.47-0.5,34.78,0.65,44.42,1,15.84,0.43,25.27.58,18.43,0.07,24.48.07,29.74-1.66,34.34-2.38S253,68.44,253,68.44Z"/><path class="cls-1" d="M257.86,71.47s-20.74,2.38-33.62,3.38-21.89,1.44-36.36,1.3-36.58-.65-46.66-1-23.69-.58-34.49-0.58-23.54.29-31.1,0.65-33.55,1.94-34.49,2.16c0,0,15.77-.29,28.8-0.58s23.11-.36,32.47-0.5,34.78,0.72,44.42,1,15.84,0.5,25.27.58,18.43,0.07,24.48.07,29.74-1.66,34.34-2.3,27.36-4.18,27.36-4.18h-0.43Z"/><path class="cls-1" d="M545.86,65.78s-29.23,5-47.45,7.2-30.89,3.24-51.26,2.81-51.55-1.3-65.66-2.16-33.41-1.3-48.67-1.3S299.69,73,289,73.84s-47.23,4.25-48.6,4.68c0,0,22.32-.65,40.54-1.22s32.54-.86,45.72-1.08,49.1,1.44,62.64,2.09,22.32,1.08,35.64,1.3,25.92,0.22,34.56.22,41.83-3.6,48.31-5.11,38.52-9,38.52-9Z"/><path class="cls-1" d="M533,55.91S506.48,61,489.92,63.19,461.84,66.43,443.26,66s-46.87-1.3-59.76-2.16-30.38-1.3-44.28-1.3-30.1.65-39.82,1.51-42.91,4.25-44.21,4.68c0,0,20.23-.65,36.86-1.3s29.66-.79,41.62-1,44.64,1.44,57,2.09,20.3,1.08,32.4,1.3S446.72,70,454.49,70s38.09-3.53,44.06-5,35-9.07,35-9.07Z"/><path class="cls-4" d="M176.36,31.15c-0.14.22-.36,0.5-0.65,0.94a0.32,0.32,0,0,1,.36,0h0.36a4.43,4.43,0,0,0-.07-0.94h0ZM177,34a1.07,1.07,0,0,1-.36-0.5,3.72,3.72,0,0,0-.14-0.79h-1.3c-0.07.22-.29,0.43-0.5,0.86a0.55,0.55,0,0,1-.36.14c-0.07-.07-0.14-0.07-0.22-0.14a0.35,0.35,0,0,1-.07-0.29,4.07,4.07,0,0,1,.43-0.86V32.23a0.37,0.37,0,0,1,.29-0.14,15.81,15.81,0,0,1,1-1.3,2.62,2.62,0,0,1,.94-0.86,0.33,0.33,0,0,1,.29.36,3,3,0,0,1,.07.86c0.07,0.5.14,1.15,0.22,1.8a1.46,1.46,0,0,1,.07.36,0.78,0.78,0,0,1,.07.36,0.38,0.38,0,0,1-.14.22A0.35,0.35,0,0,1,177,34h0Zm-3.46-1.08a1.07,1.07,0,0,1-.07.43,0.39,0.39,0,0,1-.43.29,0.66,0.66,0,0,1-.36-0.22,20.48,20.48,0,0,1-2-2.81c-0.07.43-.14,0.72-0.14,0.86a1.79,1.79,0,0,1-.07.58v0.65c-0.07.5-.22,0.79-0.5,0.72a0.29,0.29,0,0,1-.29-0.14,0.26,0.26,0,0,1-.07-0.22,3.12,3.12,0,0,0,.07-0.36,0.35,0.35,0,0,1,.07-0.29v-0.5a1.27,1.27,0,0,0,.07-0.43,1.41,1.41,0,0,1,.07-0.5v-1a2.55,2.55,0,0,1,.07-0.43,0.37,0.37,0,0,1,.14-0.29,0.43,0.43,0,0,1,.29-0.07,0.65,0.65,0,0,1,.43.36,18.29,18.29,0,0,0,2.09,3,1.27,1.27,0,0,1,.07-0.43c0.07-.86.07-1.44,0.14-1.73a0.54,0.54,0,0,0-.07-0.29,0.35,0.35,0,0,1,.07-0.29,0.31,0.31,0,0,1,.36-0.36c0.29,0.07.43,0.5,0.36,1.37a2.55,2.55,0,0,0-.07.43,9,9,0,0,1-.22,1.66h0Zm-5.62-2.52c-0.14.22-.36,0.5-0.65,0.94H168a4.78,4.78,0,0,0-.07-0.94h0Zm0.72,2.81a0.74,0.74,0,0,1-.36-0.5,2.59,2.59,0,0,1-.14-0.79,1.9,1.9,0,0,1-.65,0h-0.65c-0.14.22-.29,0.5-0.5,0.86a0.4,0.4,0,0,1-.36.14,0.29,0.29,0,0,1-.29-0.14c-0.07,0-.07-0.14-0.07-0.22a9.11,9.11,0,0,1,.5-0.86c0-.07-0.07-0.14,0-0.14s0.07-.14.22-0.22a15.08,15.08,0,0,1,1-1.22,3.56,3.56,0,0,1,.86-0.94,0.34,0.34,0,0,1,.36.36c0.07,0.22.07,0.5,0.14,0.86a8.69,8.69,0,0,0,.22,1.8,1,1,0,0,0,.07.36,0.78,0.78,0,0,1,.07.36,0.38,0.38,0,0,1-.14.22,0.43,0.43,0,0,1-.29.07h0Zm-3.53-3.46c-0.07,0-.29-0.07-0.65-0.14a6.46,6.46,0,0,0-.14,1.3l-0.14,1.22h0.72a0.37,0.37,0,0,1,.29.14,0.35,0.35,0,0,1,.07.29,0.38,0.38,0,0,1-.14.22,0.35,0.35,0,0,1-.29.07h-0.43a2.55,2.55,0,0,1-.43-0.07H163.4a0.59,0.59,0,0,1-.5,0,0.35,0.35,0,0,1-.29-0.07,0.43,0.43,0,0,1-.07-0.29,0.38,0.38,0,0,1,.14-0.22,0.22,0.22,0,0,1,.29-0.07h0.5a9.4,9.4,0,0,1,.07-1.22c0.07-.5.07-0.94,0.14-1.37h-0.58c-0.07-.07-0.14-0.07-0.22-0.14a0.22,0.22,0,0,1-.07-0.29,0.26,0.26,0,0,1,.07-0.22,0.35,0.35,0,0,1,.29-0.07,2.7,2.7,0,0,1,.79,0,4.86,4.86,0,0,1,1.22.22c0.22,0.07.36,0.22,0.29,0.36a0.24,0.24,0,0,1-.14.29,0.26,0.26,0,0,1-.22.07h0Zm-4.61,1.73c-0.14-.43-0.22-0.86-0.36-1.37A5.32,5.32,0,0,1,160,29.2a4.59,4.59,0,0,1-.14-0.5,0.39,0.39,0,0,0-.29-0.29,0.37,0.37,0,0,0-.29.14,0.24,0.24,0,0,0-.14.22,6,6,0,0,0,.14.72c0.07,0.22.07,0.43,0.14,0.72,0.22,0.94.43,1.73,0.58,2.23a0.37,0.37,0,0,0,.36.29,0.34,0.34,0,0,0,.36-0.14c0.14-.22.22-0.43,0.36-0.65,0.36-.79.65-1.37,0.79-1.8a4.28,4.28,0,0,0,.22-0.5,3,3,0,0,1,.36-0.5c0-.07.07-0.07,0.07-0.14a0.37,0.37,0,0,0-.14-0.29,0.38,0.38,0,0,0-.22-0.14,0.37,0.37,0,0,0-.29.14,2,2,0,0,0-.43.58,5,5,0,0,0-.22.58c-0.22.43-.43,0.94-0.72,1.58h0Zm-2.09-2.16c-0.07,0-.29-0.07-0.65-0.14-0.07.36-.07,0.79-0.14,1.3l-0.07,1.22h0.72a0.37,0.37,0,0,1,.29.14,1.63,1.63,0,0,1,.07.29,0.38,0.38,0,0,1-.14.22,0.35,0.35,0,0,1-.29.07h-0.86a1.5,1.5,0,0,0-.58,0h-0.5a0.37,0.37,0,0,1-.29-0.14,0.26,0.26,0,0,1-.07-0.22,0.24,0.24,0,0,1,.14-0.29,0.35,0.35,0,0,1,.29-0.07h0.5a9.4,9.4,0,0,1,.07-1.22,8.82,8.82,0,0,1,.14-1.37h-0.58a0.37,0.37,0,0,1-.29-0.14,0.26,0.26,0,0,1-.07-0.22,0.29,0.29,0,0,1,.36-0.36h0.72q0.54,0.11,1.3.22a0.39,0.39,0,0,1,.36.36,1.06,1.06,0,0,1-.14.29,0.43,0.43,0,0,1-.29.07h0Zm-4.18.22c-0.22-.14-0.58-0.29-1.08-0.58L153,31.58c0.07,0,.14.07,0.22,0.07a0.43,0.43,0,0,0,.29.07,1.32,1.32,0,0,0,.86-0.14,0.87,0.87,0,0,0,.36-0.36,1.88,1.88,0,0,0,.22-0.58,1.39,1.39,0,0,0-.72-1.15h0Zm-1.66,2.66a0.66,0.66,0,0,1-.36-0.36c0-.22.07-0.43,0.07-0.79a3.88,3.88,0,0,0,.07-0.79,5.17,5.17,0,0,1,.07-0.94V28.41a1,1,0,0,1,.14-0.29,0.55,0.55,0,0,1,.29-0.14,1.11,1.11,0,0,1,.43.22,1.87,1.87,0,0,0,.5.22,4.09,4.09,0,0,1,1.3.86,2,2,0,0,1,.58,1.44,1.38,1.38,0,0,1-.29.86,1.86,1.86,0,0,1-.65.65,2.87,2.87,0,0,1-1.22.22c-0.14,0-.29-0.07-0.43-0.07a3.51,3.51,0,0,1-.5-0.22h0Zm-0.94-.22a1.91,1.91,0,0,1-1,.22,4.78,4.78,0,0,1-.94.07,0.52,0.52,0,0,1-.65-0.58,7.85,7.85,0,0,1,.07-0.86c0.07-.72.14-1.58,0.22-2.52a0.29,0.29,0,0,1,.36-0.36A0.43,0.43,0,0,1,150,28a0.54,0.54,0,0,1,.07.29q-0.11,1.4-.22,2.59a2.48,2.48,0,0,1-.07.65,8,8,0,0,0,1.66-.22h0.07a0.24,0.24,0,0,1,.29.14,0.26,0.26,0,0,1,.07.22,0.25,0.25,0,0,1-.22.29h0Zm-4.32-2.66a7.59,7.59,0,0,0-.58.94h0.36a0.44,0.44,0,0,0,.36-0.07,5.32,5.32,0,0,0-.14-0.86h0ZM148.21,32a0.49,0.49,0,0,1-.36-0.5,1.22,1.22,0,0,1-.22-0.72H147a2.48,2.48,0,0,1-.65.07,6.3,6.3,0,0,1-.5.86,0.24,0.24,0,0,1-.29.14,0.29,0.29,0,0,1-.36-0.36,4.07,4.07,0,0,1,.43-0.86,0.22,0.22,0,0,1-.07-0.14,0.45,0.45,0,0,1,.29-0.22l0.86-1.3a3.06,3.06,0,0,1,.94-1,0.45,0.45,0,0,1,.36.36c0,0.22.07,0.5,0.07,0.86,0.14,0.58.22,1.15,0.36,1.8a1,1,0,0,0,.07.36,1.22,1.22,0,0,1,.14.36,0.38,0.38,0,0,1-.14.22,0.24,0.24,0,0,1-.29.07h0Zm-6.62-2.38c-0.07.29-.22,0.72-0.36,1.3-0.07.22-.07,0.43-0.14,0.58a0.39,0.39,0,0,1-.43.36c-0.07,0-.22,0-0.22-0.07a0.55,0.55,0,0,1-.14-0.29,6.39,6.39,0,0,1,.22-1c0.22-.65.36-1,0.36-1.08a2.59,2.59,0,0,0,.14-0.79c0.14-.36.22-0.58,0.29-0.72a0.4,0.4,0,0,1,.36-0.22A0.48,0.48,0,0,1,142,28a3.53,3.53,0,0,1,.22.94c0.07,0.43.14,0.94,0.29,1.51a9.71,9.71,0,0,0,.58-1.73l0.22-.58a0.39,0.39,0,0,1,.43-0.36,0.46,0.46,0,0,1,.43.43c0,0.14.07,0.36,0.07,0.65a10.48,10.48,0,0,0,.36,1.94,9.5,9.5,0,0,1,.22.94,0.38,0.38,0,0,1-.14.22,0.37,0.37,0,0,1-.29.14,0.74,0.74,0,0,1-.36-0.43L143.89,31c-0.07-.36-0.14-0.79-0.29-1.44-0.07.29-.22,0.65-0.36,1.15l-0.22.43a3.51,3.51,0,0,1-.22.5,0.44,0.44,0,0,1-.79-0.07l-0.07-.5A8.42,8.42,0,0,1,141.58,29.63Z"/></svg>