<svg id="Capa_1" data-name="Capa 1" xmlns="http://www.w3.org/2000/svg" viewBox="0 0 60 54.2"><title>lunch</title><path d="M18.35,17.9a1,1,0,0,0,1.41-1.41,2.61,2.61,0,0,1,0-3.68,4.6,4.6,0,0,0,0-6.51,1,1,0,1,0-1.41,1.41,2.6,2.6,0,0,1,0,3.68A4.61,4.61,0,0,0,18.35,17.9Z"/><path d="M40.35,17.9a1,1,0,0,0,1.41-1.41,2.61,2.61,0,0,1,0-3.68,4.6,4.6,0,0,0,0-6.51,1,1,0,1,0-1.41,1.41,2.6,2.6,0,0,1,0,3.68A4.61,4.61,0,0,0,40.35,17.9Z"/><path d="M29.35,11.9a1,1,0,0,0,1.41-1.41,2.61,2.61,0,0,1,0-3.68,4.6,4.6,0,0,0,0-6.51,1,1,0,0,0-1.41,1.41,2.6,2.6,0,0,1,0,3.68A4.61,4.61,0,0,0,29.35,11.9Z"/><path d="M25.34,25.71l0.22,0A20.14,20.14,0,0,1,30,25.2h0a1,1,0,1,0,0-2h0a22.17,22.17,0,0,0-4.86.54A1,1,0,0,0,25.34,25.71Z"/><path d="M9.82,42.18l0.18,0a1,1,0,0,0,1-.82,20,20,0,0,1,9.19-13.56,1,1,0,1,0-1-1.72A22,22,0,0,0,9,41,1,1,0,0,0,9.82,42.18Z"/><path d="M55.62,40.82A26.06,26.06,0,0,0,35,19.68a4.6,4.6,0,0,0,0-.48,5,5,0,0,0-10,0,4.34,4.34,0,0,0,0,.48A26.06,26.06,0,0,0,4.38,40.82C2.29,42,0,43.74,0,45.7c0,5.08,15.51,8.5,30,8.5s30-3.42,30-8.5C60,43.74,57.71,42,55.62,40.82ZM27,19.37c0-.06,0-0.12,0-0.17a3,3,0,1,1,6,0c0,0.06,0,.11,0,0.17H32.85l-1-.09-0.38,0c-0.47,0-1,0-1.43,0s-1,0-1.43,0l-0.38,0-1,.09H27Zm-0.61,2.1c0.54-.08,1.08-0.14,1.62-0.18l0.33,0a24.54,24.54,0,0,1,3.3,0l0.33,0c0.54,0,1.08.1,1.62,0.18A24.05,24.05,0,0,1,53.75,41.78c0,0.32.08,0.64,0.12,1,0,0.11,0,.22,0,0.33,0,0.44.07,0.89,0.08,1.33a106.72,106.72,0,0,1-48,0q0-.66.08-1.33c0-.11,0-0.22,0-0.33,0-.32.07-0.65,0.12-1A24.05,24.05,0,0,1,26.4,21.47ZM30,52.2c-17.1,0-28-4.27-28-6.5,0-.38.47-1.23,2.06-2.33,0,0.06,0,.11,0,0.17C4,44.09,4,44.64,4,45.2V46l0.77,0.19a108.29,108.29,0,0,0,25.23,3,108.24,108.24,0,0,0,25.23-3L56,46V45.2c0-.56,0-1.11-0.06-1.66,0-.06,0-0.11,0-0.17C57.53,44.47,58,45.31,58,45.7,58,47.93,47.1,52.2,30,52.2Z"/></svg>