<svg id="Layer_1" data-name="Layer 1" xmlns="http://www.w3.org/2000/svg" viewBox="0 0 463 367"><title>lunch-alternative</title><path d="M455.5,320H353.44c31.82-16.06,58.1-39.51,76.58-68.47a7.5,7.5,0,0,0,0-8.07c-17.45-27.36-42.5-50.28-72.44-66.3A216.54,216.54,0,0,0,255.7,152c-50.71,0-98.74,17.07-136,48.21a208.37,208.37,0,0,0-69.82-37.85,7.5,7.5,0,0,0-9.76,6.71c-0.57,9.78,0,43.29,29.6,78.43C44.56,277.38,40.37,306.06,40,320H7.5a7.5,7.5,0,0,0,0,15H67.75L82.3,354.4A31.65,31.65,0,0,0,107.5,367h248a31.65,31.65,0,0,0,25.2-12.6L395.25,335H455.5A7.5,7.5,0,0,0,455.5,320Zm-40.79-72.5c-15.83,23.26-38,43-63.94,56.92a80.46,80.46,0,0,1,0-113.85A180.24,180.24,0,0,1,414.71,247.5ZM328,311.5a16.37,16.37,0,0,1-2.39,8.5H297.39A16.49,16.49,0,1,1,328,311.5Zm8.64-127.79a95.69,95.69,0,0,0-18.54,97,31.45,31.45,0,0,0-17.3,1.17,105.76,105.76,0,0,1,20.86-104Q329.29,180.49,336.64,183.71ZM55.4,314.84c1.39-13.62,7.28-37.77,29.81-62.27a7.5,7.5,0,0,0,0-10.15c-22.53-24.5-28.42-48.65-29.81-62.27a190.08,190.08,0,0,1,59.3,35.55,7.5,7.5,0,0,0,10,0c35.16-31.41,81.69-48.7,131-48.7A205.51,205.51,0,0,1,306,173.25,119.78,119.78,0,0,0,280.45,240H231.35a50.44,50.44,0,0,0-13.24-22.78c-13.85-13.85-33.66-18.45-49.31-11.46a7.5,7.5,0,0,0-3.79,3.79c-4.19,9.38-4.21,20.25-.58,30.44H111.69a7.5,7.5,0,0,0,0,15H173q1.64,2,3.51,3.87c9.54,9.54,21.9,14.69,33.79,14.69a38.77,38.77,0,0,0,11.09-1.6l13,13a39.84,39.84,0,0,0-2.75,3.39,39.09,39.09,0,0,0-55.63,7.7H175.5a31.33,31.33,0,0,0-18.79,6.24,186.32,186.32,0,0,1-32-22.94,7.5,7.5,0,0,0-10,0A190.07,190.07,0,0,1,55.4,314.84ZM281.17,320H240.55a24.44,24.44,0,0,1,23-33,24.62,24.62,0,0,1,19.9,10.29A31.37,31.37,0,0,0,281.17,320ZM263.5,272a39.26,39.26,0,0,0-17,3.86l-14.94-14.94a38.24,38.24,0,0,0,1.06-5.93h47.82A120.06,120.06,0,0,0,284,277.78,39.37,39.37,0,0,0,263.5,272Zm-64-21.9,8.31,8.3a34.48,34.48,0,0,1-20.72-10.14c-8.48-8.48-12.1-20.32-9.38-29.81,9.49-2.71,21.33.9,29.81,9.38a34.91,34.91,0,0,1,9.92,19l-7.32-7.32A7.5,7.5,0,0,0,199.49,250.1ZM224.95,320H160.82a16.06,16.06,0,0,1,17.57-8.69,7.5,7.5,0,0,0,7.85-3.71A24.49,24.49,0,0,1,207.5,295,24.23,24.23,0,0,1,225,302.57,38.87,38.87,0,0,0,224.95,320Zm-144,0a202.49,202.49,0,0,0,38.75-25.21A201.81,201.81,0,0,0,147.05,314a31.3,31.3,0,0,0-2.14,6h-64ZM368.7,345.4a16.58,16.58,0,0,1-13.2,6.6h-248a16.58,16.58,0,0,1-13.2-6.6L86.5,335h290Z"/><path d="M363.7,247a11.5,11.5,0,1,0-11.5-11.5A11.51,11.51,0,0,0,363.7,247Z"/><path d="M208,87.53c0,12.63,5.35,19.3,9.65,24.67,3.69,4.61,6.35,7.94,6.35,15.3a7.5,7.5,0,0,0,15,0c0-12.62-5.35-19.3-9.65-24.67-3.69-4.61-6.35-7.94-6.35-15.3s2.67-10.7,6.36-15.32c4.3-5.37,9.64-12.06,9.64-24.69s-5.35-19.32-9.64-24.7c-3.69-4.62-6.36-8-6.36-15.33a7.5,7.5,0,0,0-15,0c0,12.64,5.35,19.32,9.64,24.7,3.69,4.62,6.36,8,6.36,15.33s-2.67,10.7-6.36,15.32C213.35,68.22,208,74.9,208,87.53Z"/><path d="M248.48,95a7.49,7.49,0,0,0,5.88-2.84C259.78,85.42,271,71.36,271,47.53a66.72,66.72,0,0,0-5.53-27.12,7.5,7.5,0,1,0-13.72,6.06A51.83,51.83,0,0,1,256,47.53c0,18.51-8.29,29-13.3,35.23A7.5,7.5,0,0,0,248.48,95Z"/><path d="M188.32,119a7.5,7.5,0,0,0,6.87-10.51A51.79,51.79,0,0,1,191,87.53c0-18.59,8.37-29.05,13.37-35.3q0.2-.25.38-0.52a7.58,7.58,0,0,0,0-8.37,7.5,7.5,0,0,0-12.55.1c-5.56,7-16.19,20.9-16.19,44.1a66.69,66.69,0,0,0,5.45,26.92A7.5,7.5,0,0,0,188.32,119Z"/></svg>