<svg id="Capa_1" data-name="Capa 1" xmlns="http://www.w3.org/2000/svg" viewBox="0 0 185.78 430"><title>man</title><path d="M92.89,109.78A54.89,54.89,0,1,0,38,54.89,54.9,54.9,0,0,0,92.89,109.78Z"/><path d="M109.32,120.08a46.49,46.49,0,0,0-32.87,0C62.07,124.44,7.88,147.7.05,251.8a17.41,17.41,0,0,0,16.06,18.67q0.67,0.05,1.32.05a17.42,17.42,0,0,0,17.35-16.11c1.79-23.73,6.16-42,11.66-55.93V252.1a46.56,46.56,0,0,0,1.23,10.63v147a20.32,20.32,0,0,0,40.64,0V298.33q2.26,0.22,4.57.22t4.57-.22V409.68a20.32,20.32,0,1,0,40.64,0v-147a46.57,46.57,0,0,0,1.23-10.61V198.48c5.5,14,9.87,32.21,11.66,55.94a17.42,17.42,0,0,0,17.35,16.12q0.66,0,1.32-.05a17.42,17.42,0,0,0,16.06-18.67C177.91,147.66,123.67,124.42,109.32,120.08Z"/></svg>