<svg id="Layer_1" data-name="Layer 1" xmlns="http://www.w3.org/2000/svg" viewBox="0 0 713.23 426.89"><defs><style>.cls-1{fill:#fff;}.cls-2{fill:#5e5e5e;}.cls-3{fill:none;stroke:#fff;stroke-width:0.21px;}</style></defs><title>master-card-color</title><polygon class="cls-1" points="712.94 202.1 712.15 191.3 710.78 180.65 708.91 170.21 706.53 159.91 703.65 149.83 700.27 139.9 696.46 130.25 692.13 120.82 687.46 111.6 682.27 102.74 676.73 94.03 670.75 85.68 664.41 77.69 657.72 69.91 650.59 62.5 643.17 55.44 635.4 48.74 627.34 42.41 618.98 36.43 610.27 30.89 601.34 25.78 592.13 21.1 582.62 16.78 572.9 12.96 562.97 9.58 552.82 6.7 542.52 4.32 531.93 2.45 521.28 1.08 510.41 0.29 499.39 0 488.45 0.29 477.57 1.08 466.92 2.45 456.41 4.32 446.11 6.7 435.96 9.58 426.1 12.96 416.38 16.78 406.94 21.1 397.8 25.78 388.87 30.89 380.23 36.43 371.88 42.41 363.81 48.74 356.62 55 357.12 55.44 364.54 62.5 371.59 69.91 378.29 77.69 384.62 85.68 390.53 94.03 396.07 102.74 401.18 111.6 405.94 120.82 410.18 130.25 414 139.9 417.31 149.83 420.19 159.91 422.57 170.21 424.44 180.65 425.81 191.3 426.6 202.1 426.89 213.05 426.6 224.06 425.81 234.94 424.44 245.59 422.57 256.18 420.19 266.47 417.31 276.62 414 286.56 410.18 296.28 405.94 305.78 401.18 315 396.07 323.93 390.53 332.64 384.62 340.99 378.29 349.06 371.59 356.83 364.54 364.25 357.12 371.38 356.62 371.81 363.81 378.07 371.88 384.41 380.23 390.38 388.87 395.93 397.8 401.11 406.94 405.79 416.38 410.11 426.1 413.93 435.96 417.31 446.11 420.19 456.41 422.57 466.92 424.44 477.57 425.81 488.45 426.6 499.39 426.89 510.41 426.6 521.28 425.81 531.93 424.44 542.52 422.57 552.82 420.19 562.97 417.31 572.9 413.93 582.62 410.11 592.13 405.79 601.34 401.11 610.27 395.93 618.98 390.38 627.34 384.41 635.4 378.07 643.17 371.38 650.59 364.25 657.72 356.83 664.41 349.06 670.75 340.99 676.73 332.64 682.27 323.93 687.46 315 692.13 305.78 696.46 296.28 700.27 286.56 703.65 276.62 706.53 266.47 708.91 256.18 710.78 245.59 712.15 234.94 712.94 224.06 713.23 213.05 712.94 202.1"/><polygon class="cls-1" points="364.54 364.25 371.59 356.83 378.29 349.06 384.62 340.99 390.53 332.64 396.07 323.93 401.18 315 405.94 305.78 410.18 296.28 414 286.56 417.31 276.62 420.19 266.47 422.57 256.18 424.44 245.59 425.81 234.94 426.6 224.06 426.89 213.05 426.6 202.1 425.81 191.3 424.44 180.65 422.57 170.21 420.19 159.91 417.31 149.83 414 139.9 410.18 130.25 405.94 120.82 401.18 111.6 396.07 102.74 390.53 94.03 384.62 85.68 378.29 77.69 371.59 69.91 364.54 62.5 357.12 55.44 356.62 55 349.42 48.74 341.35 42.41 333 36.43 324.36 30.89 315.43 25.78 306.29 21.1 296.86 16.78 287.13 12.96 277.27 9.58 267.12 6.7 256.82 4.32 246.31 2.45 235.66 1.08 224.78 0.29 213.84 0 202.82 0.29 191.95 1.08 181.29 2.45 170.71 4.32 160.41 6.7 150.26 9.58 140.33 12.96 130.61 16.78 121.1 21.1 111.89 25.78 102.96 30.89 94.25 36.43 85.89 42.41 77.83 48.74 70.06 55.44 62.64 62.5 55.51 69.91 48.81 77.69 42.48 85.68 36.5 94.03 30.96 102.74 25.77 111.6 21.09 120.82 16.77 130.25 12.96 139.9 9.58 149.83 6.7 159.91 4.32 170.21 2.45 180.65 1.08 191.3 0.29 202.1 0 213.05 0.29 224.06 1.08 234.94 2.45 245.59 4.32 256.18 6.7 266.47 9.58 276.62 12.96 286.56 16.77 296.28 21.09 305.78 25.77 315 30.96 323.93 36.5 332.64 42.48 340.99 48.81 349.06 55.51 356.83 62.64 364.25 70.06 371.38 77.83 378.07 85.89 384.41 94.25 390.38 102.96 395.93 111.89 401.11 121.1 405.79 130.61 410.11 140.33 413.93 150.26 417.31 160.41 420.19 170.71 422.57 181.29 424.44 191.95 425.81 202.82 426.6 213.84 426.89 224.78 426.6 235.66 425.81 246.31 424.44 256.82 422.57 267.12 420.19 277.27 417.31 287.13 413.93 296.86 410.11 306.29 405.79 315.43 401.11 324.36 395.93 333 390.38 341.35 384.41 349.42 378.07 356.62 371.81 357.12 371.38 364.54 364.25"/><polygon class="cls-2" points="280.73 215.06 296.28 215.06 296.28 226.73 281.45 226.73 280.73 215.06"/><polygon class="cls-2" points="251.71 201.02 250.7 200.95 249.69 200.81 248.76 200.66 247.82 200.52 246.96 200.38 246.02 200.23 245.09 200.09 244.08 199.94 243.07 199.8 241.92 199.73 240.62 199.66 239.25 199.58 237.74 199.58 236.09 199.66 234.22 199.8 232.13 199.94 230.69 200.16 229.32 200.38 228.09 200.81 227.01 201.24 226.01 201.74 225.07 202.32 224.35 203.04 223.7 203.69 223.27 204.48 222.91 205.27 222.77 206.13 222.77 207 222.98 207.94 223.27 208.87 223.85 209.81 224.57 210.74 226.01 212.11 227.74 213.19 229.75 214.13 231.91 214.92 234.22 215.64 236.59 216.43 238.97 217.29 241.27 218.23 243.43 219.46 245.45 220.97 247.25 222.77 248.76 225 249.91 227.74 250.63 230.97 250.92 234.86 250.63 239.4 250.13 242.78 249.26 245.74 248.11 248.47 246.67 250.85 245.01 252.94 243.14 254.74 241.13 256.32 238.9 257.69 236.59 258.77 234.22 259.7 231.77 260.42 229.25 261 226.8 261.43 224.42 261.65 222.05 261.79 219.81 261.86 216.72 261.86 213.84 261.79 211.32 261.79 208.94 261.72 206.78 261.65 204.84 261.5 203.11 261.36 201.46 261.14 199.94 261 198.57 260.71 197.21 260.5 195.98 260.13 194.76 259.85 193.61 259.42 192.46 258.98 191.23 258.55 194.47 242.64 195.12 242.78 195.91 243 196.92 243.29 198.14 243.57 199.44 243.86 200.88 244.15 202.46 244.51 204.19 244.8 205.99 245.09 207.86 245.38 209.81 245.59 211.82 245.81 213.91 245.88 216 245.95 218.09 245.95 220.18 245.88 222.26 245.45 223.92 244.87 225.22 244.08 226.22 243.07 226.94 242.06 227.52 240.91 227.88 239.76 228.17 238.68 228.31 236.59 227.66 234.79 226.44 233.35 224.64 232.13 222.48 231.05 219.96 229.97 217.15 228.96 214.34 227.81 211.46 226.51 208.73 225 206.21 223.13 203.9 220.9 202.1 218.16 200.81 214.92 200.16 211.03 200.23 206.42 200.59 203.62 201.09 200.95 201.81 198.5 202.68 196.2 203.83 194.04 205.13 192.17 206.64 190.37 208.44 188.78 210.53 187.41 212.83 186.26 215.42 185.18 218.3 184.39 221.54 183.74 225.07 183.24 228.96 182.95 233.21 182.88 235.87 182.88 238.32 182.95 240.55 183.02 242.57 183.09 244.37 183.24 246.02 183.38 247.46 183.53 248.76 183.67 249.98 183.81 250.99 184.03 251.93 184.18 252.79 184.32 253.51 184.46 254.16 184.53 254.81 184.68 255.38 184.75 251.71 201.02"/><polyline class="cls-2" points="251.71 201.02 251.71 201.02 250.7 200.95 249.69 200.81 248.76 200.66 247.82 200.52 246.96 200.38 246.02 200.23 245.09 200.09 244.08 199.94 243.07 199.8 241.92 199.73 240.62 199.66 239.25 199.58 237.74 199.58 236.09 199.66 234.22 199.8 232.13 199.94 232.13 199.94 230.69 200.16 229.32 200.38 228.09 200.81 227.01 201.24 226.01 201.74 225.07 202.32 224.35 203.04 223.7 203.69 223.27 204.48 222.91 205.27 222.77 206.13 222.77 207 222.98 207.94 223.27 208.87 223.85 209.81 224.57 210.74 224.57 210.74 226.01 212.11 227.74 213.19 229.75 214.13 231.91 214.92 234.22 215.64 236.59 216.43 238.97 217.29 241.27 218.23 243.43 219.46 245.45 220.97 247.25 222.77 248.76 225 249.91 227.74 250.63 230.97 250.92 234.86 250.63 239.4 250.63 239.4 250.13 242.78 249.26 245.74 248.11 248.47 246.67 250.85 245.01 252.94 243.14 254.74 241.13 256.32 238.9 257.69 236.59 258.77 234.22 259.7 231.77 260.42 229.25 261 226.8 261.43 224.42 261.65 222.05 261.79 219.81 261.86 219.81 261.86 216.72 261.86 213.84 261.79 211.32 261.79 208.94 261.72 206.78 261.65 204.84 261.5 203.11 261.36 201.46 261.14 199.94 261 198.57 260.71 197.21 260.5 195.98 260.13 194.76 259.85 193.61 259.42 192.46 258.98 191.23 258.55 194.47 242.64 194.47 242.64 195.12 242.78 195.91 243 196.92 243.29 198.14 243.57 199.44 243.86 200.88 244.15 202.46 244.51 204.19 244.8 205.99 245.09 207.86 245.38 209.81 245.59 211.82 245.81 213.91 245.88 216 245.95 218.09 245.95 220.18 245.88 220.18 245.88 222.26 245.45 223.92 244.87 225.22 244.08 226.22 243.07 226.94 242.06 227.52 240.91 227.88 239.76 228.17 238.68 228.17 238.68 228.31 236.59 227.66 234.79 226.44 233.35 224.64 232.13 222.48 231.05 219.96 229.97 217.15 228.96 214.34 227.81 211.46 226.51 208.73 225 206.21 223.13 203.9 220.9 202.1 218.16 200.81 214.92 200.16 211.03 200.23 206.42 200.23 206.42 200.59 203.62 201.09 200.95 201.81 198.5 202.68 196.2 203.83 194.04 205.13 192.17 206.64 190.37 208.44 188.78 210.53 187.41 212.83 186.26 215.42 185.18 218.3 184.39 221.54 183.74 225.07 183.24 228.96 182.95 233.21 182.88 233.21 182.88 235.87 182.88 238.32 182.95 240.55 183.02 242.57 183.09 244.37 183.24 246.02 183.38 247.46 183.53 248.76 183.67 249.98 183.81 250.99 184.03 251.93 184.18 252.79 184.32 253.51 184.46 254.16 184.53 254.81 184.68 255.38 184.75 251.71 201.02"/><polygon class="cls-2" points="268.77 166.97 288.72 166.97 285.77 184.39 297.79 184.39 295.2 200.66 282.53 200.3 275.62 240.48 275.54 241.92 275.9 243.14 276.62 244.08 277.56 244.87 278.86 245.38 280.3 245.81 281.88 246.09 283.61 246.24 285.19 246.17 286.63 246.02 287.93 245.81 289.08 245.52 290.01 245.23 290.66 245.01 291.1 244.87 291.24 244.8 288.72 258.19 288.21 258.55 287.71 258.84 287.21 259.13 286.7 259.42 286.2 259.63 285.62 259.85 284.98 260.06 284.33 260.28 283.61 260.5 282.89 260.64 282.02 260.78 281.16 260.93 280.22 261.07 279.14 261.21 277.99 261.36 276.77 261.5 271.3 261.5 268.42 261.29 265.89 261 263.59 260.57 261.65 260.06 259.99 259.42 258.62 258.69 257.4 257.83 256.46 256.89 255.74 255.89 255.24 254.66 254.88 253.44 254.66 252.07 254.59 250.56 254.59 248.97 254.81 247.32 255.02 245.52 268.77 166.97"/><polyline class="cls-2" points="268.77 166.97 288.72 166.97 285.77 184.39 297.79 184.39 295.2 200.66 282.53 200.3 275.62 240.48 275.62 240.48 275.54 241.92 275.9 243.14 276.62 244.08 277.56 244.87 278.86 245.38 280.3 245.81 281.88 246.09 283.61 246.24 283.61 246.24 285.19 246.17 286.63 246.02 287.93 245.81 289.08 245.52 290.01 245.23 290.66 245.01 291.1 244.87 291.24 244.8 288.72 258.19 288.72 258.19 288.21 258.55 287.71 258.84 287.21 259.13 286.7 259.42 286.2 259.63 285.62 259.85 284.98 260.06 284.33 260.28 283.61 260.5 282.89 260.64 282.02 260.78 281.16 260.93 280.22 261.07 279.14 261.21 277.99 261.36 276.77 261.5 271.3 261.5 271.3 261.5 268.42 261.29 265.89 261 263.59 260.57 261.65 260.06 259.99 259.42 258.62 258.69 257.4 257.83 256.46 256.89 255.74 255.89 255.24 254.66 254.88 253.44 254.66 252.07 254.59 250.56 254.59 248.97 254.81 247.32 255.02 245.52 268.77 166.97"/><polygon class="cls-2" points="313.7 227.81 313.49 229.03 313.42 230.33 313.56 231.69 313.85 233.06 314.35 234.43 314.93 235.73 315.72 237.09 316.58 238.32 317.59 239.54 318.67 240.62 319.82 241.7 321.12 242.57 322.42 243.36 323.86 244.01 325.3 244.51 326.74 244.8 328.61 245.09 330.41 245.3 332.28 245.52 334.15 245.66 336.02 245.74 337.97 245.74 339.84 245.66 341.78 245.52 343.73 245.23 345.67 244.87 347.69 244.44 349.63 243.79 351.65 243 353.74 242.13 355.75 240.98 357.84 239.76 354.96 257.47 353.81 258.05 352.65 258.62 351.5 259.06 350.42 259.49 349.34 259.85 348.19 260.21 347.04 260.5 345.81 260.71 344.52 260.93 343.08 261.07 341.57 261.21 339.91 261.36 338.04 261.43 336.1 261.43 333.86 261.5 331.49 261.5 327.96 261.43 324.36 261.07 320.76 260.57 317.16 259.7 313.63 258.62 310.25 257.25 307.01 255.46 303.98 253.37 301.18 250.92 298.73 247.97 296.64 244.66 294.91 240.84 293.69 236.59 292.89 231.77 292.68 226.44 293.04 220.53 293.33 218.23 293.76 215.57 294.33 212.76 295.13 209.74 296.21 206.64 297.5 203.54 299.16 200.38 301.18 197.35 303.48 194.47 306.29 191.74 309.45 189.29 313.06 187.13 317.23 185.33 321.91 184.03 327.1 183.17 332.93 182.88 335.74 182.95 338.69 183.24 341.64 183.74 344.59 184.46 347.47 185.54 350.28 186.84 352.87 188.57 355.25 190.58 357.41 193.03 359.21 195.91 360.65 199.22 361.65 203.04 362.23 207.36 362.3 212.25 361.8 217.73 360.72 223.78 360.36 228.17 307.87 228.17 311.18 213.98 342.72 213.98 342.86 212.18 342.79 210.46 342.65 208.87 342.36 207.43 341.86 206.06 341.35 204.84 340.63 203.76 339.91 202.75 339.05 201.89 338.11 201.17 337.03 200.52 335.95 199.94 334.8 199.51 333.65 199.22 332.42 199.01 331.13 198.86 329.76 198.94 328.46 199.15 327.24 199.44 326.01 199.87 324.79 200.45 323.71 201.09 322.63 201.89 321.7 202.75 320.76 203.76 319.89 204.84 319.1 205.99 318.45 207.22 317.81 208.51 317.3 209.95 316.87 211.39 316.58 212.9 313.7 227.81"/><polyline class="cls-2" points="313.7 227.81 313.7 227.81 313.49 229.03 313.42 230.33 313.56 231.69 313.85 233.06 314.35 234.43 314.93 235.73 315.72 237.09 316.58 238.32 317.59 239.54 318.67 240.62 319.82 241.7 321.12 242.57 322.42 243.36 323.86 244.01 325.3 244.51 326.74 244.8 326.74 244.8 328.61 245.09 330.41 245.3 332.28 245.52 334.15 245.66 336.02 245.74 337.97 245.74 339.84 245.66 341.78 245.52 343.73 245.23 345.67 244.87 347.69 244.44 349.63 243.79 351.65 243 353.74 242.13 355.75 240.98 357.84 239.76 354.96 257.47 354.96 257.47 353.81 258.05 352.65 258.62 351.5 259.06 350.42 259.49 349.34 259.85 348.19 260.21 347.04 260.5 345.81 260.71 344.52 260.93 343.08 261.07 341.57 261.21 339.91 261.36 338.04 261.43 336.1 261.43 333.86 261.5 331.49 261.5 331.49 261.5 327.96 261.43 324.36 261.07 320.76 260.57 317.16 259.7 313.63 258.62 310.25 257.25 307.01 255.46 303.98 253.37 301.18 250.92 298.73 247.97 296.64 244.66 294.91 240.84 293.69 236.59 292.89 231.77 292.68 226.44 293.04 220.53 293.04 220.53 293.33 218.23 293.76 215.57 294.33 212.76 295.13 209.74 296.21 206.64 297.5 203.54 299.16 200.38 301.18 197.35 303.48 194.47 306.29 191.74 309.45 189.29 313.06 187.13 317.23 185.33 321.91 184.03 327.1 183.17 332.93 182.88 332.93 182.88 335.74 182.95 338.69 183.24 341.64 183.74 344.59 184.46 347.47 185.54 350.28 186.84 352.87 188.57 355.25 190.58 357.41 193.03 359.21 195.91 360.65 199.22 361.65 203.04 362.23 207.36 362.3 212.25 361.8 217.73 360.72 223.78 360.36 228.17 307.87 228.17 311.18 213.98 342.72 213.98 342.72 213.98 342.86 212.18 342.79 210.46 342.65 208.87 342.36 207.43 341.86 206.06 341.35 204.84 340.63 203.76 339.91 202.75 339.05 201.89 338.11 201.17 337.03 200.52 335.95 199.94 334.8 199.51 333.65 199.22 332.42 199.01 331.13 198.86 331.13 198.86 329.76 198.94 328.46 199.15 327.24 199.44 326.01 199.87 324.79 200.45 323.71 201.09 322.63 201.89 321.7 202.75 320.76 203.76 319.89 204.84 319.1 205.99 318.45 207.22 317.81 208.51 317.3 209.95 316.87 211.39 316.58 212.9 313.7 227.81"/><polygon class="cls-2" points="485.42 188.71 484.49 188.21 483.55 187.78 482.54 187.27 481.46 186.77 480.38 186.34 479.16 185.9 477.94 185.47 476.64 185.04 475.27 184.68 473.9 184.39 472.39 184.1 470.88 183.89 469.22 183.74 467.57 183.6 465.84 183.6 464.04 183.6 462.24 183.6 460.37 183.74 458.42 183.96 456.41 184.32 454.39 184.9 452.38 185.69 450.36 186.69 448.34 187.99 446.4 189.57 444.53 191.45 442.73 193.75 441 196.41 439.42 199.58 437.9 203.18 436.54 207.22 435.38 211.82 434.95 214.41 434.66 216.94 434.52 219.46 434.59 221.9 434.81 224.35 435.31 226.66 435.96 228.81 436.75 230.97 437.83 232.92 439.13 234.79 440.64 236.45 442.37 237.96 444.31 239.25 446.54 240.34 448.99 241.27 451.73 241.92 452.66 242.13 453.74 242.35 455.04 242.5 456.48 242.64 458.06 242.78 459.72 242.78 461.52 242.78 463.32 242.64 465.19 242.42 467.06 242.06 468.86 241.56 470.66 240.98 472.46 240.19 474.12 239.25 475.63 238.1 477.07 236.81 473.83 256.03 473.4 256.39 472.97 256.82 472.39 257.33 471.74 257.76 470.95 258.33 469.94 258.84 468.79 259.34 467.5 259.77 465.84 260.28 463.97 260.64 461.81 260.93 459.29 261.21 456.48 261.36 453.24 261.43 449.57 261.36 445.54 261.14 442.22 260.78 438.91 260.06 435.6 258.98 432.29 257.54 429.12 255.81 426.1 253.66 423.21 251.13 420.55 248.25 418.18 245.01 416.16 241.41 414.43 237.38 413.13 232.99 412.27 228.17 411.98 223.06 412.13 217.44 412.92 211.46 413.5 208.51 414.14 205.63 414.86 202.82 415.58 200.16 416.38 197.64 417.31 195.12 418.25 192.74 419.25 190.51 420.33 188.28 421.42 186.19 422.64 184.18 423.94 182.3 425.23 180.5 426.67 178.78 428.11 177.19 429.62 175.68 431.28 174.24 432.94 172.87 434.66 171.65 436.46 170.5 438.41 169.41 440.35 168.48 442.37 167.62 444.45 166.82 446.69 166.1 448.92 165.53 451.22 165.02 453.67 164.59 456.12 164.23 458.71 163.94 461.3 163.8 464.04 163.73 466.34 163.8 468.57 163.94 470.74 164.16 472.89 164.45 474.91 164.74 476.86 165.17 478.73 165.53 480.45 165.96 482.11 166.39 483.55 166.82 484.92 167.25 486.07 167.69 487.08 168.05 487.94 168.34 488.59 168.62 489.02 168.77 485.42 188.71"/><polyline class="cls-2" points="485.42 188.71 485.42 188.71 484.49 188.21 483.55 187.78 482.54 187.27 481.46 186.77 480.38 186.34 479.16 185.9 477.94 185.47 476.64 185.04 475.27 184.68 473.9 184.39 472.39 184.1 470.88 183.89 469.22 183.74 467.57 183.6 465.84 183.6 464.04 183.6 464.04 183.6 462.24 183.6 460.37 183.74 458.42 183.96 456.41 184.32 454.39 184.9 452.38 185.69 450.36 186.69 448.34 187.99 446.4 189.57 444.53 191.45 442.73 193.75 441 196.41 439.42 199.58 437.9 203.18 436.54 207.22 435.38 211.82 435.38 211.82 434.95 214.41 434.66 216.94 434.52 219.46 434.59 221.9 434.81 224.35 435.31 226.66 435.96 228.81 436.75 230.97 437.83 232.92 439.13 234.79 440.64 236.45 442.37 237.96 444.31 239.25 446.54 240.34 448.99 241.27 451.73 241.92 451.73 241.92 452.66 242.13 453.74 242.35 455.04 242.5 456.48 242.64 458.06 242.78 459.72 242.78 461.52 242.78 463.32 242.64 465.19 242.42 467.06 242.06 468.86 241.56 470.66 240.98 472.46 240.19 474.12 239.25 475.63 238.1 477.07 236.81 473.83 256.03 473.83 256.03 473.4 256.39 472.97 256.82 472.39 257.33 471.74 257.76 470.95 258.33 469.94 258.84 468.79 259.34 467.5 259.77 465.84 260.28 463.97 260.64 461.81 260.93 459.29 261.21 456.48 261.36 453.24 261.43 449.57 261.36 445.54 261.14 445.54 261.14 442.22 260.78 438.91 260.06 435.6 258.98 432.29 257.54 429.12 255.81 426.1 253.66 423.21 251.13 420.55 248.25 418.18 245.01 416.16 241.41 414.43 237.38 413.13 232.99 412.27 228.17 411.98 223.06 412.13 217.44 412.92 211.46 412.92 211.46 413.5 208.51 414.14 205.63 414.86 202.82 415.58 200.16 416.38 197.64 417.31 195.12 418.25 192.74 419.25 190.51 420.33 188.28 421.42 186.19 422.64 184.18 423.94 182.3 425.23 180.5 426.67 178.78 428.11 177.19 429.62 175.68 431.28 174.24 432.94 172.87 434.66 171.65 436.46 170.5 438.41 169.41 440.35 168.48 442.37 167.62 444.45 166.82 446.69 166.1 448.92 165.53 451.22 165.02 453.67 164.59 456.12 164.23 458.71 163.94 461.3 163.8 464.04 163.73 464.04 163.73 466.34 163.8 468.57 163.94 470.74 164.16 472.89 164.45 474.91 164.74 476.86 165.17 478.73 165.53 480.45 165.96 482.11 166.39 483.55 166.82 484.92 167.25 486.07 167.69 487.08 168.05 487.94 168.34 488.59 168.62 489.02 168.77 485.42 188.71"/><polygon class="cls-2" points="662.69 261.5 642.74 261.5 644.18 253.51 644.18 252.79 643.03 254.23 641.81 255.53 640.58 256.68 639.29 257.69 637.99 258.62 636.7 259.42 635.4 260.06 634.03 260.71 632.66 261.21 631.29 261.57 629.93 261.94 628.49 262.15 627.05 262.37 625.68 262.51 624.24 262.58 622.8 262.58 619.05 262.3 615.6 261.5 612.43 260.28 609.55 258.62 606.96 256.54 604.65 254.09 602.64 251.42 600.91 248.4 599.47 245.16 598.32 241.78 597.53 238.25 596.95 234.57 596.74 230.9 596.81 227.16 597.17 223.49 597.82 219.81 598.89 215.57 600.19 211.53 601.7 207.86 603.5 204.41 605.38 201.17 607.53 198.29 609.77 195.69 612.14 193.32 614.66 191.23 617.33 189.43 620.06 187.85 622.8 186.62 625.68 185.62 628.56 184.97 631.44 184.53 634.39 184.39 636.48 184.46 638.5 184.68 640.37 185.04 642.1 185.54 643.75 186.12 645.19 186.77 646.63 187.56 647.93 188.35 649.08 189.22 650.16 190.15 651.1 191.09 651.96 192.02 652.68 192.96 653.33 193.9 653.9 194.76 654.34 195.62 654.34 195.62 659.38 167.33 678.96 167.33 662.69 261.5"/><polyline class="cls-2" points="662.69 261.5 642.74 261.5 644.18 253.51 644.18 252.79 644.18 252.79 643.03 254.23 641.81 255.53 640.58 256.68 639.29 257.69 637.99 258.62 636.7 259.42 635.4 260.06 634.03 260.71 632.66 261.21 631.29 261.57 629.93 261.94 628.49 262.15 627.05 262.37 625.68 262.51 624.24 262.58 622.8 262.58 622.8 262.58 619.05 262.3 615.6 261.5 612.43 260.28 609.55 258.62 606.96 256.54 604.65 254.09 602.64 251.42 600.91 248.4 599.47 245.16 598.32 241.78 597.53 238.25 596.95 234.57 596.74 230.9 596.81 227.16 597.17 223.49 597.82 219.81 597.82 219.81 598.89 215.57 600.19 211.53 601.7 207.86 603.5 204.41 605.38 201.17 607.53 198.29 609.77 195.69 612.14 193.32 614.66 191.23 617.33 189.43 620.06 187.85 622.8 186.62 625.68 185.62 628.56 184.97 631.44 184.53 634.39 184.39 634.39 184.39 636.48 184.46 638.5 184.68 640.37 185.04 642.1 185.54 643.75 186.12 645.19 186.77 646.63 187.56 647.93 188.35 649.08 189.22 650.16 190.15 651.1 191.09 651.96 192.02 652.68 192.96 653.33 193.9 653.9 194.76 654.34 195.62 654.34 195.62 659.38 167.33 678.96 167.33 662.69 261.5"/><polygon class="cls-1" points="630.07 244.08 632.09 243.94 633.96 243.5 635.69 243 637.34 242.21 638.86 241.34 640.29 240.26 641.66 239.04 642.89 237.74 643.97 236.3 644.98 234.72 645.91 233.06 646.7 231.34 647.42 229.53 648 227.66 648.5 225.72 648.86 223.78 649.22 221.76 649.44 219.67 649.44 217.73 649.37 215.71 649.15 213.84 648.86 212.04 648.36 210.31 647.78 208.66 647.06 207.22 646.2 205.85 645.26 204.69 644.18 203.69 642.96 202.82 641.66 202.25 640.29 201.89 638.78 201.74 636.84 201.89 635.04 202.18 633.38 202.75 631.73 203.47 630.29 204.41 628.85 205.56 627.62 206.78 626.4 208.15 625.32 209.74 624.31 211.39 623.38 213.12 622.58 214.99 621.86 216.94 621.29 218.88 620.71 220.97 620.28 223.06 619.92 226.22 620.06 229.68 620.57 233.21 621.5 236.59 622.94 239.54 624.82 241.92 627.19 243.5 630.07 244.08"/><polygon class="cls-2" points="187.92 245.52 185.04 261.5 166.9 261.5 167.4 258.55 167.76 255.89 168.05 253.87 168.34 252.79 167.33 253.94 166.18 255.09 164.81 256.18 163.3 257.18 161.57 258.19 159.77 259.06 157.9 259.92 155.95 260.64 153.86 261.29 151.78 261.79 149.69 262.22 147.53 262.51 145.44 262.65 143.35 262.73 141.34 262.51 139.39 262.22 136.87 261.57 134.57 260.86 132.55 259.92 130.75 258.84 129.17 257.69 127.73 256.39 126.58 255.02 125.57 253.58 124.7 252.07 123.98 250.49 123.41 248.9 122.97 247.32 122.69 245.66 122.47 244.01 122.33 242.42 122.33 240.84 122.54 238.03 122.97 235.37 123.69 232.85 124.63 230.4 125.78 228.09 127.08 226.01 128.59 223.99 130.32 222.19 132.12 220.53 134.14 219.02 136.22 217.66 138.38 216.5 140.69 215.5 143.06 214.7 145.51 214.06 148.03 213.62 148.18 213.62 148.53 213.55 149.04 213.48 149.83 213.41 150.69 213.26 151.7 213.19 152.78 213.05 154.01 212.9 155.23 212.76 156.46 212.62 157.75 212.54 158.9 212.4 160.06 212.33 161.13 212.25 162.14 212.18 162.94 212.18 164.59 212.18 166.32 212.25 167.9 212.33 169.49 212.33 170.78 212.4 171.79 212.47 172.51 212.54 172.73 212.54 172.87 212.04 173.3 210.74 173.66 209.23 173.81 207.86 173.52 206.28 172.87 204.84 172.01 203.54 170.85 202.46 169.49 201.53 167.97 200.88 166.25 200.45 164.38 200.3 162.36 200.23 160.2 200.16 157.97 200.16 155.66 200.23 153.29 200.38 150.98 200.59 148.68 200.81 146.45 201.09 144.29 201.38 142.2 201.74 140.33 202.1 138.6 202.46 137.01 202.9 135.72 203.33 134.71 203.83 133.92 204.26 139.03 186.91 140.62 186.26 142.2 185.69 143.93 185.18 145.66 184.82 147.38 184.46 149.25 184.18 151.13 183.89 153.07 183.74 155.09 183.6 157.18 183.53 159.34 183.46 161.57 183.46 163.87 183.46 166.25 183.46 168.77 183.53 171.29 183.6 173.3 183.74 175.46 184.1 177.69 184.61 180 185.25 182.23 186.12 184.39 187.13 186.55 188.35 188.57 189.72 190.37 191.3 191.95 193.03 193.39 194.97 194.47 197.13 195.19 199.44 195.62 201.89 195.62 204.62 195.19 207.5 187.92 245.52"/><polyline class="cls-2" points="187.92 245.52 185.04 261.5 166.9 261.5 166.9 261.5 167.4 258.55 167.76 255.89 168.05 253.87 168.34 252.79 168.34 252.79 167.33 253.94 166.18 255.09 164.81 256.18 163.3 257.18 161.57 258.19 159.77 259.06 157.9 259.92 155.95 260.64 153.86 261.29 151.78 261.79 149.69 262.22 147.53 262.51 145.44 262.65 143.35 262.73 141.34 262.51 139.39 262.22 139.39 262.22 136.87 261.57 134.57 260.86 132.55 259.92 130.75 258.84 129.17 257.69 127.73 256.39 126.58 255.02 125.57 253.58 124.7 252.07 123.98 250.49 123.41 248.9 122.97 247.32 122.69 245.66 122.47 244.01 122.33 242.42 122.33 240.84 122.33 240.84 122.54 238.03 122.97 235.37 123.69 232.85 124.63 230.4 125.78 228.09 127.08 226.01 128.59 223.99 130.32 222.19 132.12 220.53 134.14 219.02 136.22 217.66 138.38 216.5 140.69 215.5 143.06 214.7 145.51 214.06 148.03 213.62 148.03 213.62 148.18 213.62 148.53 213.55 149.04 213.48 149.83 213.41 150.69 213.26 151.7 213.19 152.78 213.05 154.01 212.9 155.23 212.76 156.46 212.62 157.75 212.54 158.9 212.4 160.06 212.33 161.13 212.25 162.14 212.18 162.94 212.18 162.94 212.18 164.59 212.18 166.32 212.25 167.9 212.33 169.49 212.33 170.78 212.4 171.79 212.47 172.51 212.54 172.73 212.54 172.73 212.54 172.87 212.04 173.3 210.74 173.66 209.23 173.81 207.86 173.81 207.86 173.52 206.28 172.87 204.84 172.01 203.54 170.85 202.46 169.49 201.53 167.97 200.88 166.25 200.45 164.38 200.3 164.38 200.3 162.36 200.23 160.2 200.16 157.97 200.16 155.66 200.23 153.29 200.38 150.98 200.59 148.68 200.81 146.45 201.09 144.29 201.38 142.2 201.74 140.33 202.1 138.6 202.46 137.01 202.9 135.72 203.33 134.71 203.83 133.92 204.26 139.03 186.91 139.03 186.91 140.62 186.26 142.2 185.69 143.93 185.18 145.66 184.82 147.38 184.46 149.25 184.18 151.13 183.89 153.07 183.74 155.09 183.6 157.18 183.53 159.34 183.46 161.57 183.46 163.87 183.46 166.25 183.46 168.77 183.53 171.29 183.6 171.29 183.6 173.3 183.74 175.46 184.1 177.69 184.61 180 185.25 182.23 186.12 184.39 187.13 186.55 188.35 188.57 189.72 190.37 191.3 191.95 193.03 193.39 194.97 194.47 197.13 195.19 199.44 195.62 201.89 195.62 204.62 195.19 207.5 187.92 245.52"/><polygon class="cls-1" points="170.57 226.73 170.5 226.37 170.21 226.01 169.78 225.79 169.06 225.65 168.26 225.5 167.33 225.43 166.25 225.43 165.17 225.43 164.01 225.5 162.79 225.65 161.64 225.79 160.49 225.94 159.41 226.08 158.4 226.29 157.53 226.51 156.74 226.73 156.24 226.87 155.66 227.09 154.87 227.38 154.08 227.74 153.14 228.17 152.21 228.67 151.2 229.18 150.26 229.75 149.25 230.47 148.32 231.19 147.46 232.06 146.66 232.92 145.94 233.85 145.44 234.86 145.01 236.01 144.79 237.17 144.72 239.62 145.08 241.56 145.8 243 146.74 244.08 147.81 244.8 149.04 245.23 150.19 245.45 151.34 245.52 153.5 245.45 155.45 245.23 157.32 244.94 158.97 244.51 160.41 244.01 161.78 243.36 163.01 242.71 164.09 241.92 165.02 241.2 165.89 240.34 166.61 239.54 167.18 238.68 167.69 237.81 168.12 236.95 168.48 236.16 168.69 235.37 169.27 233.28 169.78 230.9 170.21 228.6 170.57 226.73"/><polygon class="cls-2" points="36.43 261.5 16.85 261.5 33.19 166.97 67.25 166.97 70.49 223.06 94.03 166.97 129.6 166.97 112.89 261.5 93.31 261.5 105.69 190.87 104.9 190.87 75.6 261.5 53.49 261.5 53.35 258.55 52.85 250.7 52.2 239.54 51.48 226.73 50.76 213.84 50.11 202.53 49.61 194.33 49.46 190.87 49.25 190.87 48.81 190.87 48.38 190.87 48.38 190.87 36.43 261.5"/><polyline class="cls-2" points="36.43 261.5 16.85 261.5 33.19 166.97 67.25 166.97 70.49 223.06 94.03 166.97 129.6 166.97 112.89 261.5 93.31 261.5 105.69 190.87 104.9 190.87 75.6 261.5 53.49 261.5 53.49 261.5 53.35 258.55 52.85 250.7 52.2 239.54 51.48 226.73 50.76 213.84 50.11 202.53 49.61 194.33 49.46 190.87 49.46 190.87 49.25 190.87 48.81 190.87 48.38 190.87 48.38 190.87 36.43 261.5"/><polygon class="cls-2" points="545.26 245.52 542.3 261.5 524.23 261.5 524.38 258.55 524.45 255.96 524.45 254.01 524.59 253.15 523.65 254.23 522.58 255.31 521.28 256.32 519.84 257.33 518.33 258.26 516.6 259.13 514.8 259.99 513 260.71 511.06 261.29 509.04 261.86 507.02 262.22 505.01 262.51 502.92 262.65 500.9 262.73 498.96 262.51 497.01 262.22 494.42 261.57 492.12 260.86 490.1 259.92 488.23 258.84 486.65 257.69 485.28 256.39 484.13 255.02 483.12 253.58 482.25 252.07 481.61 250.49 481.03 248.9 480.67 247.32 480.38 245.66 480.17 244.01 480.02 242.42 480.02 240.84 480.17 238.03 480.6 235.37 481.25 232.85 482.18 230.4 483.26 228.09 484.63 226.01 486.14 223.99 487.8 222.19 489.67 220.53 491.62 219.02 493.7 217.66 495.94 216.5 498.17 215.5 500.54 214.7 502.92 214.06 505.37 213.62 505.51 213.62 505.87 213.55 506.38 213.48 507.1 213.41 508.03 213.26 509.04 213.19 510.12 213.05 511.27 212.9 512.5 212.76 513.79 212.62 515.01 212.54 516.24 212.4 517.39 212.33 518.4 212.25 519.41 212.18 520.2 212.18 521.93 212.18 523.65 212.25 525.31 212.33 526.89 212.33 528.26 212.4 529.41 212.47 530.06 212.54 530.35 212.54 530.5 212.04 530.71 210.74 530.93 209.23 531.07 207.86 530.78 206.28 530.21 204.84 529.27 203.54 528.19 202.46 526.89 201.53 525.38 200.88 523.8 200.45 522.07 200.3 520.05 200.23 517.89 200.16 515.66 200.16 513.36 200.23 510.98 200.38 508.68 200.59 506.38 200.81 504.14 201.09 501.98 201.38 499.89 201.74 498.02 202.1 496.3 202.46 494.71 202.9 493.42 203.33 492.41 203.83 491.62 204.26 496.65 186.91 498.24 186.26 499.89 185.69 501.55 185.18 503.28 184.82 505.08 184.46 506.88 184.18 508.75 183.89 510.7 183.74 512.71 183.6 514.8 183.53 516.89 183.46 519.12 183.46 521.35 183.46 523.65 183.46 526.1 183.53 528.55 183.6 530.57 183.74 532.73 184.1 534.96 184.61 537.26 185.25 539.5 186.12 541.73 187.13 543.89 188.35 545.9 189.72 547.7 191.3 549.36 193.03 550.8 194.97 551.88 197.13 552.67 199.44 553.17 201.89 553.17 204.62 552.82 207.5 545.26 245.52"/><polygon class="cls-2" points="542.3 262.01 542.74 261.57 545.69 245.59 544.82 245.45 541.87 261.43 542.3 261 542.3 262.01 542.66 261.94 542.74 261.57 542.3 262.01"/><polygon class="cls-2" points="523.8 261.5 524.23 262.01 542.3 262.01 542.3 261 524.23 261 524.66 261.5 523.8 261.5 523.73 262.01 524.23 262.01 523.8 261.5"/><polygon class="cls-2" points="524.95 253.44 524.3 252.86 524.01 254.01 523.94 255.96 523.94 258.55 523.8 261.5 524.66 261.5 524.81 258.55 524.95 255.96 524.88 254.01 524.88 253.44 524.23 252.86 524.95 253.44"/><polygon class="cls-2" points="496.94 262.65 496.94 262.65 498.96 262.94 500.9 263.16 502.92 263.09 505.01 262.94 507.1 262.65 509.11 262.3 511.13 261.72 513.14 261.14 514.94 260.42 516.82 259.56 518.54 258.69 520.05 257.69 521.57 256.68 522.86 255.67 524.01 254.52 524.95 253.44 524.23 252.86 523.29 253.94 522.29 254.95 520.99 255.96 519.62 256.97 518.11 257.83 516.38 258.69 514.65 259.56 512.86 260.28 510.98 260.86 508.97 261.43 506.95 261.79 505.01 262.08 502.92 262.22 500.9 262.3 498.96 262.08 497.09 261.79 497.09 261.79 496.94 262.65"/><polygon class="cls-2" points="479.52 240.84 479.52 240.84 479.59 242.42 479.74 244.01 479.95 245.74 480.24 247.39 480.6 248.97 481.18 250.63 481.82 252.29 482.76 253.8 483.77 255.31 484.92 256.68 486.36 258.05 488.01 259.2 489.89 260.35 491.98 261.29 494.35 262.01 496.94 262.65 497.09 261.79 494.5 261.14 492.26 260.42 490.32 259.49 488.45 258.48 486.94 257.33 485.64 256.1 484.49 254.74 483.48 253.37 482.69 251.85 482.04 250.34 481.46 248.83 481.1 247.25 480.81 245.59 480.6 244.01 480.45 242.42 480.53 240.84 480.53 240.84 479.52 240.84"/><polygon class="cls-2" points="505.37 213.19 505.37 213.19 502.85 213.62 500.4 214.27 498.02 215.06 495.72 216.07 493.49 217.22 491.33 218.66 489.38 220.18 487.51 221.9 485.78 223.7 484.27 225.72 482.83 227.88 481.75 230.25 480.81 232.7 480.17 235.29 479.74 238.03 479.52 240.84 480.53 240.84 480.6 238.03 481.03 235.44 481.68 232.99 482.62 230.54 483.7 228.31 484.99 226.29 486.5 224.28 488.09 222.48 489.96 220.9 491.9 219.38 493.92 218.09 496.15 216.94 498.31 215.93 500.69 215.13 502.99 214.49 505.37 214.06 505.37 214.06 505.37 213.19"/><polygon class="cls-2" points="520.2 211.68 520.2 211.68 519.41 211.68 518.4 211.82 517.39 211.9 516.24 211.97 515.01 212.11 513.79 212.18 512.5 212.33 511.27 212.47 510.12 212.62 509.04 212.76 508.03 212.83 507.1 212.97 506.38 213.05 505.8 213.12 505.51 213.19 505.37 213.19 505.37 214.06 505.51 214.06 505.94 213.98 506.38 213.91 507.1 213.84 508.03 213.69 509.04 213.62 510.12 213.48 511.27 213.34 512.5 213.19 513.79 213.05 515.01 212.97 516.24 212.83 517.39 212.76 518.4 212.69 519.41 212.69 520.2 212.69 520.2 212.69 520.2 211.68"/><polygon class="cls-2" points="529.92 212.47 530.35 212.11 530.06 212.11 529.41 212.04 528.26 211.97 526.89 211.82 525.31 211.82 523.65 211.82 521.93 211.68 520.2 211.68 520.2 212.69 521.93 212.69 523.65 212.69 525.31 212.83 526.89 212.83 528.26 212.83 529.41 212.9 530.06 212.97 530.35 212.97 530.78 212.62 530.35 212.97 530.71 213.05 530.78 212.62 529.92 212.47"/><polygon class="cls-2" points="530.64 207.86 530.57 207.86 530.5 209.23 530.28 210.67 530.06 211.97 529.92 212.47 530.78 212.62 530.93 212.11 531.14 210.81 531.36 209.23 531.58 207.86 531.5 207.86 530.64 207.86"/><polygon class="cls-2" points="522.07 200.74 522.07 200.81 523.73 200.88 525.24 201.31 526.68 201.96 527.9 202.82 528.91 203.83 529.77 205.06 530.35 206.35 530.64 207.86 531.5 207.86 531.22 206.21 530.64 204.62 529.63 203.25 528.48 202.1 527.11 201.09 525.53 200.45 523.87 200.01 522.07 199.8 522.07 199.87 522.07 200.74"/><polygon class="cls-2" points="491.18 204.19 491.9 204.62 492.62 204.26 493.56 203.76 494.78 203.33 496.37 202.9 498.1 202.53 499.97 202.18 502.06 201.81 504.14 201.53 506.38 201.24 508.68 201.02 510.98 200.81 513.36 200.66 515.66 200.66 517.89 200.66 520.05 200.66 522.07 200.74 522.07 199.87 520.05 199.8 517.89 199.66 515.66 199.66 513.36 199.8 510.98 199.94 508.68 200.16 506.38 200.38 504.14 200.66 501.91 200.95 499.82 201.31 497.95 201.67 496.22 202.03 494.64 202.46 493.27 202.9 492.19 203.4 491.33 203.9 492.05 204.34 491.18 204.19"/><polygon class="cls-2" points="496.51 186.48 496.22 186.84 491.18 204.19 492.05 204.34 497.09 186.98 496.8 187.34 496.51 186.48 496.3 186.55 496.22 186.84 496.51 186.48"/><polygon class="cls-2" points="528.55 183.17 528.55 183.17 526.1 183.02 523.65 182.95 521.35 182.95 519.12 182.95 516.89 182.95 514.8 183.09 512.71 183.17 510.7 183.31 508.75 183.46 506.81 183.74 505.01 184.03 503.21 184.39 501.48 184.75 499.75 185.25 498.1 185.83 496.51 186.48 496.8 187.34 498.38 186.69 500.04 186.12 501.62 185.62 503.35 185.25 505.15 184.9 506.95 184.61 508.75 184.32 510.7 184.18 512.71 184.03 514.8 183.96 516.89 183.96 519.12 183.96 521.35 183.96 523.65 183.96 526.1 184.03 528.55 184.03 528.55 184.03 528.55 183.17"/><polygon class="cls-2" points="553.25 207.57 553.25 207.57 553.61 204.62 553.61 201.89 553.1 199.37 552.31 196.99 551.16 194.76 549.72 192.74 547.99 190.94 546.19 189.36 544.1 187.99 541.94 186.69 539.64 185.69 537.41 184.82 535.03 184.18 532.8 183.67 530.57 183.31 528.55 183.17 528.55 184.03 530.57 184.18 532.65 184.53 534.89 185.04 537.12 185.69 539.35 186.55 541.51 187.56 543.67 188.71 545.62 190.08 547.41 191.66 549 193.32 550.44 195.19 551.45 197.28 552.24 199.51 552.74 201.89 552.74 204.62 552.38 207.43 552.38 207.43 553.25 207.57"/><polygon class="cls-2" points="545.69 245.59 545.69 245.59 553.25 207.57 552.38 207.43 544.82 245.45 544.82 245.45 545.69 245.59"/><polygon class="cls-1" points="527.83 226.73 527.69 226.29 527.4 225.94 526.89 225.72 526.17 225.5 525.38 225.43 524.45 225.36 523.37 225.36 522.29 225.43 521.14 225.57 519.98 225.72 518.83 225.86 517.75 226.01 516.67 226.22 515.74 226.37 514.8 226.58 514.08 226.73 513.58 226.8 513 227.01 512.28 227.23 511.49 227.52 510.55 227.95 509.69 228.38 508.68 228.89 507.74 229.53 506.81 230.18 505.87 230.97 505.08 231.77 504.29 232.7 503.64 233.71 503.13 234.79 502.7 235.94 502.49 237.17 502.42 239.62 502.77 241.56 503.35 243 504.21 244.08 505.3 244.8 506.52 245.23 507.74 245.45 508.97 245.52 511.13 245.45 513.14 245.23 515.01 244.87 516.67 244.37 518.26 243.79 519.62 243.14 520.92 242.42 522.07 241.56 523.08 240.77 523.94 239.83 524.74 238.97 525.38 238.03 525.89 237.17 526.25 236.3 526.53 235.44 526.75 234.65 527.04 232.63 527.4 230.54 527.69 228.53 527.83 226.73"/><polygon class="cls-1" points="676.15 251.64 676.29 249.98 676.87 248.04 677.88 246.31 679.1 244.8 680.62 243.57 682.34 242.71 684.22 242.13 686.23 241.92 688.25 242.13 690.12 242.71 691.85 243.57 693.36 244.8 694.58 246.31 695.59 248.04 696.17 249.98 696.31 251.64 694.15 251.64 694.08 250.34 693.65 248.76 692.93 247.32 691.99 246.09 690.84 245.09 689.47 244.37 687.89 243.86 686.23 243.72 684.58 243.86 682.99 244.37 681.62 245.09 680.47 246.09 679.53 247.32 678.82 248.76 678.38 250.34 678.24 251.64 676.15 251.64"/><polygon class="cls-1" points="682.63 251.64 682.63 247.32 686.59 247.32 687.46 247.39 688.25 247.53 688.82 247.75 689.33 248.04 689.69 248.47 689.98 248.9 690.12 249.41 690.19 249.91 690.12 250.56 689.98 251.06 689.76 251.5 689.62 251.64 686.59 251.64 686.88 251.57 687.38 251.5 687.82 251.35 688.17 251.21 688.46 250.99 688.61 250.78 688.75 250.41 688.75 249.91 688.68 249.55 688.53 249.26 688.32 249.12 688.1 248.97 687.74 248.9 687.38 248.83 687.02 248.83 686.59 248.83 684.43 248.83 684.43 251.64 682.63 251.64"/><polygon class="cls-1" points="676.15 251.64 676.08 252.07 676.29 254.16 676.87 256.1 677.88 257.83 679.1 259.27 680.62 260.5 682.34 261.43 684.22 262.01 686.23 262.22 688.25 262.01 690.12 261.43 691.85 260.5 693.36 259.27 694.58 257.83 695.59 256.1 696.17 254.16 696.38 252.07 696.31 251.64 694.15 251.64 694.22 252.07 694.08 253.8 693.65 255.38 692.93 256.75 691.99 257.97 690.84 258.98 689.47 259.77 687.89 260.28 686.23 260.42 684.58 260.28 682.99 259.77 681.62 258.98 680.47 257.97 679.53 256.75 678.82 255.38 678.38 253.8 678.24 252.07 678.24 251.64 676.15 251.64"/><polygon class="cls-1" points="682.63 251.64 682.63 256.03 684.43 256.03 684.43 252.43 686.23 252.43 688.39 256.03 689.83 256.03 687.67 252.43 688.17 252.43 688.68 252.29 689.11 252.14 689.47 251.85 689.62 251.64 686.59 251.64 686.23 251.71 684.43 251.71 684.43 251.64 682.63 251.64"/><polyline class="cls-3" points="684.43 256.03 682.63 256.03 682.63 247.32 686.59 247.32 686.59 247.32 687.46 247.39 688.25 247.53 688.82 247.75 689.33 248.04 689.69 248.47 689.98 248.9 690.12 249.41 690.19 249.91 690.19 249.91 690.12 250.56 689.98 251.06 689.76 251.5 689.47 251.85 689.11 252.14 688.68 252.29 688.17 252.43 687.67 252.43 689.83 256.03 688.39 256.03 686.23 252.43 684.43 252.43 684.43 256.03"/><polygon class="cls-2" points="550.65 261.5 570.96 261.5 570.96 261.5 578.23 220.53 578.52 218.95 578.95 217.37 579.38 215.78 579.96 214.2 580.68 212.62 581.54 211.1 582.48 209.66 583.63 208.29 584.93 207.07 586.37 205.92 588.02 204.84 589.89 203.97 591.98 203.25 594.29 202.68 596.81 202.25 599.62 202.1 600.62 202.1 601.2 202.1 601.41 202.1 601.41 202.1 604.65 183.6 602.64 183.74 600.7 183.96 598.89 184.32 597.17 184.82 595.58 185.4 594.07 186.12 592.63 186.91 591.26 187.78 589.97 188.78 588.74 189.79 587.59 190.94 586.44 192.09 585.36 193.32 584.28 194.69 583.2 195.98 582.19 197.42 584.35 184.39 564.12 184.39 550.65 261.5 550.65 261.5"/><polyline class="cls-2" points="550.65 261.5 570.96 261.5 570.96 261.5 578.23 220.53 578.23 220.53 578.52 218.95 578.95 217.37 579.38 215.78 579.96 214.2 580.68 212.62 581.54 211.1 582.48 209.66 583.63 208.29 584.93 207.07 586.37 205.92 588.02 204.84 589.89 203.97 591.98 203.25 594.29 202.68 596.81 202.25 599.62 202.1 599.62 202.1 600.62 202.1 601.2 202.1 601.41 202.1 601.41 202.1 604.65 183.6 604.65 183.6 602.64 183.74 600.7 183.96 598.89 184.32 597.17 184.82 595.58 185.4 594.07 186.12 592.63 186.91 591.26 187.78 589.97 188.78 588.74 189.79 587.59 190.94 586.44 192.09 585.36 193.32 584.28 194.69 583.2 195.98 582.19 197.42 584.35 184.39 564.12 184.39 550.65 261.5 550.65 261.5"/><polygon class="cls-2" points="360 261.5 380.3 261.5 380.66 261.5 387.57 220.53 387.86 218.95 388.22 217.44 388.58 215.93 389.09 214.49 389.66 213.05 390.38 211.68 391.25 210.38 392.25 209.16 393.41 208.08 394.7 207 396.29 206.13 398.01 205.34 400.03 204.69 402.26 204.12 404.71 203.76 407.52 203.54 407.74 203.54 408.02 203.62 408.38 203.69 408.74 203.69 409.1 203.76 409.39 203.83 409.61 203.9 409.68 203.9 409.75 203.62 409.97 202.75 410.25 201.46 410.62 199.87 411.12 198 411.62 195.98 412.27 193.97 412.92 191.95 413.5 190.58 414.21 189.22 414.94 187.85 415.65 186.62 416.3 185.54 416.81 184.68 417.17 184.18 417.31 183.96 417.24 183.96 416.95 183.89 416.59 183.81 416.09 183.74 415.58 183.74 415.01 183.67 414.5 183.6 414 183.6 411.77 183.74 409.75 183.96 407.88 184.32 406.15 184.75 404.5 185.33 402.98 186.05 401.62 186.77 400.32 187.63 399.1 188.57 397.94 189.65 396.86 190.73 395.78 191.95 394.7 193.18 393.7 194.54 392.62 195.98 391.54 197.42 394.13 184.39 373.46 184.39 360 261.5 360 261.5"/><polyline class="cls-2" points="360 261.5 380.3 261.5 380.66 261.5 387.57 220.53 387.57 220.53 387.86 218.95 388.22 217.44 388.58 215.93 389.09 214.49 389.66 213.05 390.38 211.68 391.25 210.38 392.25 209.16 393.41 208.08 394.7 207 396.29 206.13 398.01 205.34 400.03 204.69 402.26 204.12 404.71 203.76 407.52 203.54 407.52 203.54 407.74 203.54 408.02 203.62 408.38 203.69 408.74 203.69 409.1 203.76 409.39 203.83 409.61 203.9 409.68 203.9 409.68 203.9 409.75 203.62 409.97 202.75 410.25 201.46 410.62 199.87 411.12 198 411.62 195.98 412.27 193.97 412.92 191.95 412.92 191.95 413.5 190.58 414.21 189.22 414.94 187.85 415.65 186.62 416.3 185.54 416.81 184.68 417.17 184.18 417.31 183.96 417.31 183.96 417.24 183.96 416.95 183.89 416.59 183.81 416.09 183.74 415.58 183.74 415.01 183.67 414.5 183.6 414 183.6 414 183.6 411.77 183.74 409.75 183.96 407.88 184.32 406.15 184.75 404.5 185.33 402.98 186.05 401.62 186.77 400.32 187.63 399.1 188.57 397.94 189.65 396.86 190.73 395.78 191.95 394.7 193.18 393.7 194.54 392.62 195.98 391.54 197.42 394.13 184.39 373.46 184.39 360 261.5 360 261.5"/></svg>