<svg id="Capa_1" data-name="Capa 1" xmlns="http://www.w3.org/2000/svg" viewBox="0 0 177.81 175.35"><title>no-food</title><path d="M13.46,1.12c-1.51,1.49-2.41,3.65.74,16.65C16.1,25.56,30.86,69,35.89,81.45c10.24,25.37,16.79,24.54,20.54,25a7.35,7.35,0,0,0,5.16-1.25c4.2-2.86,5.6-3.7,7.22-4.67l1.94-1.17c4.54,7.43,10.14,19,15.58,30.16,7.32,15.07,14.88,30.65,20.93,38.71,3.85,5.13,8,6.63,10.82,7,5.38,0.69,10.95-2.19,14.18-7.35s3.39-11.44.29-16.19C126.14,141.92,32.62,18.78,18.6,1.88,16.65-.47,14.33.27,13.46,1.12ZM126.53,164.31c-1.84,2.93-4.82,4.6-7.6,4.24-2.18-.28-4.35-1.79-6.28-4.35-5.66-7.54-13.08-22.83-20.26-37.61-6.56-13.5-12.75-26.26-17.82-33.75a3.37,3.37,0,0,0-4.63-.94c-2.27,1.46-7.79,4.76-12.16,7.74a0.61,0.61,0,0,1-.49.13c-2.31,1.2-2.46-.56-6.37-5.86-6.29-8.54-24.06-58.72-29.2-75.2-2-6.39.13-2.87,1.69-.86,16.89,21.72,97.26,128,103.47,137.55C128.85,158.42,128,162,126.53,164.31Z"/><path d="M176.85,34.43a3.37,3.37,0,0,0-4.77-.07c-8.62,8.36-16.65,16.51-23.11,23.06L144.45,62l-6.37-6.37L165,29.53a3.38,3.38,0,0,0-4.7-4.84l-27,26.17-6-6,27.06-26.25a3.37,3.37,0,1,0-4.7-4.84L122.55,40.09l-5.84-5.84L146,5.8A3.37,3.37,0,0,0,141.33,1L107.59,33.69c-8.62,8.37-8,20.65,1.44,32L89.84,84.57a3.37,3.37,0,0,0,4.7,4.84l19.2-18.91a27.29,27.29,0,0,0,12.95,6c0.6,0.1,1.21.18,1.83,0.24,6.13,0.57,11.74-1.14,15.41-4.7,2.34-2.27,5.66-5.64,9.86-9.89,6.43-6.52,14.44-14.65,23-23A3.38,3.38,0,0,0,176.85,34.43ZM129.14,70a20.64,20.64,0,0,1-12.81-6.31c-6.9-7.11-11.6-17.28-4.45-24.76l27.79,27.81-0.44.43C137,69.35,133.24,70.41,129.14,70Z"/><path d="M74.59,115.32a3.37,3.37,0,0,0-4.76.28c-13.58,15.28-38.23,42.27-46.54,49.65-4.13,3.67-10.65,2.19-14.13-1.5-3.65-3.85-3.1-8.73,1.51-13.39C22.35,138.55,39.58,125,52.57,115.22a3.38,3.38,0,0,0-4.06-5.39c-13.16,9.93-30.65,23.66-42.65,35.79-8.74,8.84-6.33,17.79-1.61,22.78a18.88,18.88,0,0,0,10.46,5.51,15.46,15.46,0,0,0,13.06-3.6c9.61-8.52,37.26-39.14,47.11-50.22A3.37,3.37,0,0,0,74.59,115.32Z"/></svg>