<svg xmlns="http://www.w3.org/2000/svg" viewBox="0 0 409.6 281.6"><title>p-card</title><path d="M294.4,172.8V19.2A19.22,19.22,0,0,0,275.2,0H19.2A19.22,19.22,0,0,0,0,19.2V172.8A19.22,19.22,0,0,0,19.2,192h256a19.22,19.22,0,0,0,19.2-19.2Zm-281.6,0V19.2a6.41,6.41,0,0,1,6.4-6.4h256a6.41,6.41,0,0,1,6.4,6.4V172.8a6.41,6.41,0,0,1-6.4,6.4H19.2a6.41,6.41,0,0,1-6.4-6.4Zm0,0"/><path d="M390.4,89.6H313.6a6.4,6.4,0,1,0,0,12.8h76.8a6.41,6.41,0,0,1,6.4,6.4v32H313.6a6.4,6.4,0,1,0,0,12.8h83.2V262.4a6.41,6.41,0,0,1-6.4,6.4h-256a6.41,6.41,0,0,1-6.4-6.4V211.2a6.4,6.4,0,0,0-12.8,0v51.2a19.22,19.22,0,0,0,19.2,19.2h256a19.22,19.22,0,0,0,19.2-19.2V108.8a19.22,19.22,0,0,0-19.2-19.2Zm0,0"/><path d="M134.4,134.4h-32a6.4,6.4,0,0,0,0,12.8h32a6.4,6.4,0,1,0,0-12.8Zm0,0"/><path d="M76.8,134.4h-32a6.4,6.4,0,1,0,0,12.8h32a6.4,6.4,0,0,0,0-12.8Zm0,0"/><path d="M249.6,134.4h-32a6.4,6.4,0,1,0,0,12.8h32a6.4,6.4,0,0,0,0-12.8Zm0,0"/><path d="M192,134.4H160a6.4,6.4,0,0,0,0,12.8h32a6.4,6.4,0,0,0,0-12.8Zm0,0"/><path d="M70.4,32H51.2A19.22,19.22,0,0,0,32,51.2v6.4A19.22,19.22,0,0,0,51.2,76.8H70.4A19.22,19.22,0,0,0,89.6,57.6V51.2A19.22,19.22,0,0,0,70.4,32Zm6.4,25.6A6.41,6.41,0,0,1,70.4,64H51.2a6.41,6.41,0,0,1-6.4-6.4V51.2a6.41,6.41,0,0,1,6.4-6.4H70.4a6.41,6.41,0,0,1,6.4,6.4Zm0,0"/><path d="M236.8,32a25.52,25.52,0,0,0-19.2,8.7,25.6,25.6,0,1,0,0,33.81A25.59,25.59,0,1,0,236.8,32ZM198.4,70.4a12.8,12.8,0,1,1,12.8-12.8,12.81,12.81,0,0,1-12.8,12.8Zm38.4,0a12.8,12.8,0,1,1,12.8-12.8,12.81,12.81,0,0,1-12.8,12.8Zm0,0"/><path d="M313.6,128H384a6.4,6.4,0,0,0,0-12.8H313.6a6.4,6.4,0,1,0,0,12.8Zm0,0"/><path d="M364.8,204.8H243.2a6.4,6.4,0,0,0,0,12.8H364.8a6.4,6.4,0,0,0,0-12.8Zm0,0"/><path d="M364.8,230.4H288a6.4,6.4,0,0,0,0,12.8h76.8a6.4,6.4,0,0,0,0-12.8Zm0,0"/></svg>