<svg xmlns="http://www.w3.org/2000/svg" viewBox="0 0 503.61 486.82"><title>p-office</title><path d="M360.92,486.82H142.69c-5,0-8.39-3.36-8.39-8.39V25.18c0-5,3.36-8.39,8.39-8.39H360.92c5,0,8.39,3.36,8.39,8.39V478.43C369.31,483.46,366,486.82,360.92,486.82ZM151.08,470H352.52V33.57H151.08Z" fill="#000307"/><path d="M142.69,419.67H8.39c-5,0-8.39-3.36-8.39-8.39V109.11c0-5,3.36-8.39,8.39-8.39h134.3c5,0,8.39,3.36,8.39,8.39V411.28C151.08,416.31,147.72,419.67,142.69,419.67ZM16.79,402.89H134.3V117.51H16.79Z" fill="#000307"/><path d="M319,486.82H184.66c-5,0-8.39-3.36-8.39-8.39V394.49c0-5,3.36-8.39,8.39-8.39H319c5,0,8.39,3.36,8.39,8.39v83.93C327.34,483.46,324,486.82,319,486.82ZM193,470H310.56V402.89H193Z" fill="#000307"/><path d="M251.8,486.82c-5,0-8.39-3.36-8.39-8.39V394.49c0-5,3.36-8.39,8.39-8.39s8.39,3.36,8.39,8.39v83.93C260.2,483.46,256.84,486.82,251.8,486.82Z" fill="#000307"/><path d="M142.69,486.82H8.39c-5,0-8.39-3.36-8.39-8.39V411.28c0-5,3.36-8.39,8.39-8.39h134.3c5,0,8.39,3.36,8.39,8.39v67.15C151.08,483.46,147.72,486.82,142.69,486.82ZM16.79,470H134.3V419.67H16.79Z" fill="#000307"/><path d="M495.21,419.67H360.92c-5,0-8.39-3.36-8.39-8.39V109.11c0-5,3.36-8.39,8.39-8.39h134.3c5,0,8.39,3.36,8.39,8.39V411.28C503.61,416.31,500.25,419.67,495.21,419.67Zm-125.9-16.79H486.82V117.51H369.31Z" fill="#000307"/><path d="M495.21,486.82H360.92c-5,0-8.39-3.36-8.39-8.39V411.28c0-5,3.36-8.39,8.39-8.39h134.3c5,0,8.39,3.36,8.39,8.39v67.15C503.61,483.46,500.25,486.82,495.21,486.82ZM369.31,470H486.82V419.67H369.31Z" fill="#000307"/><path d="M42,117.51c-5,0-8.39-3.36-8.39-8.39V92.33c0-5,3.36-8.39,8.39-8.39s8.39,3.36,8.39,8.39v16.79C50.36,114.15,47,117.51,42,117.51Z" fill="#000307"/><path d="M92.33,117.51c-5,0-8.39-3.36-8.39-8.39V92.33c0-5,3.36-8.39,8.39-8.39s8.39,3.36,8.39,8.39v16.79C100.72,114.15,97.36,117.51,92.33,117.51Z" fill="#000307"/><path d="M226.62,33.57c-5,0-8.39-3.36-8.39-8.39V8.39c0-5,3.36-8.39,8.39-8.39S235,3.36,235,8.39V25.18C235,30.22,231.66,33.57,226.62,33.57Z" fill="#000307"/><path d="M277,33.57c-5,0-8.39-3.36-8.39-8.39V8.39c0-5,3.36-8.39,8.39-8.39s8.39,3.36,8.39,8.39V25.18C285.38,30.22,282,33.57,277,33.57Z" fill="#000307"/><path d="M411.28,117.51c-5,0-8.39-3.36-8.39-8.39V92.33c0-5,3.36-8.39,8.39-8.39s8.39,3.36,8.39,8.39v16.79C419.67,114.15,416.31,117.51,411.28,117.51Z" fill="#000307"/><path d="M461.64,117.51c-5,0-8.39-3.36-8.39-8.39V92.33c0-5,3.36-8.39,8.39-8.39S470,87.29,470,92.33v16.79C470,114.15,466.68,117.51,461.64,117.51Z" fill="#000307"/><path d="M218.23,125.9H201.44a16.84,16.84,0,0,1-16.79-16.79V92.33a16.84,16.84,0,0,1,16.79-16.79h16.79A16.84,16.84,0,0,1,235,92.33v16.79A16.84,16.84,0,0,1,218.23,125.9ZM201.44,92.33v16.79h16.79V92.33Z" fill="#000307"/><path d="M302.16,125.9H285.38a16.84,16.84,0,0,1-16.79-16.79V92.33a16.84,16.84,0,0,1,16.79-16.79h16.79A16.84,16.84,0,0,1,319,92.33v16.79A16.84,16.84,0,0,1,302.16,125.9ZM285.38,92.33v16.79h16.79V92.33Z" fill="#000307"/><path d="M218.23,193H201.44a16.84,16.84,0,0,1-16.79-16.79V159.48a16.84,16.84,0,0,1,16.79-16.79h16.79A16.84,16.84,0,0,1,235,159.48v16.79A16.84,16.84,0,0,1,218.23,193Zm-16.79-33.57v16.79h16.79V159.48Z" fill="#000307"/><path d="M302.16,193H285.38a16.84,16.84,0,0,1-16.79-16.79V159.48a16.84,16.84,0,0,1,16.79-16.79h16.79A16.84,16.84,0,0,1,319,159.48v16.79A16.84,16.84,0,0,1,302.16,193Zm-16.79-33.57v16.79h16.79V159.48Z" fill="#000307"/><path d="M218.23,260.2H201.44a16.84,16.84,0,0,1-16.79-16.79V226.62a16.84,16.84,0,0,1,16.79-16.79h16.79A16.84,16.84,0,0,1,235,226.62v16.79A16.84,16.84,0,0,1,218.23,260.2Zm-16.79-33.57v16.79h16.79V226.62Z" fill="#000307"/><path d="M302.16,260.2H285.38a16.84,16.84,0,0,1-16.79-16.79V226.62a16.84,16.84,0,0,1,16.79-16.79h16.79A16.84,16.84,0,0,1,319,226.62v16.79A16.84,16.84,0,0,1,302.16,260.2Zm-16.79-33.57v16.79h16.79V226.62Z" fill="#000307"/><path d="M218.23,327.34H201.44a16.84,16.84,0,0,1-16.79-16.79V293.77A16.84,16.84,0,0,1,201.44,277h16.79A16.84,16.84,0,0,1,235,293.77v16.79A16.84,16.84,0,0,1,218.23,327.34Zm-16.79-33.57v16.79h16.79V293.77Z" fill="#000307"/><path d="M302.16,327.34H285.38a16.84,16.84,0,0,1-16.79-16.79V293.77A16.84,16.84,0,0,1,285.38,277h16.79A16.84,16.84,0,0,1,319,293.77v16.79A16.84,16.84,0,0,1,302.16,327.34Zm-16.79-33.57v16.79h16.79V293.77Z" fill="#000307"/><path d="M436.46,184.66H419.67a16.84,16.84,0,0,1-16.79-16.79V151.08a16.84,16.84,0,0,1,16.79-16.79h16.79a16.84,16.84,0,0,1,16.79,16.79v16.79A16.84,16.84,0,0,1,436.46,184.66Zm-16.79-33.57v16.79h16.79V151.08Z" fill="#000307"/><path d="M436.46,251.8H419.67A16.84,16.84,0,0,1,402.89,235V218.23a16.84,16.84,0,0,1,16.79-16.79h16.79a16.84,16.84,0,0,1,16.79,16.79V235A16.84,16.84,0,0,1,436.46,251.8Zm-16.79-33.57V235h16.79V218.23Z" fill="#000307"/><path d="M436.46,319H419.67a16.84,16.84,0,0,1-16.79-16.79V285.38a16.84,16.84,0,0,1,16.79-16.79h16.79a16.84,16.84,0,0,1,16.79,16.79v16.79A16.84,16.84,0,0,1,436.46,319Zm-16.79-33.57v16.79h16.79V285.38Z" fill="#000307"/><path d="M436.46,386.1H419.67a16.84,16.84,0,0,1-16.79-16.79V352.52a16.84,16.84,0,0,1,16.79-16.79h16.79a16.84,16.84,0,0,1,16.79,16.79v16.79A16.84,16.84,0,0,1,436.46,386.1Zm-16.79-33.57v16.79h16.79V352.52Z" fill="#000307"/><path d="M83.93,184.66H67.15a16.84,16.84,0,0,1-16.79-16.79V151.08A16.84,16.84,0,0,1,67.15,134.3H83.93a16.84,16.84,0,0,1,16.79,16.79v16.79A16.84,16.84,0,0,1,83.93,184.66ZM67.15,151.08v16.79H83.93V151.08Z" fill="#000307"/><path d="M83.93,251.8H67.15A16.84,16.84,0,0,1,50.36,235V218.23a16.84,16.84,0,0,1,16.79-16.79H83.93a16.84,16.84,0,0,1,16.79,16.79V235A16.84,16.84,0,0,1,83.93,251.8ZM67.15,218.23V235H83.93V218.23Z" fill="#000307"/><path d="M83.93,319H67.15a16.84,16.84,0,0,1-16.79-16.79V285.38a16.84,16.84,0,0,1,16.79-16.79H83.93a16.84,16.84,0,0,1,16.79,16.79v16.79A16.84,16.84,0,0,1,83.93,319ZM67.15,285.38v16.79H83.93V285.38Z" fill="#000307"/><path d="M83.93,386.1H67.15a16.84,16.84,0,0,1-16.79-16.79V352.52a16.84,16.84,0,0,1,16.79-16.79H83.93a16.84,16.84,0,0,1,16.79,16.79v16.79A16.84,16.84,0,0,1,83.93,386.1ZM67.15,352.52v16.79H83.93V352.52Z" fill="#000307"/></svg>