<svg id="Foreground" xmlns="http://www.w3.org/2000/svg" viewBox="0 0 164 43.65"><defs><style>.cls-1,.cls-2{}.cls-1{fill-rule:evenodd;}</style></defs><title>paypal</title><path class="cls-1" d="M128.11,6.88c-4.1,0-7.35,1.09-9.83,1.58l-0.76,6.24a26.76,26.76,0,0,1,8.4-1.78c3.25-.1,5.15.59,4.49,3.37-9.64,0-16.13,2-17.47,8.22-1.91,10.69,9.83,10.4,14.51,5.74l-0.57,2.57h8.59l3.72-17C140.71,8.56,134.12,6.78,128.11,6.88Zm0.57,17.42c-0.48,2.28-2.29,3.27-4.48,3.37-1.91.1-3.63-1.59-2.39-3.57,1-1.68,3.63-2.08,5.25-2.08h2.1C129,22.82,128.87,23.51,128.68,24.3Z"/><polygon class="cls-1" points="146.53 0.14 139.43 32.82 148.15 32.82 155.34 0.14 146.53 0.14 146.53 0.14 146.53 0.14"/><path class="cls-1" d="M106.44,0.25h-16L83.39,32.82h9.28L95.06,22h6.6A13.1,13.1,0,0,0,115,11.33C116.58,3.71,111,.25,106.44.25Zm-0.29,11.09a6,6,0,0,1-5.46,4.46H96.4l1.91-8.91h4.59C105.3,6.88,106.73,8.86,106.16,11.33Z"/><path class="cls-1" d="M44.45,6.88c-4.05,0-7.26,1.09-9.62,1.58L34.08,14.7a24.86,24.86,0,0,1,8.2-1.78c3.21-.1,5.09.59,4.53,3.37-9.52,0-15.93,2-17.25,8.22-1.89,10.69,9.71,10.4,14.24,5.74l-0.56,2.57h8.58l3.68-17C57,8.56,50.39,6.78,44.45,6.88ZM45.11,24.3c-0.47,2.28-2.36,3.27-4.53,3.37-1.89.1-3.49-1.59-2.26-3.57C39.27,22.42,41.91,22,43.41,22h2.17A19.7,19.7,0,0,0,45.11,24.3Z"/><polygon class="cls-1" points="59.22 7.35 67.8 7.35 69.18 22.52 77.58 7.35 86.43 7.35 66.05 43.65 56.45 43.65 62.73 32.98 59.22 7.35 59.22 7.35 59.22 7.35"/><path class="cls-1" d="M23.11,0.25H7.1L0,32.82H9.4L11.7,22h6.71A13.09,13.09,0,0,0,31.65,11.33C33.28,3.71,27.81.25,23.11,0.25ZM22.83,11.33a5.86,5.86,0,0,1-5.37,4.46H13l2-8.91h4.6A3.3,3.3,0,0,1,22.83,11.33Z"/><path class="cls-2" d="M157.23,4.37V0.52h-1.44V0h3.46V0.52h-1.44V4.37h-0.58Z"/><path class="cls-2" d="M159.83,4.37V0h0.87l1,3.09,0.21,0.65,0.23-.7,1-3H164V4.37h-0.56V0.71l-1.27,3.66h-0.52l-1.26-3.72V4.37h-0.56Z"/></svg>