<?xml version="1.0" encoding="utf-8"?>
<!-- Generator: Adobe Illustrator 19.2.1, SVG Export Plug-In . SVG Version: 6.00 Build 0)  -->
<svg version="1.1" id="Слой_1" xmlns="http://www.w3.org/2000/svg" xmlns:xlink="http://www.w3.org/1999/xlink" x="0px" y="0px"
	 viewBox="-37.9 152 490 490" style="enable-background:new -37.9 152 490 490;" xml:space="preserve">
<g>
	<g>
		<path d="M406.1,278.9l-32.4,32.4l-81-81.1l32.4-32.4c6.6-6.6,18.1-6.6,24.7,0l56.3,56.4C412.9,261,412.9,272.1,406.1,278.9z
			 M135.4,549.9l-81-81.1l209.4-209.7l81,81.1L135.4,549.9L135.4,549.9z M35.7,507.9l60.6,60.7l-84.4,23.8L35.7,507.9L35.7,507.9z
			 M435,225.3l-56.3-56.4c-11-11-50.7-31.8-82.4,0L11,454.4c-2.5,2.5-4.3,5.5-5.2,8.9l-43,153.1c-2,7.1,0.1,14.7,5.2,20
			c5.2,5.3,15.6,6.2,20,5.2l153-43.1c3.4-0.9,6.4-2.7,8.9-5.2L435,307.8C457.7,285.1,457.7,248.1,435,225.3L435,225.3z"/>
	</g>
</g>
</svg>
