<svg xmlns="http://www.w3.org/2000/svg" viewBox="0 0 512 512"><title>percent</title><path d="M512,254.85a61.87,61.87,0,0,0-10.13-34,41.18,41.18,0,0,1-6-29.66,62.14,62.14,0,0,0-26.21-61.75c-8.4-5.72-14.43-14.84-17-25.66A62.14,62.14,0,0,0,405.55,57.4a42.4,42.4,0,0,1-25.73-16.87,62.13,62.13,0,0,0-62.2-25.14,41.19,41.19,0,0,1-29.69-5.85,62.13,62.13,0,0,0-67.08.58,41.17,41.17,0,0,1-29.66,6,62.13,62.13,0,0,0-61.75,26.21c-5.72,8.4-14.84,14.43-25.66,17A62.14,62.14,0,0,0,57.4,106.45a42.39,42.39,0,0,1-16.88,25.73,62.13,62.13,0,0,0-25.14,62.2,41.18,41.18,0,0,1-5.85,29.69,62.13,62.13,0,0,0,.58,67.08,41.18,41.18,0,0,1,6,29.66,62.14,62.14,0,0,0,26.21,61.75c8.4,5.73,14.43,14.84,17,25.66a62.14,62.14,0,0,0,47.18,46.37,42.39,42.39,0,0,1,25.73,16.88,62.13,62.13,0,0,0,62.2,25.14,41.18,41.18,0,0,1,29.68,5.85,62.13,62.13,0,0,0,67.08-.58,41.16,41.16,0,0,1,29.66-6,62.13,62.13,0,0,0,61.75-26.21c5.73-8.4,14.84-14.43,25.66-17a62.13,62.13,0,0,0,46.37-47.18,42.39,42.39,0,0,1,16.88-25.73,62.13,62.13,0,0,0,25.14-62.2,41.18,41.18,0,0,1,5.85-29.69A61.89,61.89,0,0,0,512,254.85ZM485.21,277a61.52,61.52,0,0,0-8.64,44.37,41.73,41.73,0,0,1-16.87,41.74,62.75,62.75,0,0,0-25,38,41.74,41.74,0,0,1-31.12,31.66c-15.8,3.72-29.23,12.73-37.84,25.35a41.73,41.73,0,0,1-41.44,17.59,61.51,61.51,0,0,0-44.3,9,41.73,41.73,0,0,1-45,.39,62.06,62.06,0,0,0-33.13-9.69,60.32,60.32,0,0,0-11.24,1.06,41.73,41.73,0,0,1-41.75-16.87,62.74,62.74,0,0,0-38.05-25,41.74,41.74,0,0,1-31.66-31.12c-3.72-15.8-12.72-29.23-25.35-37.84a41.74,41.74,0,0,1-17.59-41.44,61.51,61.51,0,0,0-9-44.29,41.74,41.74,0,0,1-.39-45,61.52,61.52,0,0,0,8.64-44.37A41.73,41.73,0,0,1,52.3,148.84a62.75,62.75,0,0,0,25-38.05,41.74,41.74,0,0,1,31.12-31.66c15.8-3.72,29.23-12.73,37.84-25.35a41.73,41.73,0,0,1,41.44-17.59,61.51,61.51,0,0,0,44.29-9,41.74,41.74,0,0,1,45-.39,61.53,61.53,0,0,0,44.37,8.64A41.73,41.73,0,0,1,363.16,52.3a62.74,62.74,0,0,0,38.05,25,41.74,41.74,0,0,1,31.66,31.12c3.72,15.8,12.73,29.23,25.35,37.84a41.74,41.74,0,0,1,17.59,41.44,61.51,61.51,0,0,0,9,44.29,41.74,41.74,0,0,1,.39,45Z"/><path d="M225.46,226V178.63c0-27.17-18-37.27-40.75-37.27-23.06,0-40.75,10.11-40.75,37.27V226c0,27.17,17.69,37.28,40.75,37.27C207.46,263.29,225.46,253.18,225.46,226Zm-19,0c0,13.9-8.21,20.53-21.8,20.53s-21.8-6.63-21.8-20.53V178.63c0-13.9,8.21-20.53,21.8-20.53s21.8,6.63,21.8,20.53Z"/><path d="M322.13,251.29c-23.06,0-40.75,10.11-40.75,37.27v47.38c0,27.17,17.69,37.27,40.75,37.27,22.74,0,40.75-10.11,40.75-37.27V288.56C362.88,261.39,344.87,251.29,322.13,251.29Zm21.8,84.66c0,13.9-8.21,20.53-21.8,20.53s-21.8-6.63-21.8-20.53V288.56c0-13.9,8.21-20.53,21.8-20.53s21.8,6.63,21.8,20.53Z"/><path d="M323.39,139.46c0-6-5.68-10.43-10.74-10.42a8.69,8.69,0,0,0-7.9,4.74L186.29,368.16a9.72,9.72,0,0,0-.95,4.11c0,5.05,4.42,9.48,10.11,9.48,3.79,0,7.27-1.58,8.85-5.05L322.44,143.88A11.16,11.16,0,0,0,323.39,139.46Z"/></svg>