<?xml version="1.0" encoding="utf-8"?>
<!-- Generator: Adobe Illustrator 19.2.1, SVG Export Plug-In . SVG Version: 6.00 Build 0)  -->
<svg version="1.1" id="Capa_1" xmlns="http://www.w3.org/2000/svg" xmlns:xlink="http://www.w3.org/1999/xlink" x="0px" y="0px"
	 viewBox="-62 154.2 485.8 485.8" style="enable-background:new -62 154.2 485.8 485.8;" xml:space="preserve">
<path d="M406.8,243.5c-33.4-19.5-71.4-9.1-97.3,3l-77.4,36.1L99,215.6L19.8,219l109.9,111.4l-70,33.3L-13.2,336L-62,358.7l44.1,54.7
	c-4.7,5.6-8.9,13.4-5,21.6c5,10.7,19.8,16.1,44.1,16.1c5,0,10.4-0.2,16.1-0.7c26.6-2.1,55.5-8.9,73.6-17.3l276.6-129
	c23.9-11.1,35.8-22.8,36.4-35.8C424.1,261.8,421.4,252,406.8,243.5z M378.9,286.1l-276.6,129C87,422.3,61.7,428.3,38,430.4
	c-24.2,2.2-37.2-0.6-41.5-2.9c0.9-1.2,2.5-3.1,5.6-5.8l7.2-6.3l-39.7-49.3l18-8.4l72.9,27.8l103.2-49l-98-99.4l29-1.2l137.1,68.9
	l86.2-40.2c31.5-14.7,58-16,78.8-3.8l0,0c5.2,3.1,7.1,5.7,7,6.8C403.8,267.6,403.2,274.8,378.9,286.1z"/>
</svg>
