<svg id="Слой_1" data-name="Слой 1" xmlns="http://www.w3.org/2000/svg" viewBox="0 0 470 270.21"><title>plane</title><path d="M468.93,180.06a7.5,7.5,0,0,0-6.43-3.64H329a7.5,7.5,0,0,0,0,15H450l-2.49,4.66c-3,5.53-14.61,11.72-25.81,11.72H301.38a84.27,84.27,0,0,0,5.15-29.11,83.42,83.42,0,0,0-9.86-39.59H365a7.5,7.5,0,0,0,0-15H286.2a71.1,71.1,0,0,0-28.7-19.7V28.83c0-12-7.45-22.8-19.43-28.17a7.5,7.5,0,0,0-6.13,0C219.95,6,212.5,16.82,212.5,28.83V104.4a71.1,71.1,0,0,0-28.7,19.7H104.95a7.5,7.5,0,0,0,0,15h68.38a83.42,83.42,0,0,0-9.86,39.59,84.27,84.27,0,0,0,5.15,29.11H48.29c-11.19,0-22.86-6.19-25.81-11.72L20,191.42H141.14a7.5,7.5,0,1,0,0-15H7.5a7.5,7.5,0,0,0-6.62,11l8.37,15.69c5.88,11,23,19.66,39,19.66H80.38a31.21,31.21,0,1,0,53.32,0h42.24C188.84,243.41,210.5,257,235,257s46.16-13.56,59.06-34.17H336.3a31.21,31.21,0,1,0,53.32,0H421.7c16,0,33.16-8.64,39-19.66l8.37-15.69a7.5,7.5,0,0,0-.18-7.39h0ZM123.25,239A16.21,16.21,0,1,1,107,222.8,16.23,16.23,0,0,1,123.25,239h0ZM227.5,28.83c0-5,2.8-9.69,7.5-12.8,4.7,3.11,7.5,7.8,7.5,12.8v72a65.32,65.32,0,0,0-15,0v-72ZM235,242c-31.17,0-56.53-28.39-56.53-63.28s25.36-63.28,56.53-63.28,56.53,28.39,56.53,63.28S266.17,242,235,242Zm144.17-3A16.21,16.21,0,1,1,363,222.8,16.23,16.23,0,0,1,379.17,239h0Z"/><path d="M264.2,150.27H205.8a7.5,7.5,0,0,0,0,15h58.4A7.5,7.5,0,0,0,264.2,150.27Z"/></svg>