<svg xmlns="http://www.w3.org/2000/svg" viewBox="0 0 28.1 22.7"><title>s-twitter</title><path d="M25.1,5.7v.7c0,7.6-5.7,16.3-16.3,16.3A15.93,15.93,0,0,1,0,20.1a6.15,6.15,0,0,0,1.4.1,11.69,11.69,0,0,0,7.1-2.4,5.58,5.58,0,0,1-5.3-4,3.75,3.75,0,0,0,1.1.1,7.72,7.72,0,0,0,1.5-.2A5.7,5.7,0,0,1,1.2,8.1V8a5.94,5.94,0,0,0,2.6.7A5.78,5.78,0,0,1,1.3,3.9,6,6,0,0,1,2.1,1,16.24,16.24,0,0,0,13.9,7a5.7,5.7,0,0,1-.1-1.3A5.7,5.7,0,0,1,19.5,0a6,6,0,0,1,4.2,1.8A11.25,11.25,0,0,0,27.3.4a5.69,5.69,0,0,1-2.5,3.2,9,9,0,0,0,3.3-.9A14.21,14.21,0,0,1,25.1,5.7Z" fill="#020608"/></svg>