<svg id="Capa_1" data-name="Capa 1" xmlns="http://www.w3.org/2000/svg" viewBox="0 0 47.94 45.85"><title>star-fill</title><path class="cls-1" d="M26.28,1.44l5.41,11a2.58,2.58,0,0,0,1.94,1.41l12.09,1.76A2.58,2.58,0,0,1,47.16,20L38.41,28.5a2.58,2.58,0,0,0-.74,2.28l2.06,12A2.58,2.58,0,0,1,36,45.54L25.17,39.86a2.58,2.58,0,0,0-2.4,0L12,45.54a2.58,2.58,0,0,1-3.75-2.72l2.06-12a2.58,2.58,0,0,0-.74-2.28L0.78,20a2.58,2.58,0,0,1,1.43-4.4L14.3,13.81a2.58,2.58,0,0,0,1.94-1.41l5.41-11A2.58,2.58,0,0,1,26.28,1.44Z"/></svg>