<svg id="Capa_1" data-name="Capa 1" xmlns="http://www.w3.org/2000/svg" viewBox="0 0 49.94 47.85"><title>star</title><path d="M48.86,21.68a3.58,3.58,0,0,0-2-6.11L34.78,13.82A1.58,1.58,0,0,1,33.59,13L28.18,2a3.58,3.58,0,0,0-6.42,0L16.35,13a1.58,1.58,0,0,1-1.19.86L3.07,15.58a3.58,3.58,0,0,0-2,6.11l8.75,8.53a1.58,1.58,0,0,1,.46,1.4l-2.06,12a3.58,3.58,0,0,0,5.2,3.77l10.81-5.69a1.58,1.58,0,0,1,1.47,0l10.81,5.69a3.58,3.58,0,0,0,5.2-3.77l-2.07-12a1.58,1.58,0,0,1,.46-1.4ZM37.68,32l2.06,12a1.58,1.58,0,0,1-2.29,1.67L26.64,40a3.58,3.58,0,0,0-3.33,0L12.49,45.66A1.58,1.58,0,0,1,10.19,44l2.07-12a3.58,3.58,0,0,0-1-3.17L2.48,20.25a1.58,1.58,0,0,1,.88-2.7L15.45,15.8a3.58,3.58,0,0,0,2.7-2l5.41-11a1.58,1.58,0,0,1,2.84,0l5.41,11a3.57,3.57,0,0,0,2.7,2l12.09,1.76a1.58,1.58,0,0,1,.88,2.7l-8.75,8.53A3.58,3.58,0,0,0,37.68,32Z"/></svg>