<svg id="Layer_1" data-name="Layer 1" xmlns="http://www.w3.org/2000/svg" viewBox="0 0 300 241.48"><title>tour</title><path d="M99.41,66.44L96,53.66a191.49,191.49,0,0,0-21.84,7.28l4.93,12.27A178.71,178.71,0,0,1,99.41,66.44Z"/><path d="M59.71,82.38l-6.36-11.6A192.84,192.84,0,0,0,33.87,83.06l7.71,10.75A179.92,179.92,0,0,1,59.71,82.38Z"/><path d="M0,114.16l10.05,8.59a178,178,0,0,1,14.89-15.42L16,97.59A190.79,190.79,0,0,0,0,114.16Z"/><path d="M285.46,108.84l-9.74,8.95a179.45,179.45,0,0,1,13.53,16.63L300,126.71A191.94,191.94,0,0,0,285.46,108.84Z"/><path d="M243.18,90a177.92,177.92,0,0,1,17.11,12.91l8.59-10.06A189.92,189.92,0,0,0,250.49,79Z"/><path d="M230.54,67.43a191.22,191.22,0,0,0-21.19-9l-4.44,12.46a177.21,177.21,0,0,1,19.71,8.4Z"/><path d="M110.92,76.35h9L127.4,65l14.43,0.1-9.08,31.32v0.74a7.18,7.18,0,0,0,7.17,7.18h13L173.63,66l16,0.53c8.27,0,15-6.49,15-14.47a14.09,14.09,0,0,0-4.5-10.33,15.31,15.31,0,0,0-10.66-4.13h0l-16,.53L153,0H139.9a7.19,7.19,0,0,0-7.15,7.18V7.91l9,31.07-14.49.13L119.9,28h-9a6.7,6.7,0,0,0-6.69,6.69v35A6.69,6.69,0,0,0,110.92,76.35Zm3.71-37.47h0l7.07,10.69,33.88-.29L144.3,10.41h2.43l20.66,38.3L189.62,48A4.85,4.85,0,0,1,193,49.26,3.79,3.79,0,0,1,194.21,52a4.31,4.31,0,0,1-4.42,4.07l-22.26-.74-20.8,38.56H144.3l11.35-39.14-33.83-.24-7.19,10.9V38.88Z"/><path d="M171.3,127.36a118.58,118.58,0,0,0-26.31-3A118,118,0,0,0,27.1,241.48H40.33a105.28,105.28,0,0,1,1.36-15.82c7.44,1.91,15.1,5,17.56,7-0.12.85-.25,1.72-0.38,2.59-0.3,1.93-.62,4.06-0.75,6.26H71.39c0.14-1.5.38-3.08,0.55-4.24,0.25-1.59.49-3.18,0.64-4.71,0.82-8.31-8.6-14.95-28-19.76a104.06,104.06,0,0,1,75.16-72.11,40.86,40.86,0,0,0-4.22,14.47c-0.32,2.92-.74,5.55-1.11,7.88-1.48,9.36-3,19,9.64,24.67a47.29,47.29,0,0,0,16.05,4.11,36.78,36.78,0,0,1,5.47.85c0.64,2.15.32,7.4,0.19,9.5-0.16,2.66-.33,5.38.48,7.61a69,69,0,0,0,15.3,31.73H181.5c-19.13-12.49-22.18-33.85-22.31-34.79l-0.27-2.18c0-.52.06-1.08,0.09-1.56,0.43-6.88,1.22-19.71-8.6-22.7a44.69,44.69,0,0,0-8.87-1.61,34.15,34.15,0,0,1-12.05-3c-3.39-1.51-3.39-1.51-2-10.53,0.39-2.47.83-5.27,1.19-8.49A31.76,31.76,0,0,1,137,137.93c2.63-.2,5.29-0.32,8-0.32a105.4,105.4,0,0,1,23.37,2.64,104.84,104.84,0,0,1,81.49,99c-1.1.72-2.47,1.48-3.94,2.25h17.17A118,118,0,0,0,171.3,127.36Z"/></svg>