<svg id="Слой_1" data-name="Слой 1" xmlns="http://www.w3.org/2000/svg" viewBox="0 0 20.61 24.57"><title>trash</title><path d="M304.86,416.37a0.38,0.38,0,0,1,.77,0V431.1a2.37,2.37,0,0,1-2.37,2.37H291.35A2.37,2.37,0,0,1,289,431.1V416.37a0.38,0.38,0,0,1,.77,0V431.1a1.61,1.61,0,0,0,1.6,1.6h11.9a1.61,1.61,0,0,0,1.6-1.6V416.37Zm0,0" transform="translate(-287 -408.89)" fill="#24b3fd" fill-rule="evenodd"/><path d="M294.44,430.1a0.38,0.38,0,1,1-.77,0V416.46a0.38,0.38,0,0,1,.77,0V430.1Zm0,0" transform="translate(-287 -408.89)" fill="#24b3fd" fill-rule="evenodd"/><path d="M297.69,430.1a0.38,0.38,0,1,1-.77,0V416.46a0.38,0.38,0,1,1,.77,0V430.1Zm0,0" transform="translate(-287 -408.89)" fill="#24b3fd" fill-rule="evenodd"/><path d="M300.94,430.1a0.38,0.38,0,1,1-.77,0V416.46a0.38,0.38,0,0,1,.77,0V430.1Zm0,0" transform="translate(-287 -408.89)" fill="#24b3fd" fill-rule="evenodd"/><path d="M294.21,411.26a0.38,0.38,0,1,1-.77,0,2.37,2.37,0,0,1,2.37-2.37h3a2.37,2.37,0,0,1,2.37,2.37,0.38,0.38,0,1,1-.77,0,1.6,1.6,0,0,0-1.6-1.6h-3a1.61,1.61,0,0,0-1.6,1.6h0Zm0,0" transform="translate(-287 -408.89)" fill="#24b3fd" fill-rule="evenodd"/><path d="M288.37,412.36h17.86a1.37,1.37,0,0,1,1,.4h0a1.37,1.37,0,0,1,.41,1v1a0.38,0.38,0,0,1-.39.38H287.38a0.38,0.38,0,0,1-.38-0.38v-1a1.38,1.38,0,0,1,.4-1h0a1.37,1.37,0,0,1,1-.4h0Zm17.86,0.77H288.37a0.61,0.61,0,0,0-.43.18,0.61,0.61,0,0,0-.17.43v0.61h19.07v-0.61a0.61,0.61,0,0,0-.61-0.61h0Zm0,0" transform="translate(-287 -408.89)" fill="#24b3fd" fill-rule="evenodd"/></svg>