<svg xmlns="http://www.w3.org/2000/svg" viewBox="0 0 489.6 481.3"><title>users</title><path d="M386.8,0a61.8,61.8,0,1,0,61.8,61.8A61.84,61.84,0,0,0,386.8,0Zm0,99.1a37.3,37.3,0,1,1,37.3-37.3A37.3,37.3,0,0,1,386.8,99.1Z"/><path d="M244.8,123.6A61.8,61.8,0,1,0,183,61.8,61.84,61.84,0,0,0,244.8,123.6Zm0-99.1a37.3,37.3,0,1,1-37.3,37.3A37.3,37.3,0,0,1,244.8,24.5Z"/><path d="M428.3,136.1H375.7a12.3,12.3,0,0,0,0,24.6h52.6a36.83,36.83,0,0,1,36.8,36.8v78.3a36.91,36.91,0,0,1-24.2,34.5,12.32,12.32,0,0,0-8,11.5V432.4a24.33,24.33,0,0,1-24.3,24.3H353a12.3,12.3,0,1,0,0,24.6h55.6a48.87,48.87,0,0,0,48.8-48.8v-103a61.49,61.49,0,0,0,32.2-53.9V197.3A61.29,61.29,0,0,0,428.3,136.1Z"/><path d="M217,481h55.6a48.87,48.87,0,0,0,48.8-48.8V329.5a61.49,61.49,0,0,0,32.2-53.9V197.3A61.37,61.37,0,0,0,292.3,136H197.2a61.37,61.37,0,0,0-61.3,61.3v78.3a61.49,61.49,0,0,0,32.2,53.9V432.2A49,49,0,0,0,217,481ZM160.5,275.6V197.3a36.83,36.83,0,0,1,36.8-36.8h95.1a36.83,36.83,0,0,1,36.8,36.8v78.3a37,37,0,0,1-24.1,34.5,12.32,12.32,0,0,0-8,11.5V432.2a24.33,24.33,0,0,1-24.3,24.3H217.2a24.33,24.33,0,0,1-24.3-24.3V321.6a12.32,12.32,0,0,0-8-11.5A36.82,36.82,0,0,1,160.5,275.6Z"/><path d="M164.6,61.8a61.8,61.8,0,1,0-61.8,61.8A61.84,61.84,0,0,0,164.6,61.8Zm-99.1,0a37.3,37.3,0,1,1,37.3,37.3A37.36,37.36,0,0,1,65.5,61.8Z"/><path d="M81,481h55.6a12.3,12.3,0,1,0,0-24.6H81a24.33,24.33,0,0,1-24.3-24.3V321.6a12.32,12.32,0,0,0-8-11.5,36.86,36.86,0,0,1-24.1-34.5V197.3a36.83,36.83,0,0,1,36.8-36.8h52.4a12.3,12.3,0,0,0,0-24.6H61.3A61.37,61.37,0,0,0,0,197.2v78.3a61.49,61.49,0,0,0,32.2,53.9V432.1A48.89,48.89,0,0,0,81,481Z"/></svg>