<svg id="Capa_1" data-name="Capa 1" xmlns="http://www.w3.org/2000/svg" viewBox="0 0 410.76 481.25"><title>user-entered</title><path d="M-230.66,261h3.2c29.3-.5,53-10.8,70.5-30.5,38.5-43.4,32.1-117.8,31.4-124.9-2.5-53.3-27.7-78.8-48.5-90.7-15.5-8.9-33.6-13.7-53.8-14.1h-1.7c-11.1,0-32.9,1.8-53.8,13.7s-46.6,37.4-49.1,91.1c-0.7,7.1-7.1,81.5,31.4,124.9C-283.66,250.23-260,260.53-230.66,261Z" transform="translate(434.39 -0.83)" fill="#24b3fd"/><path d="M-23.66,382.77v-0.3c0-.8-0.1-1.6-0.1-2.5-0.6-19.8-1.9-66.1-45.3-80.9l-1-.3c-43.59-11.12-80.08-35.77-82.83-37.68-1.3,1.68-2.36,3.65-4.07,4.93-31.7,23.65-112.7,24.32-144.1,0-1.71-1.33-2.8-3.29-4.12-5-3,2.1-39.19,26.58-82.78,37.65-0.4.1-.7,0.2-1,0.3-43.4,14.9-44.7,61.2-45.3,80.9a20.08,20.08,0,0,1-.1,2.5v0.3c-0.1,5.2-.2,31.9,5.1,45.3a12.83,12.83,0,0,0,5.2,6.3c3,2,74.9,47.8,195.2,47.8s192.2-45.9,195.2-47.8a13.38,13.38,0,0,0,5.2-6.3C-23.46,414.67-23.56,388-23.66,382.77Z" transform="translate(434.39 -0.83)" fill="#24b3fd"/></svg>