<svg id="Layer_1" data-name="Layer 1" xmlns="http://www.w3.org/2000/svg" viewBox="0 0 291.76 91.31"><defs><style></style></defs><title>visa</title><path class="cls-1" d="M119.26,0L104.62,91.12H128L142.66,0h-23.4Zm70.6,37.12c-8.18-4-13.19-6.76-13.19-10.9,0.1-3.76,4.24-7.6,13.49-7.6A40.73,40.73,0,0,1,207.58,22l2.12,0.95,3.18-19.07a59.07,59.07,0,0,0-21-3.76c-23.11,0-39.39,12-39.49,29.2C152.2,42,164,49,172.91,53.27,182,57.6,185,60.41,185,64.25c-0.1,5.91-7.32,8.63-14.06,8.63-9.34,0-14.35-1.4-22-4.7l-3.08-1.4L142.66,86.6c5.5,2.44,15.61,4.6,26.1,4.71,24.56,0,40.55-11.84,40.75-30.15C209.6,51.11,203.35,43.41,189.86,37.12Zm83-36.84H254.78c-5.58,0-9.82,1.61-12.24,7.33L207.78,91.12h24.56L239.11,73h27.48l3.51,18.15h21.66Zm-27,54.51c0.47,0,9.43-29.51,9.43-29.51l7.13,29.51H245.92ZM85.06,0L62.13,61.91,59.63,49.7c-4.24-14.09-17.53-29.4-32.37-37L48.26,91H73l36.8-91H85.06Z"/><path class="cls-1" d="M51.92,11.75C50.13,4.8,44.43.12,36.69,0H0.37L0,1.7c28.33,7,52.11,28.47,59.82,48.69Z"/></svg>