<svg id="Layer_1" data-name="Layer 1" xmlns="http://www.w3.org/2000/svg" viewBox="0 0 357.56 91"><defs><style>.cls-1{}.cls-2{}.cls-3{}</style></defs><title>yandex-money-color</title><path class="cls-1" d="M190.69,33.94v1c0,7.67-.56,11.75-1.26,14.65a27.29,27.29,0,0,1-2.86,7.5h13V33.94h-8.93ZM182.5,57.08a32.57,32.57,0,0,0,3.21-8.15c0.83-3.64,1-7.84,1-13.74V30.34h17.08V57.08h3.64V67.4h-3.9V60.68H183.11V67.4h-3.9V57.08h3.29Z"/><path class="cls-1" d="M224.87,48.15a6.88,6.88,0,0,0-1.6-3.77,4.37,4.37,0,0,0-3.38-1.3,4.45,4.45,0,0,0-3.34,1.21,6.94,6.94,0,0,0-1.91,3.86h10.23Zm3.64,9.8c-1.61,1.87-3.9,3.21-7.89,3.21-2.43,0-5-.35-7.24-2.69a11.32,11.32,0,0,1-2.9-7.76,12.3,12.3,0,0,1,2.9-8.06A8.46,8.46,0,0,1,219.93,40a8.32,8.32,0,0,1,6,2.17c2.51,2.38,3.17,6.37,3.12,9.15H214.47a8.17,8.17,0,0,0,2,5.25,5.36,5.36,0,0,0,4,1.52,7.88,7.88,0,0,0,5.63-2.21Z"/><polygon class="cls-1" points="238.05 60.68 234.45 60.68 234.45 40.44 238.05 40.44 238.05 48.2 247.71 48.2 247.71 40.44 251.31 40.44 251.31 60.68 247.71 60.68 247.71 51.32 238.05 51.32 238.05 60.68"/><path class="cls-1" d="M265,57.56a6,6,0,0,0,3.47-.87A3.27,3.27,0,0,0,269.73,54a3.31,3.31,0,0,0-1.17-2.64,6.42,6.42,0,0,0-3.68-.87h-3.21v7.11H265Zm-6.93-17.12h3.6v6.89h3.64c2.82,0,5,.56,6.46,2A6.36,6.36,0,0,1,273.63,54a6.19,6.19,0,0,1-1.82,4.73c-1.73,1.65-4.38,1.91-7.07,1.91h-6.67V40.44Z"/><polygon class="cls-1" points="282.11 60.68 278.51 60.68 278.51 40.44 291.47 40.44 291.47 43.65 282.11 43.65 282.11 60.68"/><polygon class="cls-1" points="309.26 42.48 309.26 40.44 312.86 40.44 312.86 60.68 309.26 60.68 309.26 46.9 299.64 58.6 299.64 60.68 296.04 60.68 296.04 40.44 299.64 40.44 299.64 54.18 309.26 42.48"/><path class="cls-2" d="M21.08,21H14.17C7.39,21,1.63,26.12,1.63,36.15c0,6,2.79,10.45,7.75,12.64L0.12,65.56a0.59,0.59,0,0,0,.48,1H4.9a0.69,0.69,0,0,0,.73-0.42l8.42-16.47h3V66.1a0.46,0.46,0,0,0,.42.42h3.76A0.42,0.42,0,0,0,21.75,66V21.57A0.56,0.56,0,0,0,21.08,21m-4,24.79H14.54c-4,0-7.87-2.92-7.87-10.21,0-7.6,3.63-10.69,7.33-10.69h3.09v20.9Z"/><path class="cls-1" d="M43.85,36.06H40.09a0.47,0.47,0,0,0-.48.42V48.09h-7V36.49a0.36,0.36,0,0,0-.42-0.42H28.46a0.43,0.43,0,0,0-.48.42V66a0.4,0.4,0,0,0,.42.49h3.82A0.43,0.43,0,0,0,32.64,66V51.92h7V66a0.44,0.44,0,0,0,.48.49h3.76A0.43,0.43,0,0,0,44.27,66V36.49a0.41,0.41,0,0,0-.42-0.42"/><path class="cls-1" d="M129.59,64.56l-0.48-2.07a0.27,0.27,0,0,0-.3-0.24,17.64,17.64,0,0,1-4.3.67c-4.6,0-6.85-4.43-6.85-11.48,0-6.2,1.88-12.33,5-12.33,0.85,0,1.88.24,3.51,1.76a0.63,0.63,0,0,0,.48.24,0.69,0.69,0,0,0,.55-0.43L128.87,38a1,1,0,0,0,.18-0.55,0.84,0.84,0,0,0-.61-0.6,11.6,11.6,0,0,0-5.63-1.52c-5.7,0-10.12,6.8-10.12,17.44,0,9.17,4.24,14.46,10.3,14.46a12.46,12.46,0,0,0,6.36-2,0.61,0.61,0,0,0,.24-0.67"/><path class="cls-1" d="M103.27,49.79l7.27-13.31a0.25,0.25,0,0,0-.18-0.42h-3.57A1.62,1.62,0,0,0,105,37.22L99.57,48.58a2.84,2.84,0,0,1-.91,1.28V36.49a0.37,0.37,0,0,0-.36-0.42H94.36a0.41,0.41,0,0,0-.36.42V66.08a0.4,0.4,0,0,0,.36.42H98.3a0.37,0.37,0,0,0,.36-0.42V50.83a1.32,1.32,0,0,1,.42.55L106,65.59a1.63,1.63,0,0,0,1.7.91h3.88a0.25,0.25,0,0,0,.18-0.42Z"/><path class="cls-1" d="M68.56,62.68H67.83a0.94,0.94,0,0,1-1.15-1.09V36.49a0.34,0.34,0,0,0-.36-0.42H54.2a0.43,0.43,0,0,0-.48.42v2.19c0,7.35-.42,16.83-4.3,24H48.09a0.42,0.42,0,0,0-.48.49V72a0.41,0.41,0,0,0,.42.42h2.91a0.85,0.85,0,0,0,.91-0.91v-5h13V72a0.41,0.41,0,0,0,.42.42h3.09A0.79,0.79,0,0,0,69,71.55V63.16a0.45,0.45,0,0,0-.48-0.49m-6.54,0H53.23c3.09-5.29,4.3-11.24,4.72-18.53,0.12-1.58.18-3.22,0.18-4.25H62V62.68Z"/><path class="cls-1" d="M80.92,35.33c-6.54,0-9.45,8.26-9.45,17.25,0,9.18,4.12,14.64,10.18,14.64a13.5,13.5,0,0,0,6.9-2,0.43,0.43,0,0,0,.24-0.55l-0.48-2.07a0.42,0.42,0,0,0-.49-0.36,18,18,0,0,1-4.48.67c-4.66,0-6.84-4.07-6.84-9.42V52.06s2.36,0.28,3.75.28h8.84V49.79c0-9.42-3.33-14.46-8.18-14.46M80.25,48.52c-1.39,0-3.57.24-3.57,0.24a17.16,17.16,0,0,1,.12-1.88c0.54-5.16,1.82-7.78,3.94-7.78,1.94,0,3.15,2.67,3.45,7.35,0.06,1,.06,2.07.06,2.07h-4Z"/><path class="cls-3" d="M159.91,7.68h166l21.9,37.82L325.93,83.34h-166V7.68ZM151.36,0V91H331.29l26.27-45.5L331.29,0H151.36Z"/></svg>