<svg id="Слой_1" data-name="Слой 1" xmlns="http://www.w3.org/2000/svg" viewBox="0 0 350 43.83"><title>blackidea</title><path d="M612.23-220.07H599.44v-41.77h12.79v41.77Z" transform="translate(-396.3 262.88)" fill="#323132"/><path d="M637.4-261.85c12.79,0,21.07,7.74,21.07,20.77,0,13.9-7.63,21-21.29,21H618.77v-41.77H637.4Zm-6.09,31.22h5c6.28,0,9.38-3.94,9.38-10.21,0-7.1-4-10.5-10.62-10.5h-3.81v20.71Z" transform="translate(-396.3 262.88)" fill="#323132"/><path d="M698.57-251.71h-22v5.22h20v9.68h-20v6.1h22.59v10.62H664v-41.77h34.62v10.15Z" transform="translate(-396.3 262.88)" fill="#323132"/><path d="M717.83-226l-2.05,5.93h-13l15.42-41.78h12.68l15.39,41.77h-13L731.27-226l-2.82-9c-0.77-2.41-2.23-7.16-2.23-7.16a56.66,56.66,0,0,1-1.59-6.34c-0.7,2.88-.93,3.82-1.76,6.4,0,0-.88,2.87-2.29,7.1Z" transform="translate(-396.3 262.88)" fill="#323132"/><path d="M417.36-261.79c6.93,0,14.84,1.81,14.85,10.43,0,4.11-2,6.51-5.22,8.39,4.7,1.64,7.28,4.87,7.28,10.27,0,9.8-7.86,12.67-16,12.68H396.31v-41.77h21.06Zm-8.62,16H416c2.4,0,3.87-1.17,3.87-3.17,0-2.17-1.46-3.28-4.46-3.28h-6.63v6.45Zm0,15.9h7.92c3.23,0,4.87-1.29,4.87-3.87s-1.7-4-4.87-4h-7.92v7.86Z" transform="translate(-396.3 262.88)" fill="#323132"/><path d="M528.64-219c-12.79,0-20.95-9.62-21-22s8.5-21.83,21.18-21.83c10.2,0,18.36,7.1,19,16.48H535.38c-0.71-3.76-3.11-5.87-6.75-5.87-6,0-8,6-8,11.21,0,6.92,3.05,11.2,8,11.2,3.75,0,6.1-2.35,6.75-6.69H548C547.23-225,538.78-219.05,528.64-219Z" transform="translate(-396.3 262.88)" fill="#323132"/><path d="M577.63-245.61l17.55,25.52h-16l-10.21-16.25-3.75,3.94v12.32H552.59v-41.77h12.67l-0.06,8.45c0,4-.06,2.76-0.17,6.4l11.91-14.85h15.84Z" transform="translate(-396.3 262.88)" fill="#323132"/><path d="M493.85-261.81H481.17l-11.39,30.86H451.31V-261.8H438.46V-220h40.25l2.06-5.92,2.75-9c1.41-4.23,2.29-7.1,2.29-7.1,0.82-2.58,1.05-3.52,1.76-6.4a54.91,54.91,0,0,0,1.58,6.34s1.47,4.74,2.23,7.16l2.82,9,2.05,5.92h13Z" transform="translate(-396.3 262.88)" fill="#323132"/></svg>