<svg width="40" height="51.496" version="1.1" viewBox="0 0 39.999997 51.496456" xml:space="preserve" xmlns="http://www.w3.org/2000/svg"><defs><clipPath id="clipPath26"><path d="m0 512h397.7v-512h-397.7z"/></clipPath></defs><g transform="matrix(1.3333 0 0 -1.3333 0 51.496)"><g transform="scale(.075434)" fill="#09405e"><g clip-path="url(#clipPath26)" fill="#09405e"><g transform="translate(198.85 213.11)" fill="#09405e"><path d="m0 0c-55.164 0-100.04 44.879-100.04 100.04s44.879 100.04 100.04 100.04 100.04-44.879 100.04-100.04-44.877-100.04-100.04-100.04m0 298.89c-109.82 0-198.85-89.027-198.85-198.85 0-159.22 179.75-306.69 179.75-306.69 10.503-8.617 27.692-8.617 38.195 0 0 0 179.75 147.46 179.75 306.69 0 109.82-89.028 198.85-198.85 198.85" fill="#09405e"/></g></g></g></g></svg>
