<?xml version="1.0" encoding="UTF-8"?>
<svg width="84.99" height="108.67" version="1.1" viewBox="0 0 84.990402 108.6748" xml:space="preserve" xmlns="http://www.w3.org/2000/svg"><defs><clipPath id="clipPath28"><path d="M 0,81.506 H 63.743 V 0 H 0 Z"/></clipPath></defs><g transform="matrix(1.3333 0 0 -1.3333 0 108.67)"><path d="m0 4e-3h63.743v2.29h-63.743z"/><g clip-path="url(#clipPath28)"><g transform="translate(31.029 26.782)"><path d="m0 0c-2.024 0-3.671 1.647-3.671 3.671s1.647 3.671 3.671 3.671 3.671-1.647 3.671-3.671-1.647-3.671-3.671-3.671m0 8.74c-2.795 0-5.069-2.274-5.069-5.069s2.274-5.069 5.069-5.069 5.069 2.274 5.069 5.069-2.274 5.069-5.069 5.069"/></g><g transform="translate(31.029 26.782)"><path d="m0 0c-2.024 0-3.671 1.647-3.671 3.671s1.647 3.671 3.671 3.671 3.671-1.647 3.671-3.671-1.647-3.671-3.671-3.671zm0 8.74c-2.795 0-5.069-2.274-5.069-5.069s2.274-5.069 5.069-5.069 5.069 2.274 5.069 5.069-2.274 5.069-5.069 5.069z" fill="none" stroke="#000" stroke-miterlimit="10" stroke-width=".25"/></g><g transform="translate(22.988 14.896)"><path d="m0 0c-0.386 0-0.699-0.313-0.699-0.699v-2.098c0-0.386 0.313-0.699 0.699-0.699s0.699 0.313 0.699 0.699v2.098c0 0.386-0.313 0.699-0.699 0.699"/></g><g transform="translate(22.988 14.896)"><path d="m0 0c-0.386 0-0.699-0.313-0.699-0.699v-2.098c0-0.386 0.313-0.699 0.699-0.699s0.699 0.313 0.699 0.699v2.098c0 0.386-0.313 0.699-0.699 0.699z" fill="none" stroke="#000" stroke-miterlimit="10" stroke-width=".25"/></g><g transform="translate(27.052 14.896)"><path d="m0 0c-0.386 0-0.699-0.313-0.699-0.699v-2.098c0-0.386 0.313-0.699 0.699-0.699s0.699 0.313 0.699 0.699v2.098c0 0.386-0.313 0.699-0.699 0.699"/></g><g transform="translate(27.052 14.896)"><path d="m0 0c-0.386 0-0.699-0.313-0.699-0.699v-2.098c0-0.386 0.313-0.699 0.699-0.699s0.699 0.313 0.699 0.699v2.098c0 0.386-0.313 0.699-0.699 0.699z" fill="none" stroke="#000" stroke-miterlimit="10" stroke-width=".25"/></g><g transform="translate(31.116 14.896)"><path d="m0 0c-0.386 0-0.699-0.313-0.699-0.699v-2.098c0-0.386 0.313-0.699 0.699-0.699s0.699 0.313 0.699 0.699v2.098c0 0.386-0.313 0.699-0.699 0.699"/></g><g transform="translate(31.116 14.896)"><path d="m0 0c-0.386 0-0.699-0.313-0.699-0.699v-2.098c0-0.386 0.313-0.699 0.699-0.699s0.699 0.313 0.699 0.699v2.098c0 0.386-0.313 0.699-0.699 0.699z" fill="none" stroke="#000" stroke-miterlimit="10" stroke-width=".25"/></g><g transform="translate(35.181 14.896)"><path d="m0 0c-0.386 0-0.699-0.313-0.699-0.699v-2.098c0-0.386 0.313-0.699 0.699-0.699s0.699 0.313 0.699 0.699v2.098c0 0.386-0.313 0.699-0.699 0.699"/></g><g transform="translate(35.181 14.896)"><path d="m0 0c-0.386 0-0.699-0.313-0.699-0.699v-2.098c0-0.386 0.313-0.699 0.699-0.699s0.699 0.313 0.699 0.699v2.098c0 0.386-0.313 0.699-0.699 0.699z" fill="none" stroke="#000" stroke-miterlimit="10" stroke-width=".25"/></g><g transform="translate(39.245 14.896)"><path d="m0 0c-0.386 0-0.699-0.313-0.699-0.699v-2.098c0-0.386 0.313-0.699 0.699-0.699s0.699 0.313 0.699 0.699v2.098c0 0.386-0.313 0.699-0.699 0.699"/></g><g transform="translate(39.245 14.896)"><path d="m0 0c-0.386 0-0.699-0.313-0.699-0.699v-2.098c0-0.386 0.313-0.699 0.699-0.699s0.699 0.313 0.699 0.699v2.098c0 0.386-0.313 0.699-0.699 0.699z" fill="none" stroke="#000" stroke-miterlimit="10" stroke-width=".25"/></g><g transform="translate(28.752 78.561)"><path d="m0 0 1.042-0.407-0.604-0.942c-0.2-0.312-0.122-0.725 0.178-0.943 0.124-0.09 0.268-0.134 0.411-0.134 0.202 0 0.403 0.088 0.541 0.256l0.709 0.865 0.709-0.865c0.14-0.17 0.346-0.254 0.55-0.256 0.383 3e-3 0.694 0.315 0.694 0.699 0 0.163-0.056 0.312-0.148 0.43l-0.57 0.89 1.042 0.407c0.345 0.134 0.525 0.515 0.41 0.867-0.114 0.352-0.483 0.553-0.842 0.461l-1.082-0.284-0.065 1.117c-0.022 0.37-0.328 0.659-0.698 0.659s-0.676-0.289-0.698-0.659l-0.065-1.117-1.082 0.284c-0.359 0.092-0.728-0.108-0.842-0.461-0.115-0.352 0.065-0.732 0.41-0.867"/></g><g transform="translate(28.752 78.561)"><path d="m0 0 1.042-0.407-0.604-0.942c-0.2-0.312-0.122-0.725 0.178-0.943 0.124-0.09 0.268-0.134 0.411-0.134 0.202 0 0.403 0.088 0.541 0.256l0.709 0.865 0.709-0.865c0.14-0.17 0.346-0.254 0.55-0.256 0.383 3e-3 0.694 0.315 0.694 0.699 0 0.163-0.056 0.312-0.148 0.43l-0.57 0.89 1.042 0.407c0.345 0.134 0.525 0.515 0.41 0.867-0.114 0.352-0.483 0.553-0.842 0.461l-1.082-0.284-0.065 1.117c-0.022 0.37-0.328 0.659-0.698 0.659s-0.676-0.289-0.698-0.659l-0.065-1.117-1.082 0.284c-0.359 0.092-0.728-0.108-0.842-0.461-0.115-0.352 0.065-0.732 0.41-0.867z" fill="none" stroke="#000" stroke-miterlimit="10" stroke-width=".25"/></g><g transform="translate(59.085,1.5233)"><path d="m0 0h-16.169v10.226h3.527c0.386 0 0.699 0.313 0.699 0.699v3.959l1.17-0.85c0.245-0.179 0.577-0.179 0.822 0l1.169 0.85v-3.959c0-0.386 0.313-0.699 0.699-0.699h4.222c0.386 0 0.699 0.313 0.699 0.699v3.959l1.171-0.851c0.245-0.178 0.577-0.178 0.822 1e-3l1.169 0.85zm-38.632 5.069h21.064v-5.069h-21.064zm-17.218 9.815 1.169-0.85c0.245-0.179 0.578-0.178 0.823 0l1.171 0.851v-3.96c0-0.386 0.313-0.699 0.699-0.699h4.221c0.386 0 0.7 0.313 0.7 0.699v3.959l1.169-0.85c0.245-0.178 0.577-0.178 0.822 0l1.169 0.85v-3.959c0-0.386 0.313-0.699 0.699-0.699h3.178v-10.226h-15.819v14.884zm20.714 20.252h14.16v-12.412h-14.16zm1.923 5.681h10.314v-4.283h-10.314zm1.923 1.398h-1.923v9.614h1.923zm3.234 27.127 3.042-16.114h-6.084zm1.835-27.127h-3.671v9.614h3.671zm3.322 0h-1.923v9.614h1.923zm-15.733-20.889h3.453v-4.929c0-0.387 0.313-0.7 0.699-0.7s0.699 0.313 0.699 0.7v4.929h4.982v-4.929c0-0.387 0.313-0.7 0.699-0.7s0.7 0.313 0.7 0.7v4.929h4.981v-4.929c0-0.387 0.314-0.7 0.7-0.7s0.699 0.313 0.699 0.7v4.929h3.452v-14.858h-21.064zm39.649-4.446c-0.235 0.119-0.516 0.097-0.729-0.058l-1.868-1.358-1.87 1.358c-0.213 0.155-0.494 0.177-0.729 0.058-0.234-0.12-0.381-0.361-0.381-0.623v-4.633h-2.824v4.633c0 0.263-0.147 0.503-0.381 0.623-0.235 0.119-0.516 0.097-0.729-0.058l-1.868-1.359-1.869 1.359c-0.212 0.155-0.493 0.177-0.728 0.058-0.234-0.12-0.382-0.36-0.382-0.623v-4.633h-2.828v10.401c0 0.386-0.313 0.699-0.7 0.699h-0.349v3.333c0 0.386-0.313 0.699-0.699 0.699s-0.7-0.313-0.7-0.699v-3.333h-0.961v13.111c0 0.386-0.313 0.699-0.699 0.699h-1.224v15.994c0 0.386-0.313 0.7-0.699 0.7h-1.391l-3.778 20.013c-0.062 0.331-0.351 0.57-0.687 0.57s-0.625-0.239-0.687-0.57l-3.778-20.013h-1.391c-0.386 0-0.699-0.313-0.699-0.699v-15.995h-1.224c-0.386 0-0.699-0.313-0.699-0.699v-13.111h-1.049v3.333c0 0.387-0.313 0.7-0.699 0.7s-0.699-0.313-0.699-0.7v-3.333h-0.35c-0.386 0-0.699-0.313-0.699-0.699v-10.401h-2.479v4.633c0 0.263-0.147 0.504-0.382 0.623-0.234 0.119-0.516 0.097-0.728-0.058l-1.869-1.358-1.868 1.358c-0.212 0.155-0.494 0.177-0.728 0.058-0.235-0.119-0.382-0.36-0.382-0.623v-4.633h-2.823v4.633c0 0.263-0.148 0.503-0.382 0.623-0.235 0.119-0.516 0.097-0.729-0.057l-1.87-1.359-1.868 1.359c-0.212 0.154-0.494 0.176-0.728 0.057-0.235-0.119-0.382-0.36-0.382-0.623v-16.956c0-0.386 0.313-0.699 0.699-0.699h57.248c0.386 0 0.699 0.313 0.699 0.699v16.956c0 0.263-0.147 0.504-0.381 0.623"/></g><g transform="translate(59.085,1.5233)"><path d="m0 0h-16.169v10.226h3.527c0.386 0 0.699 0.313 0.699 0.699v3.959l1.17-0.85c0.245-0.179 0.577-0.179 0.822 0l1.169 0.85v-3.959c0-0.386 0.313-0.699 0.699-0.699h4.222c0.386 0 0.699 0.313 0.699 0.699v3.959l1.171-0.851c0.245-0.178 0.577-0.178 0.822 1e-3l1.169 0.85v-14.884zm-38.632 5.069h21.064v-5.069h-21.064zm-17.218 9.815 1.169-0.85c0.245-0.179 0.578-0.178 0.823 0l1.171 0.851v-3.96c0-0.386 0.313-0.699 0.699-0.699h4.221c0.386 0 0.7 0.313 0.7 0.699v3.959l1.169-0.85c0.245-0.178 0.577-0.178 0.822 0l1.169 0.85v-3.959c0-0.386 0.313-0.699 0.699-0.699h3.178v-10.226h-15.819v14.884zm20.714 20.252h14.16v-12.412h-14.16v12.412zm1.923 5.681h10.314v-4.283h-10.314v4.283zm1.923 1.398h-1.923v9.614h1.923zm3.234 27.127 3.042-16.114h-6.084zm1.835-27.127h-3.671v9.614h3.671zm3.322 0h-1.923v9.614h1.923zm-15.733-20.889h3.453v-4.929c0-0.387 0.313-0.7 0.699-0.7s0.699 0.313 0.699 0.7v4.929h4.982v-4.929c0-0.387 0.313-0.7 0.699-0.7s0.7 0.313 0.7 0.7v4.929h4.981v-4.929c0-0.387 0.314-0.7 0.7-0.7s0.699 0.313 0.699 0.7v4.929h3.452v-14.858h-21.064v14.858zm39.649-4.446c-0.235 0.119-0.516 0.097-0.729-0.058l-1.868-1.358-1.87 1.358c-0.213 0.155-0.494 0.177-0.729 0.058-0.234-0.12-0.381-0.361-0.381-0.623v-4.633h-2.824v4.633c0 0.263-0.147 0.503-0.381 0.623-0.235 0.119-0.516 0.097-0.729-0.058l-1.868-1.359-1.869 1.359c-0.212 0.155-0.493 0.177-0.728 0.058-0.234-0.12-0.382-0.36-0.382-0.623v-4.633h-2.828v10.401c0 0.386-0.313 0.699-0.7 0.699h-0.349v3.333c0 0.386-0.313 0.699-0.699 0.699s-0.7-0.313-0.7-0.699v-3.333h-0.961v13.111c0 0.386-0.313 0.699-0.699 0.699h-1.224v15.994c0 0.386-0.313 0.7-0.699 0.7h-1.391l-3.778 20.013c-0.062 0.331-0.351 0.57-0.687 0.57s-0.625-0.239-0.687-0.57l-3.778-20.013h-1.391c-0.386 0-0.699-0.313-0.699-0.699v-15.995h-1.224c-0.386 0-0.699-0.313-0.699-0.699v-13.111h-1.049v3.333c0 0.387-0.313 0.7-0.699 0.7s-0.699-0.313-0.699-0.7v-3.333h-0.35c-0.386 0-0.699-0.313-0.699-0.699v-10.401h-2.479v4.633c0 0.263-0.147 0.504-0.382 0.623-0.234 0.119-0.516 0.097-0.728-0.058l-1.869-1.358-1.868 1.358c-0.212 0.155-0.494 0.177-0.728 0.058-0.235-0.119-0.382-0.36-0.382-0.623v-4.633h-2.823v4.633c0 0.263-0.148 0.503-0.382 0.623-0.235 0.119-0.516 0.097-0.729-0.057l-1.87-1.359-1.868 1.359c-0.212 0.154-0.494 0.176-0.728 0.057-0.235-0.119-0.382-0.36-0.382-0.623v-16.956c0-0.386 0.313-0.699 0.699-0.699h57.248c0.386 0 0.699 0.313 0.699 0.699v16.956c0 0.263-0.147 0.504-0.381 0.623z" fill="none" stroke="#000" stroke-miterlimit="10" stroke-width=".25"/></g><g transform="translate(32.777 31.152)"><path d="m0 0h-1.049v1.071c0 0.386-0.313 0.699-0.699 0.699s-0.699-0.313-0.699-0.699v-1.77c0-0.386 0.313-0.699 0.699-0.699h1.748c0.386 0 0.699 0.313 0.699 0.699s-0.313 0.699-0.699 0.699"/></g><g transform="translate(32.777 31.152)"><path d="m0 0h-1.049v1.071c0 0.386-0.313 0.699-0.699 0.699s-0.699-0.313-0.699-0.699v-1.77c0-0.386 0.313-0.699 0.699-0.699h1.748c0.386 0 0.699 0.313 0.699 0.699s-0.313 0.699-0.699 0.699z" fill="none" stroke="#000" stroke-miterlimit="10" stroke-width=".25"/></g></g></g></svg>
