<?xml version="1.0" encoding="utf-8"?>
<!-- Generator: Adobe Illustrator 21.0.0, SVG Export Plug-In . SVG Version: 6.00 Build 0)  -->
<svg version="1.1" id="Capa_1" xmlns="http://www.w3.org/2000/svg" xmlns:xlink="http://www.w3.org/1999/xlink" x="0px" y="0px"
	 viewBox="-97 98.1 60 60" style="enable-background:new -97 98.1 60 60;" xml:space="preserve">
<g>
	<path d="M-46.5,156.1v-4c0-0.6-0.4-1-1-1s-1,0.4-1,1v4h-1v-2c0-0.6-0.4-1-1-1s-1,0.4-1,1v2h-1v-4c0-0.6-0.4-1-1-1s-1,0.4-1,1v4h-1
		c-0.2-4.8-1.3-25.6-9-38.4c1.8-0.8,3.1-2.5,3.1-4.6c0-0.2,0-0.4-0.1-0.6l2.8-0.7l0.6-1.5l1.3,1l11.6-3.1l-0.3-1
		c-0.9-3.5-7.8-5.2-14.4-3.4c-3.3,0.9-6.3,2.6-8.4,4.6c0,0-0.1,0-0.1,0c-1.3-2.8-3.9-5.6-7.2-7.5c-2.8-1.7-5.9-2.7-8.7-2.9
		c-2.9-0.2-5.1,0.6-6,2.1l-0.5,0.9l10.3,6.2l1.5-0.6l0.2,1.7l1.3,0.8c-1.7,0-3.5,0.2-5.3,0.7c-3.1,0.8-6,2.4-8.1,4.3
		c-2.1,2-3.1,4.1-2.6,5.8l0.3,1l11.6-3.1l0.6-1.5l1.3,1l2.6-0.7c-0.2,0.5-0.3,1-0.3,1.5c0,2.8,2.2,5,5,5c1.1,0,2.2-0.4,3-1
		c0.2,1.1,0.4,2.3,0.6,3.4c0,0.2,0.1,0.3,0.1,0.5c0.2,1.4,0.4,2.9,0.6,4.2c0,0,0,0,0,0c1.5,13,0.6,22.2-2.7,25.9h-0.5v-3
		c0-0.6-0.4-1-1-1s-1,0.4-1,1v3h-3c0.6-0.8,1-1.9,1-3c0-2.8-2.2-5-5-5s-5,2.2-5,5c0,1.1,0.4,2.2,1,3h-11v2h25h14h18v-2L-46.5,156.1
		L-46.5,156.1z M-83.5,153.1c0-1.7,1.3-3,3-3s3,1.3,3,3c0,1.7-1.3,3-3,3S-83.5,154.8-83.5,153.1z M-67.8,119.9c0-0.1,0-0.1,0.1-0.2
		c0.1-0.2,0.1-0.4,0.2-0.6c0.1-0.3,0.1-0.6,0.1-0.9c0,0,0-0.1,0-0.1c0,0,0,0,0.1,0c0.2,0,0.5,0.1,0.8,0.1c0.4,0.6,0.8,1.3,1.2,2
		h-2.3C-67.8,120.1-67.8,120-67.8,119.9z M-67.4,122.1h2.9c0,0.1,0.1,0.1,0.1,0.2c0.2,0.4,0.4,0.8,0.6,1.2c0.1,0.1,0.1,0.3,0.2,0.4
		c0.2,0.4,0.3,0.8,0.5,1.2c0.1,0.2,0.1,0.3,0.2,0.5c0.2,0.4,0.3,0.9,0.5,1.3c0.1,0.4,0.3,0.8,0.4,1.2c0,0.1,0.1,0.3,0.1,0.4
		c0.1,0.2,0.1,0.4,0.2,0.5h-4.6C-66.7,126.8-67,124.4-67.4,122.1C-67.4,122.1-67.4,122.1-67.4,122.1z M-66.1,131.1h4.9
		c0.7,2.3,1.2,4.7,1.6,7h-6C-65.7,135.8-65.9,133.5-66.1,131.1z M-65.5,140.1h6.3c0.4,2.5,0.8,4.9,1,7h-7.5
		C-65.5,144.9-65.5,142.6-65.5,140.1z M-66.2,116.1C-66.2,116.1-66.2,116.1-66.2,116.1l-0.3,0c-0.9,0-1.5-0.4-1.9-0.7
		c-0.3-0.2-0.6-0.5-0.7-0.9c0,0,0,0,0,0c-0.1-0.2-0.2-0.5-0.3-0.7l0-0.2c0-0.2-0.1-0.3-0.1-0.5c0-0.2,0-0.3,0-0.4
		c0-0.1,0-0.2,0.1-0.3l0,0c0-0.1,0.1-0.2,0.1-0.4c0.1-0.1,0.1-0.2,0.2-0.4c0,0,0-0.1,0.1-0.1c0.2-0.3,0.4-0.6,0.7-0.8l0.2-0.2
		c0.1-0.1,0.3-0.2,0.4-0.2l0.3-0.1c0.2-0.1,0.3-0.1,0.5-0.1c0.2,0,0.3-0.1,0.5-0.1c0.2,0,0.4,0,0.5,0.1c0.1,0,0.1,0,0.2,0
		c0.1,0,0.2,0.1,0.3,0.1c0.1,0,0.2,0.1,0.2,0.1c0.1,0,0.1,0.1,0.2,0.1c0.6,0.4,1.1,0.9,1.4,1.6l0,0.1c0.1,0.3,0.1,0.5,0.1,0.8
		C-63.5,114.7-64.7,115.9-66.2,116.1z M-59.4,105.8c5.1-1.4,9.7-0.4,11.3,1.1l-8.4,2.2l-2.6-2.1l-1.2,3.1l-1.9,0.5c0,0,0,0,0-0.1
		c-0.1-0.2-0.3-0.4-0.4-0.6c-0.1-0.1-0.1-0.1-0.2-0.2c-0.1-0.2-0.3-0.3-0.5-0.5c-0.1-0.1-0.2-0.1-0.3-0.2c-0.2-0.1-0.3-0.2-0.5-0.3
		c-0.1-0.1-0.2-0.1-0.3-0.2c-0.2-0.1-0.3-0.1-0.5-0.2c-0.1,0-0.1-0.1-0.2-0.1C-63.4,107.2-61.5,106.3-59.4,105.8z M-80.4,105.1
		l-7.4-4.5c0.8-0.4,2-0.6,3.4-0.5c2.5,0.1,5.3,1.1,7.8,2.6c3.6,2.2,5.7,5,6.5,7c-0.1,0.1-0.1,0.2-0.2,0.3c-0.1,0.1-0.2,0.2-0.2,0.3
		c-0.1,0.1-0.1,0.2-0.2,0.3c0,0,0,0,0,0.1c-0.5-0.3-1.1-0.6-1.7-0.8l-4.5-2.7l-0.3-3.3L-80.4,105.1z M-82,113.1l-1.2,3.1l-8.4,2.2
		c0.3-0.8,1-1.8,2-2.8c1.8-1.7,4.5-3.1,7.3-3.9c1.7-0.4,3.3-0.6,4.8-0.6c1.6,0,3,0.2,4.2,0.6l1.9,1.1c0,0,0,0.1,0,0.2l-0.6,0.2
		c0,0,0,0-0.1,0c-0.1,0-0.2,0-0.3,0c-0.1,0-0.1,0-0.2,0c-0.2,0-0.5,0-0.7,0.1c-0.1,0-0.2,0-0.2,0c-0.2,0-0.4,0.1-0.6,0.2
		c-0.1,0-0.3,0.1-0.4,0.1c-0.1,0-0.1,0.1-0.2,0.1c-0.2,0.1-0.4,0.2-0.6,0.3l-4.1,1.1L-82,113.1z M-72.5,121.1c-1.7,0-3-1.3-3-3
		c0-1,0.5-1.8,1.2-2.3l0,0c0.1-0.1,0.3-0.2,0.4-0.3c0,0,0,0,0.1,0c0.1-0.1,0.2-0.1,0.3-0.1c0.1,0,0.2-0.1,0.3-0.1c0.1,0,0.1,0,0.2,0
		c0.1,0,0.2,0,0.3,0c0.1,0,0.3,0,0.4,0l0.3,0l0,0c0.4,0.1,0.8,0.3,1.2,0.5c0,0,0,0,0,0c0.1,0.2,0.2,0.4,0.4,0.5c0,0,0.1,0.1,0.1,0.1
		c0.1,0.2,0.3,0.3,0.4,0.4c0.1,0.2,0.2,0.3,0.2,0.5c0,0,0,0.1,0,0.1c0.1,0.2,0.1,0.5,0.1,0.7c0,0.4-0.1,0.8-0.3,1.3c0,0,0,0,0,0
		C-70.3,120.4-71.3,121.1-72.5,121.1z M-68.4,156.1c1.2-1.8,1.9-4.2,2.4-7h8c0.3,3.2,0.4,5.7,0.5,7H-68.4z"/>
</g>
</svg>
